<svg width="288" height="255" viewBox="0 0 288 255" fill="none" xmlns="http://www.w3.org/2000/svg">
<path d="M140.659 62.9699C142.68 61.6152 145.32 61.6152 147.341 62.9699L285.341 153.493C288.886 155.87 288.886 161.084 285.341 163.461L147.341 253.984C145.32 255.339 142.68 255.339 140.659 253.984L2.65928 163.461C-0.88642 161.084 -0.886431 155.87 2.65927 153.493L140.659 62.9699Z" fill="#F24822"/>
<rect y="93.8887" width="288" height="66.4247" rx="6" fill="#F24822"/>
<path d="M140.659 1.01607C142.68 -0.338689 145.32 -0.338691 147.341 1.01607L285.341 91.5392C288.886 93.9158 288.886 99.1303 285.341 101.507L147.341 192.03C145.32 193.385 142.68 193.385 140.659 192.03L2.65928 101.507C-0.88642 99.1303 -0.886431 93.9158 2.65927 91.5392L140.659 1.01607Z" fill="#FFC7C2"/>
<path d="M86.3119 101H79.6088V82.0909H86.3673C88.2693 82.0909 89.9066 82.4695 91.2792 83.2266C92.6518 83.9775 93.7075 85.0578 94.4461 86.4673C95.1909 87.8769 95.5633 89.5634 95.5633 91.527C95.5633 93.4967 95.1909 95.1894 94.4461 96.6051C93.7075 98.0208 92.6457 99.1072 91.2607 99.8643C89.882 100.621 88.2323 101 86.3119 101ZM83.6066 97.5746H86.1457C87.3275 97.5746 88.3216 97.3653 89.1279 96.9467C89.9404 96.522 90.5498 95.8665 90.9561 94.9801C91.3685 94.0876 91.5747 92.9366 91.5747 91.527C91.5747 90.1297 91.3685 88.9879 90.9561 88.1016C90.5498 87.2152 89.9435 86.5627 89.1372 86.1442C88.3308 85.7256 87.3367 85.5163 86.1549 85.5163H83.6066V97.5746ZM102.209 101.268C101.304 101.268 100.498 101.111 99.7899 100.797C99.082 100.477 98.5219 100.006 98.1095 99.3842C97.7033 98.7564 97.5001 97.9747 97.5001 97.0391C97.5001 96.2512 97.6448 95.5895 97.9341 95.054C98.2234 94.5185 98.6173 94.0876 99.1159 93.7614C99.6145 93.4351 100.181 93.1889 100.815 93.0227C101.455 92.8565 102.126 92.7396 102.828 92.6719C103.652 92.5857 104.317 92.5057 104.822 92.4318C105.327 92.3518 105.693 92.2348 105.921 92.081C106.148 91.9271 106.262 91.6993 106.262 91.3977V91.3423C106.262 90.7576 106.078 90.3052 105.708 89.9851C105.345 89.665 104.828 89.505 104.157 89.505C103.449 89.505 102.886 89.6619 102.467 89.9759C102.049 90.2836 101.772 90.6714 101.636 91.1392L97.9987 90.8438C98.1834 89.982 98.5465 89.2372 99.0882 88.6094C99.6299 87.9754 100.328 87.4891 101.184 87.1506C102.046 86.8059 103.043 86.6335 104.176 86.6335C104.963 86.6335 105.717 86.7259 106.438 86.9105C107.164 87.0952 107.807 87.3814 108.367 87.7692C108.934 88.157 109.38 88.6555 109.706 89.2649C110.032 89.8681 110.195 90.5914 110.195 91.4347V101H106.465V99.0334H106.355C106.127 99.4766 105.822 99.8674 105.44 100.206C105.059 100.538 104.6 100.8 104.065 100.991C103.529 101.175 102.911 101.268 102.209 101.268ZM103.335 98.5533C103.914 98.5533 104.425 98.4394 104.868 98.2116C105.311 97.9777 105.659 97.6638 105.911 97.2699C106.164 96.8759 106.29 96.4297 106.29 95.9311V94.4261C106.167 94.5062 105.998 94.58 105.782 94.6477C105.573 94.7093 105.336 94.7678 105.071 94.8232C104.806 94.8724 104.542 94.9186 104.277 94.9616C104.012 94.9986 103.772 95.0324 103.557 95.0632C103.095 95.1309 102.692 95.2386 102.347 95.3864C102.003 95.5341 101.735 95.7341 101.544 95.9865C101.353 96.2327 101.258 96.5405 101.258 96.9098C101.258 97.4453 101.452 97.8546 101.84 98.1378C102.234 98.4148 102.732 98.5533 103.335 98.5533ZM120.504 86.8182V89.7727H111.964V86.8182H120.504ZM113.903 83.4205H117.836V96.642C117.836 97.0052 117.891 97.2884 118.002 97.4915C118.113 97.6884 118.267 97.8269 118.464 97.907C118.667 97.987 118.901 98.027 119.165 98.027C119.35 98.027 119.535 98.0116 119.719 97.9808C119.904 97.9439 120.046 97.9162 120.144 97.8977L120.763 100.825C120.566 100.886 120.289 100.957 119.932 101.037C119.575 101.123 119.141 101.175 118.63 101.194C117.682 101.231 116.851 101.105 116.137 100.815C115.429 100.526 114.878 100.077 114.484 99.4673C114.09 98.858 113.897 98.0885 113.903 97.1591V83.4205ZM126.824 101.268C125.92 101.268 125.113 101.111 124.405 100.797C123.698 100.477 123.137 100.006 122.725 99.3842C122.319 98.7564 122.116 97.9747 122.116 97.0391C122.116 96.2512 122.26 95.5895 122.55 95.054C122.839 94.5185 123.233 94.0876 123.731 93.7614C124.23 93.4351 124.796 93.1889 125.43 93.0227C126.07 92.8565 126.741 92.7396 127.443 92.6719C128.268 92.5857 128.933 92.5057 129.437 92.4318C129.942 92.3518 130.308 92.2348 130.536 92.081C130.764 91.9271 130.878 91.6993 130.878 91.3977V91.3423C130.878 90.7576 130.693 90.3052 130.324 89.9851C129.961 89.665 129.444 89.505 128.773 89.505C128.065 89.505 127.502 89.6619 127.083 89.9759C126.664 90.2836 126.387 90.6714 126.252 91.1392L122.614 90.8438C122.799 89.982 123.162 89.2372 123.704 88.6094C124.245 87.9754 124.944 87.4891 125.8 87.1506C126.661 86.8059 127.658 86.6335 128.791 86.6335C129.579 86.6335 130.333 86.7259 131.053 86.9105C131.779 87.0952 132.423 87.3814 132.983 87.7692C133.549 88.157 133.995 88.6555 134.322 89.2649C134.648 89.8681 134.811 90.5914 134.811 91.4347V101H131.081V99.0334H130.97C130.742 99.4766 130.438 99.8674 130.056 100.206C129.674 100.538 129.216 100.8 128.68 100.991C128.145 101.175 127.526 101.268 126.824 101.268ZM127.951 98.5533C128.529 98.5533 129.04 98.4394 129.484 98.2116C129.927 97.9777 130.274 97.6638 130.527 97.2699C130.779 96.8759 130.905 96.4297 130.905 95.9311V94.4261C130.782 94.5062 130.613 94.58 130.398 94.6477C130.188 94.7093 129.951 94.7678 129.687 94.8232C129.422 94.8724 129.157 94.9186 128.893 94.9616C128.628 94.9986 128.388 95.0324 128.172 95.0632C127.711 95.1309 127.308 95.2386 126.963 95.3864C126.618 95.5341 126.35 95.7341 126.16 95.9865C125.969 96.2327 125.873 96.5405 125.873 96.9098C125.873 97.4453 126.067 97.8546 126.455 98.1378C126.849 98.4148 127.348 98.5533 127.951 98.5533ZM143.382 82.0909H148.312L153.52 94.7955H153.741L158.949 82.0909H163.879V101H160.001V88.6925H159.844L154.951 100.908H152.31L147.417 88.6463H147.26V101H143.382V82.0909ZM173.276 101.277C171.817 101.277 170.562 100.982 169.509 100.391C168.463 99.7936 167.656 98.9503 167.09 97.8608C166.524 96.7652 166.241 95.4695 166.241 93.9737C166.241 92.5149 166.524 91.2346 167.09 90.1328C167.656 89.031 168.453 88.1723 169.481 87.5568C170.515 86.9413 171.728 86.6335 173.119 86.6335C174.055 86.6335 174.926 86.7843 175.732 87.0859C176.545 87.3814 177.252 87.8277 177.856 88.4247C178.465 89.0218 178.939 89.7727 179.278 90.6776C179.616 91.5762 179.785 92.6288 179.785 93.8352V94.9155H167.81V92.478H176.083C176.083 91.9117 175.96 91.41 175.714 90.973C175.467 90.536 175.126 90.1944 174.689 89.9482C174.258 89.6958 173.756 89.5696 173.184 89.5696C172.587 89.5696 172.057 89.7081 171.596 89.9851C171.14 90.2559 170.783 90.6222 170.525 91.0838C170.266 91.5393 170.134 92.0471 170.128 92.6072V94.9247C170.128 95.6264 170.257 96.2327 170.515 96.7436C170.78 97.2545 171.153 97.6484 171.633 97.9254C172.113 98.2024 172.682 98.3409 173.341 98.3409C173.778 98.3409 174.178 98.2794 174.541 98.1562C174.904 98.0331 175.215 97.8485 175.474 97.6023C175.732 97.3561 175.929 97.0545 176.064 96.6974L179.702 96.9375C179.518 97.8116 179.139 98.5748 178.567 99.2273C178 99.8736 177.268 100.378 176.369 100.741C175.477 101.098 174.446 101.277 173.276 101.277ZM193.866 90.8622L190.265 91.0838C190.203 90.776 190.071 90.4991 189.868 90.2528C189.665 90.0005 189.397 89.8004 189.065 89.6527C188.738 89.4988 188.348 89.4219 187.892 89.4219C187.283 89.4219 186.769 89.5511 186.35 89.8097C185.932 90.062 185.722 90.4006 185.722 90.8253C185.722 91.1638 185.858 91.45 186.129 91.6839C186.399 91.9179 186.864 92.1056 187.523 92.2472L190.09 92.7642C191.468 93.0473 192.496 93.5028 193.173 94.1307C193.85 94.7585 194.189 95.5833 194.189 96.6051C194.189 97.5346 193.915 98.3501 193.367 99.0518C192.826 99.7536 192.081 100.301 191.133 100.695C190.191 101.083 189.105 101.277 187.874 101.277C185.996 101.277 184.501 100.886 183.386 100.104C182.278 99.3165 181.629 98.2455 181.438 96.8913L185.307 96.6882C185.424 97.2607 185.707 97.6977 186.156 97.9993C186.606 98.2947 187.181 98.4425 187.883 98.4425C188.572 98.4425 189.126 98.3101 189.545 98.0455C189.97 97.7746 190.185 97.4268 190.191 97.0021C190.185 96.6451 190.034 96.3527 189.739 96.125C189.443 95.8911 188.988 95.7126 188.372 95.5895L185.916 95.1001C184.531 94.8232 183.5 94.343 182.823 93.6598C182.152 92.9766 181.817 92.1056 181.817 91.0469C181.817 90.1359 182.063 89.3511 182.555 88.6925C183.054 88.0339 183.753 87.526 184.651 87.169C185.556 86.812 186.615 86.6335 187.827 86.6335C189.619 86.6335 191.028 87.0121 192.056 87.7692C193.09 88.5263 193.693 89.5573 193.866 90.8622ZM200.313 92.8011V101H196.38V82.0909H200.202V89.3203H200.368C200.688 88.4832 201.205 87.8277 201.919 87.3537C202.633 86.8736 203.529 86.6335 204.606 86.6335C205.591 86.6335 206.45 86.849 207.182 87.2798C207.921 87.7045 208.493 88.317 208.9 89.1172C209.312 89.9112 209.515 90.8622 209.509 91.9702V101H205.576V92.6719C205.582 91.7978 205.36 91.1177 204.911 90.6314C204.468 90.1451 203.846 89.902 203.046 89.902C202.51 89.902 202.036 90.0159 201.624 90.2436C201.218 90.4714 200.898 90.8037 200.664 91.2408C200.436 91.6716 200.319 92.1918 200.313 92.8011Z" fill="#1E1E1E"/>
</svg>
