<svg width="288" height="255" viewBox="0 0 288 255" fill="none" xmlns="http://www.w3.org/2000/svg">
<path d="M140.659 62.9699C142.68 61.6152 145.32 61.6152 147.341 62.9699L285.341 153.493C288.886 155.87 288.886 161.084 285.341 163.461L147.341 253.984C145.32 255.339 142.68 255.339 140.659 253.984L2.65928 163.461C-0.88642 161.084 -0.886431 155.87 2.65927 153.493L140.659 62.9699Z" fill="#0D99FF"/>
<rect y="93.8887" width="288" height="66.4247" rx="6" fill="#0D99FF"/>
<path d="M140.659 1.01607C142.68 -0.338689 145.32 -0.338691 147.341 1.01607L285.341 91.5391C288.886 93.9158 288.886 99.1303 285.341 101.507L147.341 192.03C145.32 193.385 142.68 193.385 140.659 192.03L2.65928 101.507C-0.88642 99.1303 -0.886431 93.9158 2.65927 91.5391L140.659 1.01607Z" fill="#BDE3FF"/>
<path d="M88.6082 75H81.9051V56.0909H88.6636C90.5656 56.0909 92.2029 56.4695 93.5755 57.2266C94.9482 57.9775 96.0038 59.0578 96.7424 60.4673C97.4872 61.8769 97.8596 63.5634 97.8596 65.527C97.8596 67.4967 97.4872 69.1894 96.7424 70.6051C96.0038 72.0208 94.942 73.1072 93.5571 73.8643C92.1783 74.6214 90.5287 75 88.6082 75ZM85.9029 71.5746H88.442C89.6238 71.5746 90.6179 71.3653 91.4243 70.9467C92.2368 70.522 92.8461 69.8665 93.2524 68.9801C93.6648 68.0876 93.871 66.9366 93.871 65.527C93.871 64.1297 93.6648 62.9879 93.2524 62.1016C92.8461 61.2152 92.2398 60.5627 91.4335 60.1442C90.6271 59.7256 89.6331 59.5163 88.4512 59.5163H85.9029V71.5746ZM106.924 75.277C105.465 75.277 104.21 74.9815 103.157 74.3906C102.111 73.7936 101.305 72.9503 100.738 71.8608C100.172 70.7652 99.8888 69.4695 99.8888 67.9737C99.8888 66.5149 100.172 65.2346 100.738 64.1328C101.305 63.031 102.102 62.1723 103.13 61.5568C104.164 60.9413 105.376 60.6335 106.767 60.6335C107.703 60.6335 108.574 60.7843 109.38 61.0859C110.193 61.3814 110.901 61.8277 111.504 62.4247C112.113 63.0218 112.587 63.7727 112.926 64.6776C113.264 65.5762 113.434 66.6288 113.434 67.8352V68.9155H101.458V66.478H109.731C109.731 65.9117 109.608 65.41 109.362 64.973C109.116 64.536 108.774 64.1944 108.337 63.9482C107.906 63.6958 107.404 63.5696 106.832 63.5696C106.235 63.5696 105.706 63.7081 105.244 63.9851C104.788 64.2559 104.431 64.6222 104.173 65.0838C103.914 65.5393 103.782 66.0471 103.776 66.6072V68.9247C103.776 69.6264 103.905 70.2327 104.164 70.7436C104.428 71.2545 104.801 71.6484 105.281 71.9254C105.761 72.2024 106.33 72.3409 106.989 72.3409C107.426 72.3409 107.826 72.2794 108.189 72.1562C108.552 72.0331 108.863 71.8485 109.122 71.6023C109.38 71.3561 109.577 71.0545 109.713 70.6974L113.35 70.9375C113.166 71.8116 112.787 72.5748 112.215 73.2273C111.648 73.8736 110.916 74.3783 110.017 74.7415C109.125 75.0985 108.094 75.277 106.924 75.277ZM128.555 60.8182L123.597 75H119.165L114.207 60.8182H118.362L121.307 70.9652H121.455L124.391 60.8182H128.555ZM136.288 75.277C134.829 75.277 133.573 74.9815 132.521 74.3906C131.474 73.7936 130.668 72.9503 130.102 71.8608C129.535 70.7652 129.252 69.4695 129.252 67.9737C129.252 66.5149 129.535 65.2346 130.102 64.1328C130.668 63.031 131.465 62.1723 132.493 61.5568C133.527 60.9413 134.74 60.6335 136.131 60.6335C137.066 60.6335 137.937 60.7843 138.744 61.0859C139.556 61.3814 140.264 61.8277 140.867 62.4247C141.477 63.0218 141.951 63.7727 142.289 64.6776C142.628 65.5762 142.797 66.6288 142.797 67.8352V68.9155H130.822V66.478H139.095C139.095 65.9117 138.972 65.41 138.725 64.973C138.479 64.536 138.138 64.1944 137.7 63.9482C137.27 63.6958 136.768 63.5696 136.196 63.5696C135.598 63.5696 135.069 63.7081 134.607 63.9851C134.152 64.2559 133.795 64.6222 133.536 65.0838C133.278 65.5393 133.146 66.0471 133.139 66.6072V68.9247C133.139 69.6264 133.269 70.2327 133.527 70.7436C133.792 71.2545 134.164 71.6484 134.644 71.9254C135.124 72.2024 135.694 72.3409 136.352 72.3409C136.79 72.3409 137.19 72.2794 137.553 72.1562C137.916 72.0331 138.227 71.8485 138.485 71.6023C138.744 71.3561 138.941 71.0545 139.076 70.6974L142.714 70.9375C142.529 71.8116 142.151 72.5748 141.578 73.2273C141.012 73.8736 140.28 74.3783 139.381 74.7415C138.488 75.0985 137.457 75.277 136.288 75.277ZM149.011 56.0909V75H145.078V56.0909H149.011ZM158.283 75.277C156.849 75.277 155.609 74.9723 154.563 74.3629C153.522 73.7474 152.719 72.8918 152.153 71.7962C151.587 70.6944 151.303 69.4171 151.303 67.9645C151.303 66.4995 151.587 65.2192 152.153 64.1236C152.719 63.0218 153.522 62.1662 154.563 61.5568C155.609 60.9413 156.849 60.6335 158.283 60.6335C159.718 60.6335 160.955 60.9413 161.995 61.5568C163.042 62.1662 163.848 63.0218 164.414 64.1236C164.98 65.2192 165.264 66.4995 165.264 67.9645C165.264 69.4171 164.98 70.6944 164.414 71.7962C163.848 72.8918 163.042 73.7474 161.995 74.3629C160.955 74.9723 159.718 75.277 158.283 75.277ZM158.302 72.2301C158.954 72.2301 159.499 72.0455 159.936 71.6761C160.373 71.3007 160.703 70.7898 160.924 70.1435C161.152 69.4972 161.266 68.7616 161.266 67.9368C161.266 67.112 161.152 66.3764 160.924 65.7301C160.703 65.0838 160.373 64.5729 159.936 64.1974C159.499 63.822 158.954 63.6342 158.302 63.6342C157.643 63.6342 157.089 63.822 156.64 64.1974C156.197 64.5729 155.861 65.0838 155.634 65.7301C155.412 66.3764 155.301 67.112 155.301 67.9368C155.301 68.7616 155.412 69.4972 155.634 70.1435C155.861 70.7898 156.197 71.3007 156.64 71.6761C157.089 72.0455 157.643 72.2301 158.302 72.2301ZM167.535 80.3182V60.8182H171.413V63.2003H171.588C171.761 62.8187 172.01 62.4309 172.336 62.0369C172.669 61.6368 173.1 61.3045 173.629 61.0398C174.164 60.7689 174.829 60.6335 175.623 60.6335C176.657 60.6335 177.611 60.9044 178.485 61.446C179.359 61.9815 180.058 62.791 180.581 63.8743C181.104 64.9515 181.366 66.3026 181.366 67.9276C181.366 69.5095 181.111 70.8452 180.6 71.9347C180.095 73.018 179.406 73.8397 178.532 74.3999C177.664 74.9538 176.691 75.2308 175.614 75.2308C174.851 75.2308 174.201 75.1046 173.666 74.8523C173.136 74.5999 172.703 74.2829 172.364 73.9013C172.025 73.5135 171.767 73.1226 171.588 72.7287H171.468V80.3182H167.535ZM171.385 67.9091C171.385 68.7524 171.502 69.4879 171.736 70.1158C171.97 70.7436 172.309 71.233 172.752 71.5838C173.195 71.9285 173.734 72.1009 174.368 72.1009C175.008 72.1009 175.549 71.9254 175.993 71.5746C176.436 71.2176 176.771 70.7251 176.999 70.0973C177.233 69.4633 177.35 68.7339 177.35 67.9091C177.35 67.0904 177.236 66.3703 177.008 65.7486C176.78 65.1269 176.445 64.6406 176.002 64.2898C175.559 63.9389 175.014 63.7635 174.368 63.7635C173.727 63.7635 173.186 63.9328 172.743 64.2713C172.305 64.6098 171.97 65.09 171.736 65.7116C171.502 66.3333 171.385 67.0658 171.385 67.9091ZM190.165 75.277C188.707 75.277 187.451 74.9815 186.398 74.3906C185.352 73.7936 184.546 72.9503 183.979 71.8608C183.413 70.7652 183.13 69.4695 183.13 67.9737C183.13 66.5149 183.413 65.2346 183.979 64.1328C184.546 63.031 185.343 62.1723 186.371 61.5568C187.405 60.9413 188.617 60.6335 190.008 60.6335C190.944 60.6335 191.815 60.7843 192.621 61.0859C193.434 61.3814 194.142 61.8277 194.745 62.4247C195.354 63.0218 195.828 63.7727 196.167 64.6776C196.505 65.5762 196.675 66.6288 196.675 67.8352V68.9155H184.699V66.478H192.972C192.972 65.9117 192.849 65.41 192.603 64.973C192.357 64.536 192.015 64.1944 191.578 63.9482C191.147 63.6958 190.645 63.5696 190.073 63.5696C189.476 63.5696 188.947 63.7081 188.485 63.9851C188.029 64.2559 187.672 64.6222 187.414 65.0838C187.155 65.5393 187.023 66.0471 187.017 66.6072V68.9247C187.017 69.6264 187.146 70.2327 187.405 70.7436C187.669 71.2545 188.042 71.6484 188.522 71.9254C189.002 72.2024 189.571 72.3409 190.23 72.3409C190.667 72.3409 191.067 72.2794 191.43 72.1562C191.793 72.0331 192.104 71.8485 192.363 71.6023C192.621 71.3561 192.818 71.0545 192.954 70.6974L196.591 70.9375C196.407 71.8116 196.028 72.5748 195.456 73.2273C194.89 73.8736 194.157 74.3783 193.258 74.7415C192.366 75.0985 191.335 75.277 190.165 75.277ZM198.955 75V60.8182H202.769V63.2926H202.916C203.175 62.4124 203.609 61.7476 204.218 61.2983C204.827 60.8428 205.529 60.6151 206.323 60.6151C206.52 60.6151 206.733 60.6274 206.96 60.652C207.188 60.6766 207.388 60.7105 207.56 60.7536V64.2436C207.376 64.1882 207.12 64.139 206.794 64.0959C206.468 64.0528 206.169 64.0312 205.898 64.0312C205.32 64.0312 204.803 64.1574 204.347 64.4098C203.898 64.656 203.541 65.0007 203.276 65.4439C203.018 65.8871 202.889 66.398 202.889 66.9766V75H198.955ZM75.5354 114V95.0909H88.2769V98.3871H79.5332V102.893H87.6213V106.189H79.5332V110.704H88.3138V114H75.5354ZM94.3824 99.8182L96.9861 104.776L99.6544 99.8182H103.689L99.5805 106.909L103.8 114H99.7836L96.9861 109.097L94.2346 114H90.1721L94.3824 106.909L90.3199 99.8182H94.3824ZM105.739 119.318V99.8182H109.617V102.2H109.792C109.965 101.819 110.214 101.431 110.54 101.037C110.873 100.637 111.304 100.304 111.833 100.04C112.368 99.7689 113.033 99.6335 113.827 99.6335C114.861 99.6335 115.815 99.9044 116.689 100.446C117.563 100.982 118.262 101.791 118.785 102.874C119.308 103.951 119.57 105.303 119.57 106.928C119.57 108.509 119.315 109.845 118.804 110.935C118.299 112.018 117.61 112.84 116.736 113.4C115.868 113.954 114.895 114.231 113.818 114.231C113.055 114.231 112.405 114.105 111.87 113.852C111.34 113.6 110.907 113.283 110.568 112.901C110.229 112.513 109.971 112.123 109.792 111.729H109.672V119.318H105.739ZM109.589 106.909C109.589 107.752 109.706 108.488 109.94 109.116C110.174 109.744 110.513 110.233 110.956 110.584C111.399 110.929 111.938 111.101 112.572 111.101C113.212 111.101 113.753 110.925 114.197 110.575C114.64 110.218 114.975 109.725 115.203 109.097C115.437 108.463 115.554 107.734 115.554 106.909C115.554 106.09 115.44 105.37 115.212 104.749C114.984 104.127 114.649 103.641 114.206 103.29C113.763 102.939 113.218 102.763 112.572 102.763C111.931 102.763 111.39 102.933 110.947 103.271C110.509 103.61 110.174 104.09 109.94 104.712C109.706 105.333 109.589 106.066 109.589 106.909ZM128.369 114.277C126.911 114.277 125.655 113.982 124.602 113.391C123.556 112.794 122.75 111.95 122.183 110.861C121.617 109.765 121.334 108.469 121.334 106.974C121.334 105.515 121.617 104.235 122.183 103.133C122.75 102.031 123.547 101.172 124.575 100.557C125.609 99.9413 126.821 99.6335 128.212 99.6335C129.148 99.6335 130.019 99.7843 130.825 100.086C131.638 100.381 132.346 100.828 132.949 101.425C133.558 102.022 134.032 102.773 134.371 103.678C134.709 104.576 134.879 105.629 134.879 106.835V107.915H122.903V105.478H131.176C131.176 104.912 131.053 104.41 130.807 103.973C130.561 103.536 130.219 103.194 129.782 102.948C129.351 102.696 128.849 102.57 128.277 102.57C127.68 102.57 127.151 102.708 126.689 102.985C126.233 103.256 125.876 103.622 125.618 104.084C125.359 104.539 125.227 105.047 125.221 105.607V107.925C125.221 108.626 125.35 109.233 125.609 109.744C125.873 110.254 126.246 110.648 126.726 110.925C127.206 111.202 127.775 111.341 128.434 111.341C128.871 111.341 129.271 111.279 129.634 111.156C129.997 111.033 130.308 110.848 130.567 110.602C130.825 110.356 131.022 110.054 131.158 109.697L134.795 109.938C134.611 110.812 134.232 111.575 133.66 112.227C133.094 112.874 132.361 113.378 131.462 113.741C130.57 114.098 129.539 114.277 128.369 114.277ZM137.159 114V99.8182H140.973V102.293H141.12C141.379 101.412 141.813 100.748 142.422 100.298C143.031 99.8428 143.733 99.6151 144.527 99.6151C144.724 99.6151 144.937 99.6274 145.164 99.652C145.392 99.6766 145.592 99.7105 145.764 99.7536V103.244C145.58 103.188 145.324 103.139 144.998 103.096C144.672 103.053 144.373 103.031 144.102 103.031C143.524 103.031 143.007 103.157 142.551 103.41C142.102 103.656 141.745 104.001 141.48 104.444C141.222 104.887 141.093 105.398 141.093 105.977V114H137.159ZM147.512 114V99.8182H151.445V114H147.512ZM149.488 97.9901C148.903 97.9901 148.401 97.7962 147.983 97.4084C147.57 97.0144 147.364 96.5436 147.364 95.9957C147.364 95.4541 147.57 94.9893 147.983 94.6016C148.401 94.2076 148.903 94.0107 149.488 94.0107C150.073 94.0107 150.571 94.2076 150.984 94.6016C151.402 94.9893 151.611 95.4541 151.611 95.9957C151.611 96.5436 151.402 97.0144 150.984 97.4084C150.571 97.7962 150.073 97.9901 149.488 97.9901ZM160.773 114.277C159.314 114.277 158.059 113.982 157.006 113.391C155.96 112.794 155.153 111.95 154.587 110.861C154.021 109.765 153.738 108.469 153.738 106.974C153.738 105.515 154.021 104.235 154.587 103.133C155.153 102.031 155.95 101.172 156.978 100.557C158.012 99.9413 159.225 99.6335 160.616 99.6335C161.552 99.6335 162.423 99.7843 163.229 100.086C164.042 100.381 164.749 100.828 165.353 101.425C165.962 102.022 166.436 102.773 166.774 103.678C167.113 104.576 167.282 105.629 167.282 106.835V107.915H155.307V105.478H163.58C163.58 104.912 163.457 104.41 163.211 103.973C162.964 103.536 162.623 103.194 162.186 102.948C161.755 102.696 161.253 102.57 160.681 102.57C160.084 102.57 159.554 102.708 159.093 102.985C158.637 103.256 158.28 103.622 158.022 104.084C157.763 104.539 157.631 105.047 157.625 105.607V107.925C157.625 108.626 157.754 109.233 158.012 109.744C158.277 110.254 158.649 110.648 159.13 110.925C159.61 111.202 160.179 111.341 160.838 111.341C161.275 111.341 161.675 111.279 162.038 111.156C162.401 111.033 162.712 110.848 162.97 110.602C163.229 110.356 163.426 110.054 163.561 109.697L167.199 109.938C167.015 110.812 166.636 111.575 166.064 112.227C165.497 112.874 164.765 113.378 163.866 113.741C162.974 114.098 161.943 114.277 160.773 114.277ZM173.496 105.801V114H169.563V99.8182H173.312V102.32H173.478C173.792 101.496 174.318 100.843 175.057 100.363C175.795 99.8767 176.691 99.6335 177.743 99.6335C178.728 99.6335 179.587 99.849 180.319 100.28C181.052 100.711 181.621 101.326 182.028 102.126C182.434 102.92 182.637 103.868 182.637 104.97V114H178.704V105.672C178.71 104.804 178.488 104.127 178.039 103.641C177.59 103.148 176.971 102.902 176.183 102.902C175.654 102.902 175.186 103.016 174.78 103.244C174.38 103.471 174.066 103.804 173.838 104.241C173.616 104.672 173.502 105.192 173.496 105.801ZM191.859 114.277C190.406 114.277 189.156 113.969 188.11 113.354C187.07 112.732 186.27 111.87 185.709 110.768C185.155 109.667 184.878 108.399 184.878 106.964C184.878 105.512 185.158 104.238 185.719 103.142C186.285 102.04 187.088 101.182 188.128 100.566C189.169 99.9444 190.406 99.6335 191.84 99.6335C193.077 99.6335 194.161 99.8582 195.09 100.308C196.02 100.757 196.755 101.388 197.297 102.2C197.838 103.013 198.137 103.967 198.192 105.062H194.481C194.376 104.355 194.099 103.785 193.65 103.354C193.207 102.917 192.625 102.699 191.905 102.699C191.295 102.699 190.763 102.865 190.307 103.197C189.858 103.524 189.507 104.001 189.255 104.629C189.002 105.256 188.876 106.017 188.876 106.909C188.876 107.814 188.999 108.583 189.246 109.217C189.498 109.851 189.852 110.335 190.307 110.667C190.763 110.999 191.295 111.165 191.905 111.165C192.354 111.165 192.757 111.073 193.114 110.888C193.477 110.704 193.776 110.436 194.01 110.085C194.25 109.728 194.407 109.3 194.481 108.802H198.192C198.131 109.885 197.835 110.839 197.306 111.664C196.783 112.483 196.06 113.123 195.136 113.585C194.213 114.046 193.12 114.277 191.859 114.277ZM206.888 114.277C205.429 114.277 204.173 113.982 203.121 113.391C202.074 112.794 201.268 111.95 200.702 110.861C200.135 109.765 199.852 108.469 199.852 106.974C199.852 105.515 200.135 104.235 200.702 103.133C201.268 102.031 202.065 101.172 203.093 100.557C204.127 99.9413 205.34 99.6335 206.731 99.6335C207.666 99.6335 208.537 99.7843 209.344 100.086C210.156 100.381 210.864 100.828 211.467 101.425C212.077 102.022 212.551 102.773 212.889 103.678C213.228 104.576 213.397 105.629 213.397 106.835V107.915H201.422V105.478H209.695C209.695 104.912 209.571 104.41 209.325 103.973C209.079 103.536 208.737 103.194 208.3 102.948C207.869 102.696 207.368 102.57 206.795 102.57C206.198 102.57 205.669 102.708 205.207 102.985C204.752 103.256 204.395 103.622 204.136 104.084C203.878 104.539 203.745 105.047 203.739 105.607V107.925C203.739 108.626 203.869 109.233 204.127 109.744C204.392 110.254 204.764 110.648 205.244 110.925C205.724 111.202 206.294 111.341 206.952 111.341C207.389 111.341 207.789 111.279 208.153 111.156C208.516 111.033 208.827 110.848 209.085 110.602C209.344 110.356 209.541 110.054 209.676 109.697L213.314 109.938C213.129 110.812 212.751 111.575 212.178 112.227C211.612 112.874 210.879 113.378 209.981 113.741C209.088 114.098 208.057 114.277 206.888 114.277ZM110.859 153V134.091H118.319C119.753 134.091 120.975 134.365 121.985 134.913C122.994 135.454 123.764 136.208 124.293 137.175C124.828 138.135 125.096 139.243 125.096 140.499C125.096 141.754 124.825 142.862 124.284 143.822C123.742 144.783 122.957 145.531 121.929 146.066C120.908 146.602 119.67 146.869 118.218 146.869H113.463V143.665H117.571C118.341 143.665 118.975 143.533 119.473 143.268C119.978 142.998 120.354 142.625 120.6 142.151C120.852 141.671 120.978 141.12 120.978 140.499C120.978 139.871 120.852 139.323 120.6 138.855C120.354 138.381 119.978 138.015 119.473 137.756C118.969 137.492 118.328 137.359 117.553 137.359H114.857V153H110.859ZM131.266 134.091V153H127.333V134.091H131.266ZM138.175 153.268C137.27 153.268 136.464 153.111 135.756 152.797C135.048 152.477 134.488 152.006 134.076 151.384C133.669 150.756 133.466 149.975 133.466 149.039C133.466 148.251 133.611 147.589 133.9 147.054C134.19 146.518 134.584 146.088 135.082 145.761C135.581 145.435 136.147 145.189 136.781 145.023C137.421 144.857 138.092 144.74 138.794 144.672C139.619 144.586 140.283 144.506 140.788 144.432C141.293 144.352 141.659 144.235 141.887 144.081C142.115 143.927 142.228 143.699 142.228 143.398V143.342C142.228 142.758 142.044 142.305 141.674 141.985C141.311 141.665 140.794 141.505 140.123 141.505C139.415 141.505 138.852 141.662 138.434 141.976C138.015 142.284 137.738 142.671 137.603 143.139L133.965 142.844C134.15 141.982 134.513 141.237 135.054 140.609C135.596 139.975 136.295 139.489 137.15 139.151C138.012 138.806 139.009 138.634 140.142 138.634C140.93 138.634 141.684 138.726 142.404 138.911C143.13 139.095 143.773 139.381 144.334 139.769C144.9 140.157 145.346 140.656 145.672 141.265C145.999 141.868 146.162 142.591 146.162 143.435V153H142.432V151.033H142.321C142.093 151.477 141.788 151.867 141.407 152.206C141.025 152.538 140.566 152.8 140.031 152.991C139.495 153.175 138.877 153.268 138.175 153.268ZM139.302 150.553C139.88 150.553 140.391 150.439 140.834 150.212C141.277 149.978 141.625 149.664 141.878 149.27C142.13 148.876 142.256 148.43 142.256 147.931V146.426C142.133 146.506 141.964 146.58 141.748 146.648C141.539 146.709 141.302 146.768 141.037 146.823C140.773 146.872 140.508 146.919 140.243 146.962C139.979 146.999 139.739 147.032 139.523 147.063C139.062 147.131 138.658 147.239 138.314 147.386C137.969 147.534 137.701 147.734 137.51 147.987C137.32 148.233 137.224 148.54 137.224 148.91C137.224 149.445 137.418 149.855 137.806 150.138C138.2 150.415 138.698 150.553 139.302 150.553ZM152.86 144.801V153H148.927V138.818H152.676V141.32H152.842C153.156 140.496 153.682 139.843 154.421 139.363C155.159 138.877 156.055 138.634 157.108 138.634C158.092 138.634 158.951 138.849 159.684 139.28C160.416 139.711 160.985 140.326 161.392 141.126C161.798 141.92 162.001 142.868 162.001 143.97V153H158.068V144.672C158.074 143.804 157.852 143.127 157.403 142.641C156.954 142.148 156.335 141.902 155.547 141.902C155.018 141.902 154.55 142.016 154.144 142.244C153.744 142.471 153.43 142.804 153.202 143.241C152.98 143.672 152.867 144.192 152.86 144.801ZM171.278 153.277C169.819 153.277 168.564 152.982 167.511 152.391C166.465 151.794 165.658 150.95 165.092 149.861C164.526 148.765 164.243 147.469 164.243 145.974C164.243 144.515 164.526 143.235 165.092 142.133C165.658 141.031 166.455 140.172 167.483 139.557C168.517 138.941 169.73 138.634 171.121 138.634C172.057 138.634 172.928 138.784 173.734 139.086C174.547 139.381 175.254 139.828 175.858 140.425C176.467 141.022 176.941 141.773 177.279 142.678C177.618 143.576 177.787 144.629 177.787 145.835V146.915H165.812V144.478H174.085C174.085 143.912 173.962 143.41 173.716 142.973C173.469 142.536 173.128 142.194 172.691 141.948C172.26 141.696 171.758 141.57 171.186 141.57C170.589 141.57 170.059 141.708 169.598 141.985C169.142 142.256 168.785 142.622 168.527 143.084C168.268 143.539 168.136 144.047 168.13 144.607V146.925C168.13 147.626 168.259 148.233 168.517 148.744C168.782 149.254 169.154 149.648 169.635 149.925C170.115 150.202 170.684 150.341 171.343 150.341C171.78 150.341 172.18 150.279 172.543 150.156C172.906 150.033 173.217 149.848 173.475 149.602C173.734 149.356 173.931 149.054 174.066 148.697L177.704 148.938C177.52 149.812 177.141 150.575 176.569 151.227C176.002 151.874 175.27 152.378 174.371 152.741C173.479 153.098 172.448 153.277 171.278 153.277Z" fill="#1E1E1E"/>
</svg>
