<svg width="288" height="255" viewBox="0 0 288 255" fill="none" xmlns="http://www.w3.org/2000/svg">
<path d="M140.659 62.9699C142.68 61.6152 145.32 61.6152 147.341 62.9699L285.341 153.493C288.886 155.87 288.886 161.084 285.341 163.461L147.341 253.984C145.32 255.339 142.68 255.339 140.659 253.984L2.65928 163.461C-0.88642 161.084 -0.88643 155.87 2.65927 153.493L140.659 62.9699Z" fill="#FFCD29"/>
<rect y="93.8887" width="288" height="66.4247" rx="6" fill="#FFCD29"/>
<path d="M140.659 1.01607C142.68 -0.338689 145.32 -0.338691 147.341 1.01607L285.341 91.5391C288.886 93.9158 288.886 99.1303 285.341 101.507L147.341 192.03C145.32 193.385 142.68 193.385 140.659 192.03L2.65928 101.507C-0.88642 99.1303 -0.88643 93.9158 2.65927 91.5391L140.659 1.01607Z" fill="#FFE8A3"/>
<path d="M89.686 78.2031C89.5568 77.7538 89.3752 77.3568 89.1413 77.0121C88.9074 76.6612 88.6212 76.3658 88.2826 76.1257C87.9502 75.8795 87.5686 75.6918 87.1377 75.5625C86.713 75.4332 86.2421 75.3686 85.7251 75.3686C84.7587 75.3686 83.9093 75.6087 83.1768 76.0888C82.4505 76.5689 81.8842 77.2675 81.4779 78.1847C81.0717 79.0956 80.8686 80.2098 80.8686 81.527C80.8686 82.8442 81.0686 83.9645 81.4687 84.8878C81.8688 85.8111 82.4351 86.5159 83.1676 87.0021C83.9001 87.4822 84.7649 87.7223 85.762 87.7223C86.6669 87.7223 87.4394 87.5623 88.0795 87.2422C88.7258 86.916 89.2182 86.4574 89.5568 85.8665C89.9015 85.2756 90.0738 84.5769 90.0738 83.7706L90.8863 83.8906H86.0113V80.8807H93.924V83.2628C93.924 84.9247 93.5731 86.3527 92.8714 87.5469C92.1697 88.7348 91.2033 89.652 89.9723 90.2983C88.7412 90.9384 87.3316 91.2585 85.7436 91.2585C83.9708 91.2585 82.4135 90.8677 81.0717 90.0859C79.7298 89.2981 78.6834 88.1809 77.9325 86.7344C77.1877 85.2817 76.8153 83.5582 76.8153 81.5639C76.8153 80.0312 77.0369 78.6648 77.4801 77.4645C77.9294 76.258 78.5572 75.2363 79.3636 74.3991C80.1699 73.562 81.1086 72.925 82.1796 72.4879C83.2507 72.0509 84.4109 71.8324 85.6605 71.8324C86.7315 71.8324 87.7287 71.9893 88.6519 72.3033C89.5752 72.611 90.3939 73.0481 91.1079 73.6143C91.8281 74.1806 92.4159 74.8546 92.8714 75.6364C93.3269 76.4119 93.6193 77.2675 93.7485 78.2031H89.686ZM103.03 91.277C101.571 91.277 100.316 90.9815 99.2631 90.3906C98.2167 89.7936 97.4104 88.9503 96.8441 87.8608C96.2778 86.7652 95.9947 85.4695 95.9947 83.9737C95.9947 82.5149 96.2778 81.2346 96.8441 80.1328C97.4104 79.031 98.2075 78.1723 99.2354 77.5568C100.27 76.9413 101.482 76.6335 102.873 76.6335C103.809 76.6335 104.68 76.7843 105.486 77.0859C106.299 77.3814 107.007 77.8277 107.61 78.4247C108.219 79.0218 108.693 79.7727 109.032 80.6776C109.37 81.5762 109.539 82.6288 109.539 83.8352V84.9155H97.5643V82.478H105.837C105.837 81.9117 105.714 81.41 105.468 80.973C105.221 80.536 104.88 80.1944 104.443 79.9482C104.012 79.6958 103.51 79.5696 102.938 79.5696C102.341 79.5696 101.811 79.7081 101.35 79.9851C100.894 80.2559 100.537 80.6222 100.279 81.0838C100.02 81.5393 99.8879 82.0471 99.8817 82.6072V84.9247C99.8817 85.6264 100.011 86.2327 100.27 86.7436C100.534 87.2545 100.907 87.6484 101.387 87.9254C101.867 88.2024 102.436 88.3409 103.095 88.3409C103.532 88.3409 103.932 88.2794 104.295 88.1562C104.658 88.0331 104.969 87.8485 105.228 87.6023C105.486 87.3561 105.683 87.0545 105.819 86.6974L109.456 86.9375C109.272 87.8116 108.893 88.5748 108.321 89.2273C107.754 89.8736 107.022 90.3783 106.123 90.7415C105.231 91.0985 104.2 91.277 103.03 91.277ZM115.753 82.8011V91H111.82V76.8182H115.569V79.3203H115.735C116.049 78.4955 116.575 77.843 117.314 77.3629C118.052 76.8767 118.948 76.6335 120.001 76.6335C120.985 76.6335 121.844 76.849 122.577 77.2798C123.309 77.7107 123.878 78.3262 124.285 79.1264C124.691 79.9205 124.894 80.8684 124.894 81.9702V91H120.961V82.6719C120.967 81.804 120.745 81.1269 120.296 80.6406C119.847 80.1482 119.228 79.902 118.44 79.902C117.911 79.902 117.443 80.0159 117.037 80.2436C116.637 80.4714 116.323 80.8037 116.095 81.2408C115.873 81.6716 115.76 82.1918 115.753 82.8011ZM134.171 91.277C132.712 91.277 131.457 90.9815 130.404 90.3906C129.358 89.7936 128.551 88.9503 127.985 87.8608C127.419 86.7652 127.136 85.4695 127.136 83.9737C127.136 82.5149 127.419 81.2346 127.985 80.1328C128.551 79.031 129.348 78.1723 130.376 77.5568C131.41 76.9413 132.623 76.6335 134.014 76.6335C134.95 76.6335 135.821 76.7843 136.627 77.0859C137.44 77.3814 138.147 77.8277 138.751 78.4247C139.36 79.0218 139.834 79.7727 140.172 80.6776C140.511 81.5762 140.68 82.6288 140.68 83.8352V84.9155H128.705V82.478H136.978C136.978 81.9117 136.855 81.41 136.609 80.973C136.362 80.536 136.021 80.1944 135.584 79.9482C135.153 79.6958 134.651 79.5696 134.079 79.5696C133.482 79.5696 132.952 79.7081 132.491 79.9851C132.035 80.2559 131.678 80.6222 131.42 81.0838C131.161 81.5393 131.029 82.0471 131.023 82.6072V84.9247C131.023 85.6264 131.152 86.2327 131.41 86.7436C131.675 87.2545 132.047 87.6484 132.528 87.9254C133.008 88.2024 133.577 88.3409 134.236 88.3409C134.673 88.3409 135.073 88.2794 135.436 88.1562C135.799 88.0331 136.11 87.8485 136.369 87.6023C136.627 87.3561 136.824 87.0545 136.959 86.6974L140.597 86.9375C140.413 87.8116 140.034 88.5748 139.462 89.2273C138.895 89.8736 138.163 90.3783 137.264 90.7415C136.372 91.0985 135.341 91.277 134.171 91.277ZM142.961 91V76.8182H146.774V79.2926H146.922C147.181 78.4124 147.614 77.7476 148.224 77.2983C148.833 76.8428 149.535 76.6151 150.329 76.6151C150.526 76.6151 150.738 76.6274 150.966 76.652C151.194 76.6766 151.394 76.7105 151.566 76.7536V80.2436C151.382 80.1882 151.126 80.139 150.8 80.0959C150.474 80.0528 150.175 80.0312 149.904 80.0312C149.326 80.0312 148.809 80.1574 148.353 80.4098C147.904 80.656 147.547 81.0007 147.282 81.4439C147.024 81.8871 146.894 82.398 146.894 82.9766V91H142.961ZM156.952 91.2678C156.047 91.2678 155.24 91.1108 154.532 90.7969C153.825 90.4768 153.265 90.0059 152.852 89.3842C152.446 88.7564 152.243 87.9747 152.243 87.0391C152.243 86.2512 152.387 85.5895 152.677 85.054C152.966 84.5185 153.36 84.0876 153.858 83.7614C154.357 83.4351 154.923 83.1889 155.557 83.0227C156.198 82.8565 156.868 82.7396 157.57 82.6719C158.395 82.5857 159.06 82.5057 159.564 82.4318C160.069 82.3518 160.435 82.2348 160.663 82.081C160.891 81.9271 161.005 81.6993 161.005 81.3977V81.3423C161.005 80.7576 160.82 80.3052 160.451 79.9851C160.088 79.665 159.571 79.505 158.9 79.505C158.192 79.505 157.629 79.6619 157.21 79.9759C156.791 80.2836 156.515 80.6714 156.379 81.1392L152.741 80.8438C152.926 79.982 153.289 79.2372 153.831 78.6094C154.372 77.9754 155.071 77.4891 155.927 77.1506C156.788 76.8059 157.786 76.6335 158.918 76.6335C159.706 76.6335 160.46 76.7259 161.18 76.9105C161.907 77.0952 162.55 77.3814 163.11 77.7692C163.676 78.157 164.122 78.6555 164.449 79.2649C164.775 79.8681 164.938 80.5914 164.938 81.4347V91H161.208V89.0334H161.097C160.869 89.4766 160.565 89.8674 160.183 90.206C159.801 90.5384 159.343 90.8 158.807 90.9908C158.272 91.1754 157.653 91.2678 156.952 91.2678ZM158.078 88.5533C158.657 88.5533 159.167 88.4394 159.611 88.2116C160.054 87.9777 160.402 87.6638 160.654 87.2699C160.906 86.8759 161.032 86.4297 161.032 85.9311V84.4261C160.909 84.5062 160.74 84.58 160.525 84.6477C160.315 84.7093 160.078 84.7678 159.814 84.8232C159.549 84.8724 159.284 84.9186 159.02 84.9616C158.755 84.9986 158.515 85.0324 158.3 85.0632C157.838 85.1309 157.435 85.2386 157.09 85.3864C156.745 85.5341 156.478 85.7341 156.287 85.9865C156.096 86.2327 156.001 86.5405 156.001 86.9098C156.001 87.4453 156.194 87.8546 156.582 88.1378C156.976 88.4148 157.475 88.5533 158.078 88.5533ZM175.247 76.8182V79.7727H166.706V76.8182H175.247ZM168.645 73.4205H172.579V86.642C172.579 87.0052 172.634 87.2884 172.745 87.4915C172.856 87.6884 173.009 87.8269 173.206 87.907C173.409 87.987 173.643 88.027 173.908 88.027C174.093 88.027 174.277 88.0116 174.462 87.9808C174.647 87.9439 174.788 87.9162 174.887 87.8977L175.505 90.8246C175.308 90.8861 175.031 90.9569 174.674 91.0369C174.317 91.1231 173.883 91.1754 173.373 91.1939C172.425 91.2308 171.594 91.1046 170.88 90.8153C170.172 90.526 169.621 90.0767 169.227 89.4673C168.833 88.858 168.639 88.0885 168.645 87.1591V73.4205ZM177.523 91V76.8182H181.456V91H177.523ZM179.499 74.9901C178.914 74.9901 178.412 74.7962 177.994 74.4084C177.581 74.0144 177.375 73.5436 177.375 72.9957C177.375 72.4541 177.581 71.9893 177.994 71.6016C178.412 71.2076 178.914 71.0107 179.499 71.0107C180.084 71.0107 180.582 71.2076 180.995 71.6016C181.413 71.9893 181.622 72.4541 181.622 72.9957C181.622 73.5436 181.413 74.0144 180.995 74.4084C180.582 74.7962 180.084 74.9901 179.499 74.9901ZM197.543 76.8182L192.584 91H188.153L183.195 76.8182H187.349L190.295 86.9652H190.442L193.379 76.8182H197.543ZM205.275 91.277C203.817 91.277 202.561 90.9815 201.508 90.3906C200.462 89.7936 199.656 88.9503 199.089 87.8608C198.523 86.7652 198.24 85.4695 198.24 83.9737C198.24 82.5149 198.523 81.2346 199.089 80.1328C199.656 79.031 200.453 78.1723 201.481 77.5568C202.515 76.9413 203.727 76.6335 205.118 76.6335C206.054 76.6335 206.925 76.7843 207.731 77.0859C208.544 77.3814 209.252 77.8277 209.855 78.4247C210.464 79.0218 210.938 79.7727 211.277 80.6776C211.615 81.5762 211.785 82.6288 211.785 83.8352V84.9155H199.809V82.478H208.082C208.082 81.9117 207.959 81.41 207.713 80.973C207.467 80.536 207.125 80.1944 206.688 79.9482C206.257 79.6958 205.756 79.5696 205.183 79.5696C204.586 79.5696 204.057 79.7081 203.595 79.9851C203.14 80.2559 202.782 80.6222 202.524 81.0838C202.265 81.5393 202.133 82.0471 202.127 82.6072V84.9247C202.127 85.6264 202.256 86.2327 202.515 86.7436C202.779 87.2545 203.152 87.6484 203.632 87.9254C204.112 88.2024 204.681 88.3409 205.34 88.3409C205.777 88.3409 206.177 88.2794 206.54 88.1562C206.903 88.0331 207.214 87.8485 207.473 87.6023C207.731 87.3561 207.928 87.0545 208.064 86.6974L211.702 86.9375C211.517 87.8116 211.138 88.5748 210.566 89.2273C210 89.8736 209.267 90.3783 208.368 90.7415C207.476 91.0985 206.445 91.277 205.275 91.277ZM110.859 130V111.091H118.319C119.753 111.091 120.975 111.365 121.985 111.913C122.994 112.454 123.764 113.208 124.293 114.175C124.828 115.135 125.096 116.243 125.096 117.499C125.096 118.754 124.825 119.862 124.284 120.822C123.742 121.783 122.957 122.531 121.929 123.066C120.908 123.602 119.67 123.869 118.218 123.869H113.463V120.665H117.571C118.341 120.665 118.975 120.533 119.473 120.268C119.978 119.998 120.354 119.625 120.6 119.151C120.852 118.671 120.978 118.12 120.978 117.499C120.978 116.871 120.852 116.323 120.6 115.855C120.354 115.381 119.978 115.015 119.473 114.756C118.969 114.492 118.328 114.359 117.553 114.359H114.857V130H110.859ZM131.266 111.091V130H127.333V111.091H131.266ZM138.175 130.268C137.27 130.268 136.464 130.111 135.756 129.797C135.048 129.477 134.488 129.006 134.076 128.384C133.669 127.756 133.466 126.975 133.466 126.039C133.466 125.251 133.611 124.589 133.9 124.054C134.19 123.518 134.584 123.088 135.082 122.761C135.581 122.435 136.147 122.189 136.781 122.023C137.421 121.857 138.092 121.74 138.794 121.672C139.619 121.586 140.283 121.506 140.788 121.432C141.293 121.352 141.659 121.235 141.887 121.081C142.115 120.927 142.228 120.699 142.228 120.398V120.342C142.228 119.758 142.044 119.305 141.674 118.985C141.311 118.665 140.794 118.505 140.123 118.505C139.415 118.505 138.852 118.662 138.434 118.976C138.015 119.284 137.738 119.671 137.603 120.139L133.965 119.844C134.15 118.982 134.513 118.237 135.054 117.609C135.596 116.975 136.295 116.489 137.15 116.151C138.012 115.806 139.009 115.634 140.142 115.634C140.93 115.634 141.684 115.726 142.404 115.911C143.13 116.095 143.773 116.381 144.334 116.769C144.9 117.157 145.346 117.656 145.672 118.265C145.999 118.868 146.162 119.591 146.162 120.435V130H142.432V128.033H142.321C142.093 128.477 141.788 128.867 141.407 129.206C141.025 129.538 140.566 129.8 140.031 129.991C139.495 130.175 138.877 130.268 138.175 130.268ZM139.302 127.553C139.88 127.553 140.391 127.439 140.834 127.212C141.277 126.978 141.625 126.664 141.878 126.27C142.13 125.876 142.256 125.43 142.256 124.931V123.426C142.133 123.506 141.964 123.58 141.748 123.648C141.539 123.709 141.302 123.768 141.037 123.823C140.773 123.872 140.508 123.919 140.243 123.962C139.979 123.999 139.739 124.032 139.523 124.063C139.062 124.131 138.658 124.239 138.314 124.386C137.969 124.534 137.701 124.734 137.51 124.987C137.32 125.233 137.224 125.54 137.224 125.91C137.224 126.445 137.418 126.855 137.806 127.138C138.2 127.415 138.698 127.553 139.302 127.553ZM152.86 121.801V130H148.927V115.818H152.676V118.32H152.842C153.156 117.496 153.682 116.843 154.421 116.363C155.159 115.877 156.055 115.634 157.108 115.634C158.092 115.634 158.951 115.849 159.684 116.28C160.416 116.711 160.985 117.326 161.392 118.126C161.798 118.92 162.001 119.868 162.001 120.97V130H158.068V121.672C158.074 120.804 157.852 120.127 157.403 119.641C156.954 119.148 156.335 118.902 155.547 118.902C155.018 118.902 154.55 119.016 154.144 119.244C153.744 119.471 153.43 119.804 153.202 120.241C152.98 120.672 152.867 121.192 152.86 121.801ZM171.278 130.277C169.819 130.277 168.564 129.982 167.511 129.391C166.465 128.794 165.658 127.95 165.092 126.861C164.526 125.765 164.243 124.469 164.243 122.974C164.243 121.515 164.526 120.235 165.092 119.133C165.658 118.031 166.455 117.172 167.483 116.557C168.517 115.941 169.73 115.634 171.121 115.634C172.057 115.634 172.928 115.784 173.734 116.086C174.547 116.381 175.254 116.828 175.858 117.425C176.467 118.022 176.941 118.773 177.279 119.678C177.618 120.576 177.787 121.629 177.787 122.835V123.915H165.812V121.478H174.085C174.085 120.912 173.962 120.41 173.716 119.973C173.469 119.536 173.128 119.194 172.691 118.948C172.26 118.696 171.758 118.57 171.186 118.57C170.589 118.57 170.059 118.708 169.598 118.985C169.142 119.256 168.785 119.622 168.527 120.084C168.268 120.539 168.136 121.047 168.13 121.607V123.925C168.13 124.626 168.259 125.233 168.517 125.744C168.782 126.254 169.154 126.648 169.635 126.925C170.115 127.202 170.684 127.341 171.343 127.341C171.78 127.341 172.18 127.279 172.543 127.156C172.906 127.033 173.217 126.848 173.475 126.602C173.734 126.356 173.931 126.054 174.066 125.697L177.704 125.938C177.52 126.812 177.141 127.575 176.569 128.227C176.002 128.874 175.27 129.378 174.371 129.741C173.479 130.098 172.448 130.277 171.278 130.277Z" fill="#1E1E1E"/>
</svg>
