<svg width="288" height="255" viewBox="0 0 288 255" fill="none" xmlns="http://www.w3.org/2000/svg">
<path d="M140.659 62.9699C142.68 61.6152 145.32 61.6152 147.341 62.9699L285.341 153.493C288.886 155.87 288.886 161.084 285.341 163.461L147.341 253.984C145.32 255.339 142.68 255.339 140.659 253.984L2.65928 163.461C-0.88642 161.084 -0.886431 155.87 2.65927 153.493L140.659 62.9699Z" fill="#14AE5C"/>
<rect y="93.8887" width="288" height="66.4247" rx="6" fill="#14AE5C"/>
<path d="M140.659 1.01607C142.68 -0.338689 145.32 -0.338691 147.341 1.01607L285.341 91.5392C288.886 93.9158 288.886 99.1303 285.341 101.507L147.341 192.03C145.32 193.385 142.68 193.385 140.659 192.03L2.65928 101.507C-0.88642 99.1303 -0.886431 93.9158 2.65927 91.5392L140.659 1.01607Z" fill="#AFF4C6"/>
<path d="M75.4559 69V50.0909H79.4537V58.4283H79.703L86.5077 50.0909H91.2996L84.2826 58.5575L91.3827 69H86.6L81.4203 61.2259L79.4537 63.6264V69H75.4559ZM96.955 60.8011V69H93.0218V54.8182H96.7704V57.3203H96.9366C97.2505 56.4955 97.7768 55.843 98.5154 55.3629C99.254 54.8767 100.15 54.6335 101.202 54.6335C102.187 54.6335 103.046 54.849 103.778 55.2798C104.511 55.7107 105.08 56.3262 105.486 57.1264C105.893 57.9205 106.096 58.8684 106.096 59.9702V69H102.162V60.6719C102.169 59.804 101.947 59.1269 101.498 58.6406C101.048 58.1482 100.43 57.902 99.6418 57.902C99.1125 57.902 98.6447 58.0159 98.2384 58.2436C97.8383 58.4714 97.5244 58.8037 97.2966 59.2408C97.075 59.6716 96.9612 60.1918 96.955 60.8011ZM115.317 69.277C113.883 69.277 112.643 68.9723 111.596 68.3629C110.556 67.7474 109.753 66.8918 109.187 65.7962C108.62 64.6944 108.337 63.4171 108.337 61.9645C108.337 60.4995 108.62 59.2192 109.187 58.1236C109.753 57.0218 110.556 56.1662 111.596 55.5568C112.643 54.9413 113.883 54.6335 115.317 54.6335C116.751 54.6335 117.989 54.9413 119.029 55.5568C120.075 56.1662 120.882 57.0218 121.448 58.1236C122.014 59.2192 122.297 60.4995 122.297 61.9645C122.297 63.4171 122.014 64.6944 121.448 65.7962C120.882 66.8918 120.075 67.7474 119.029 68.3629C117.989 68.9723 116.751 69.277 115.317 69.277ZM115.336 66.2301C115.988 66.2301 116.533 66.0455 116.97 65.6761C117.407 65.3007 117.736 64.7898 117.958 64.1435C118.186 63.4972 118.3 62.7616 118.3 61.9368C118.3 61.112 118.186 60.3764 117.958 59.7301C117.736 59.0838 117.407 58.5729 116.97 58.1974C116.533 57.822 115.988 57.6342 115.336 57.6342C114.677 57.6342 114.123 57.822 113.674 58.1974C113.231 58.5729 112.895 59.0838 112.667 59.7301C112.446 60.3764 112.335 61.112 112.335 61.9368C112.335 62.7616 112.446 63.4972 112.667 64.1435C112.895 64.7898 113.231 65.3007 113.674 65.6761C114.123 66.0455 114.677 66.2301 115.336 66.2301ZM127.011 69L123.152 54.8182H127.131L129.329 64.3466H129.458L131.748 54.8182H135.653L137.98 64.2912H138.1L140.26 54.8182H144.23L140.38 69H136.216L133.779 60.081H133.603L131.166 69H127.011ZM149.976 50.0909V69H146.043V50.0909H149.976ZM159.304 69.277C157.845 69.277 156.589 68.9815 155.537 68.3906C154.49 67.7936 153.684 66.9503 153.118 65.8608C152.551 64.7652 152.268 63.4695 152.268 61.9737C152.268 60.5149 152.551 59.2346 153.118 58.1328C153.684 57.031 154.481 56.1723 155.509 55.5568C156.543 54.9413 157.756 54.6335 159.147 54.6335C160.082 54.6335 160.953 54.7843 161.76 55.0859C162.572 55.3814 163.28 55.8277 163.883 56.4247C164.493 57.0218 164.967 57.7727 165.305 58.6776C165.644 59.5762 165.813 60.6288 165.813 61.8352V62.9155H153.838V60.478H162.111C162.111 59.9117 161.987 59.41 161.741 58.973C161.495 58.536 161.153 58.1944 160.716 57.9482C160.285 57.6958 159.784 57.5696 159.211 57.5696C158.614 57.5696 158.085 57.7081 157.623 57.9851C157.168 58.2559 156.811 58.6222 156.552 59.0838C156.294 59.5393 156.161 60.0471 156.155 60.6072V62.9247C156.155 63.6264 156.285 64.2327 156.543 64.7436C156.808 65.2545 157.18 65.6484 157.66 65.9254C158.14 66.2024 158.71 66.3409 159.368 66.3409C159.805 66.3409 160.205 66.2794 160.569 66.1562C160.932 66.0331 161.243 65.8485 161.501 65.6023C161.76 65.3561 161.957 65.0545 162.092 64.6974L165.73 64.9375C165.545 65.8116 165.167 66.5748 164.594 67.2273C164.028 67.8736 163.295 68.3783 162.397 68.7415C161.504 69.0985 160.473 69.277 159.304 69.277ZM173.32 69.2308C172.242 69.2308 171.267 68.9538 170.393 68.3999C169.525 67.8397 168.835 67.018 168.325 65.9347C167.82 64.8452 167.567 63.5095 167.567 61.9276C167.567 60.3026 167.829 58.9515 168.352 57.8743C168.875 56.791 169.571 55.9815 170.439 55.446C171.313 54.9044 172.27 54.6335 173.31 54.6335C174.104 54.6335 174.766 54.7689 175.295 55.0398C175.831 55.3045 176.262 55.6368 176.588 56.0369C176.92 56.4309 177.173 56.8187 177.345 57.2003H177.465V50.0909H181.389V69H177.511V66.7287H177.345C177.16 67.1226 176.899 67.5135 176.56 67.9013C176.228 68.2829 175.794 68.5999 175.258 68.8523C174.729 69.1046 174.083 69.2308 173.32 69.2308ZM174.566 66.1009C175.2 66.1009 175.736 65.9285 176.173 65.5838C176.616 65.233 176.954 64.7436 177.188 64.1158C177.428 63.4879 177.548 62.7524 177.548 61.9091C177.548 61.0658 177.431 60.3333 177.197 59.7116C176.964 59.09 176.625 58.6098 176.182 58.2713C175.739 57.9328 175.2 57.7635 174.566 57.7635C173.92 57.7635 173.375 57.9389 172.932 58.2898C172.489 58.6406 172.153 59.1269 171.925 59.7486C171.698 60.3703 171.584 61.0904 171.584 61.9091C171.584 62.7339 171.698 63.4633 171.925 64.0973C172.159 64.7251 172.495 65.2176 172.932 65.5746C173.375 65.9254 173.92 66.1009 174.566 66.1009ZM190.726 74.6136C189.452 74.6136 188.36 74.4382 187.449 74.0874C186.544 73.7427 185.824 73.2718 185.288 72.6747C184.753 72.0777 184.405 71.4067 184.245 70.6619L187.882 70.1726C187.993 70.4557 188.169 70.7204 188.409 70.9666C188.649 71.2128 188.966 71.4098 189.36 71.5575C189.76 71.7114 190.246 71.7884 190.819 71.7884C191.674 71.7884 192.379 71.5791 192.933 71.1605C193.493 70.7481 193.773 70.0556 193.773 69.0831V66.4886H193.607C193.435 66.8826 193.176 67.255 192.831 67.6058C192.487 67.9567 192.043 68.2429 191.502 68.4645C190.96 68.6861 190.314 68.7969 189.563 68.7969C188.498 68.7969 187.529 68.5507 186.654 68.0582C185.787 67.5597 185.094 66.7995 184.577 65.7777C184.066 64.7498 183.811 63.451 183.811 61.8814C183.811 60.2749 184.072 58.933 184.596 57.8558C185.119 56.7786 185.814 55.9723 186.682 55.4368C187.556 54.9013 188.513 54.6335 189.554 54.6335C190.348 54.6335 191.012 54.7689 191.548 55.0398C192.083 55.3045 192.514 55.6368 192.841 56.0369C193.173 56.4309 193.428 56.8187 193.607 57.2003H193.755V54.8182H197.66V69.1385C197.66 70.3449 197.365 71.3544 196.774 72.1669C196.183 72.9794 195.364 73.5888 194.318 73.995C193.278 74.4074 192.08 74.6136 190.726 74.6136ZM190.809 65.8423C191.443 65.8423 191.979 65.6854 192.416 65.3714C192.859 65.0514 193.198 64.5959 193.431 64.005C193.672 63.4079 193.792 62.6939 193.792 61.8629C193.792 61.032 193.675 60.3118 193.441 59.7024C193.207 59.0869 192.868 58.6098 192.425 58.2713C191.982 57.9328 191.443 57.7635 190.809 57.7635C190.163 57.7635 189.618 57.9389 189.175 58.2898C188.732 58.6345 188.396 59.1146 188.169 59.7301C187.941 60.3456 187.827 61.0566 187.827 61.8629C187.827 62.6816 187.941 63.3894 188.169 63.9865C188.403 64.5774 188.738 65.036 189.175 65.3622C189.618 65.6823 190.163 65.8423 190.809 65.8423ZM206.967 69.277C205.508 69.277 204.253 68.9815 203.2 68.3906C202.154 67.7936 201.347 66.9503 200.781 65.8608C200.215 64.7652 199.932 63.4695 199.932 61.9737C199.932 60.5149 200.215 59.2346 200.781 58.1328C201.347 57.031 202.145 56.1723 203.172 55.5568C204.207 54.9413 205.419 54.6335 206.81 54.6335C207.746 54.6335 208.617 54.7843 209.423 55.0859C210.236 55.3814 210.944 55.8277 211.547 56.4247C212.156 57.0218 212.63 57.7727 212.969 58.6776C213.307 59.5762 213.476 60.6288 213.476 61.8352V62.9155H201.501V60.478H209.774C209.774 59.9117 209.651 59.41 209.405 58.973C209.158 58.536 208.817 58.1944 208.38 57.9482C207.949 57.6958 207.447 57.5696 206.875 57.5696C206.278 57.5696 205.748 57.7081 205.287 57.9851C204.831 58.2559 204.474 58.6222 204.216 59.0838C203.957 59.5393 203.825 60.0471 203.819 60.6072V62.9247C203.819 63.6264 203.948 64.2327 204.207 64.7436C204.471 65.2545 204.844 65.6484 205.324 65.9254C205.804 66.2024 206.373 66.3409 207.032 66.3409C207.469 66.3409 207.869 66.2794 208.232 66.1562C208.595 66.0331 208.906 65.8485 209.165 65.6023C209.423 65.3561 209.62 65.0545 209.756 64.6974L213.393 64.9375C213.209 65.8116 212.83 66.5748 212.258 67.2273C211.691 67.8736 210.959 68.3783 210.06 68.7415C209.168 69.0985 208.137 69.277 206.967 69.277ZM67.5915 108V89.0909H80.3329V92.3871H71.5893V96.8928H79.6774V100.189H71.5893V104.704H80.3699V108H67.5915ZM87.0848 99.8011V108H83.1515V93.8182H86.9001V96.3203H87.0663C87.3802 95.4955 87.9065 94.843 88.6451 94.3629C89.3838 93.8767 90.2794 93.6335 91.3319 93.6335C92.3168 93.6335 93.1754 93.849 93.9079 94.2798C94.6404 94.7107 95.2098 95.3262 95.616 96.1264C96.0223 96.9205 96.2254 97.8684 96.2254 98.9702V108H92.2921V99.6719C92.2983 98.804 92.0767 98.1269 91.6274 97.6406C91.178 97.1482 90.5594 96.902 89.7715 96.902C89.2422 96.902 88.7744 97.0159 88.3681 97.2436C87.968 97.4714 87.6541 97.8037 87.4264 98.2408C87.2048 98.6716 87.0909 99.1918 87.0848 99.8011ZM105.429 113.614C104.154 113.614 103.062 113.438 102.151 113.087C101.246 112.743 100.526 112.272 99.9903 111.675C99.4548 111.078 99.1071 110.407 98.947 109.662L102.585 109.173C102.696 109.456 102.871 109.72 103.111 109.967C103.351 110.213 103.668 110.41 104.062 110.558C104.462 110.711 104.948 110.788 105.521 110.788C106.376 110.788 107.081 110.579 107.635 110.161C108.195 109.748 108.475 109.056 108.475 108.083V105.489H108.309C108.137 105.883 107.878 106.255 107.534 106.606C107.189 106.957 106.746 107.243 106.204 107.464C105.662 107.686 105.016 107.797 104.265 107.797C103.2 107.797 102.231 107.551 101.357 107.058C100.489 106.56 99.7965 105.799 99.2794 104.778C98.7685 103.75 98.5131 102.451 98.5131 100.881C98.5131 99.2749 98.7747 97.933 99.2979 96.8558C99.8211 95.7786 100.517 94.9723 101.385 94.4368C102.259 93.9013 103.216 93.6335 104.256 93.6335C105.05 93.6335 105.715 93.7689 106.25 94.0398C106.786 94.3045 107.217 94.6368 107.543 95.0369C107.875 95.4309 108.131 95.8187 108.309 96.2003H108.457V93.8182H112.363V108.138C112.363 109.345 112.067 110.354 111.476 111.167C110.885 111.979 110.067 112.589 109.02 112.995C107.98 113.407 106.783 113.614 105.429 113.614ZM105.512 104.842C106.146 104.842 106.681 104.685 107.118 104.371C107.561 104.051 107.9 103.596 108.134 103.005C108.374 102.408 108.494 101.694 108.494 100.863C108.494 100.032 108.377 99.3118 108.143 98.7024C107.909 98.0869 107.571 97.6098 107.127 97.2713C106.684 96.9328 106.146 96.7635 105.512 96.7635C104.865 96.7635 104.321 96.9389 103.877 97.2898C103.434 97.6345 103.099 98.1146 102.871 98.7301C102.643 99.3456 102.529 100.057 102.529 100.863C102.529 101.682 102.643 102.389 102.871 102.987C103.105 103.577 103.44 104.036 103.877 104.362C104.321 104.682 104.865 104.842 105.512 104.842ZM115.206 108V93.8182H119.14V108H115.206ZM117.182 91.9901C116.598 91.9901 116.096 91.7962 115.677 91.4084C115.265 91.0144 115.059 90.5436 115.059 89.9957C115.059 89.4541 115.265 88.9893 115.677 88.6016C116.096 88.2076 116.598 88.0107 117.182 88.0107C117.767 88.0107 118.266 88.2076 118.678 88.6016C119.097 88.9893 119.306 89.4541 119.306 89.9957C119.306 90.5436 119.097 91.0144 118.678 91.4084C118.266 91.7962 117.767 91.9901 117.182 91.9901ZM125.938 99.8011V108H122.004V93.8182H125.753V96.3203H125.919C126.233 95.4955 126.759 94.843 127.498 94.3629C128.237 93.8767 129.132 93.6335 130.185 93.6335C131.17 93.6335 132.028 93.849 132.761 94.2798C133.493 94.7107 134.063 95.3262 134.469 96.1264C134.875 96.9205 135.078 97.8684 135.078 98.9702V108H131.145V99.6719C131.151 98.804 130.93 98.1269 130.48 97.6406C130.031 97.1482 129.412 96.902 128.624 96.902C128.095 96.902 127.627 97.0159 127.221 97.2436C126.821 97.4714 126.507 97.8037 126.279 98.2408C126.058 98.6716 125.944 99.1918 125.938 99.8011ZM144.355 108.277C142.897 108.277 141.641 107.982 140.588 107.391C139.542 106.794 138.736 105.95 138.169 104.861C137.603 103.765 137.32 102.469 137.32 100.974C137.32 99.5149 137.603 98.2346 138.169 97.1328C138.736 96.031 139.533 95.1723 140.561 94.5568C141.595 93.9413 142.807 93.6335 144.198 93.6335C145.134 93.6335 146.005 93.7843 146.811 94.0859C147.624 94.3814 148.332 94.8277 148.935 95.4247C149.544 96.0218 150.018 96.7727 150.357 97.6776C150.695 98.5762 150.865 99.6288 150.865 100.835V101.915H138.889V99.478H147.162C147.162 98.9117 147.039 98.41 146.793 97.973C146.547 97.536 146.205 97.1944 145.768 96.9482C145.337 96.6958 144.835 96.5696 144.263 96.5696C143.666 96.5696 143.137 96.7081 142.675 96.9851C142.219 97.2559 141.862 97.6222 141.604 98.0838C141.345 98.5393 141.213 99.0471 141.207 99.6072V101.925C141.207 102.626 141.336 103.233 141.595 103.744C141.859 104.254 142.232 104.648 142.712 104.925C143.192 105.202 143.761 105.341 144.42 105.341C144.857 105.341 145.257 105.279 145.62 105.156C145.983 105.033 146.294 104.848 146.553 104.602C146.811 104.356 147.008 104.054 147.144 103.697L150.782 103.938C150.597 104.812 150.218 105.575 149.646 106.227C149.08 106.874 148.347 107.378 147.448 107.741C146.556 108.098 145.525 108.277 144.355 108.277ZM159.608 108.277C158.15 108.277 156.894 107.982 155.841 107.391C154.795 106.794 153.989 105.95 153.422 104.861C152.856 103.765 152.573 102.469 152.573 100.974C152.573 99.5149 152.856 98.2346 153.422 97.1328C153.989 96.031 154.786 95.1723 155.814 94.5568C156.848 93.9413 158.06 93.6335 159.451 93.6335C160.387 93.6335 161.258 93.7843 162.064 94.0859C162.877 94.3814 163.585 94.8277 164.188 95.4247C164.797 96.0218 165.271 96.7727 165.61 97.6776C165.948 98.5762 166.118 99.6288 166.118 100.835V101.915H154.143V99.478H162.415C162.415 98.9117 162.292 98.41 162.046 97.973C161.8 97.536 161.458 97.1944 161.021 96.9482C160.59 96.6958 160.089 96.5696 159.516 96.5696C158.919 96.5696 158.39 96.7081 157.928 96.9851C157.473 97.2559 157.116 97.6222 156.857 98.0838C156.598 98.5393 156.466 99.0471 156.46 99.6072V101.925C156.46 102.626 156.589 103.233 156.848 103.744C157.112 104.254 157.485 104.648 157.965 104.925C158.445 105.202 159.014 105.341 159.673 105.341C160.11 105.341 160.51 105.279 160.873 105.156C161.236 105.033 161.547 104.848 161.806 104.602C162.064 104.356 162.261 104.054 162.397 103.697L166.035 103.938C165.85 104.812 165.471 105.575 164.899 106.227C164.333 106.874 163.6 107.378 162.701 107.741C161.809 108.098 160.778 108.277 159.608 108.277ZM168.398 108V93.8182H172.212V96.2926H172.359C172.618 95.4124 173.052 94.7476 173.661 94.2983C174.271 93.8428 174.972 93.6151 175.766 93.6151C175.963 93.6151 176.176 93.6274 176.403 93.652C176.631 93.6766 176.831 93.7105 177.004 93.7536V97.2436C176.819 97.1882 176.563 97.139 176.237 97.0959C175.911 97.0528 175.612 97.0312 175.342 97.0312C174.763 97.0312 174.246 97.1574 173.79 97.4098C173.341 97.656 172.984 98.0007 172.719 98.4439C172.461 98.8871 172.332 99.398 172.332 99.9766V108H168.398ZM178.751 108V93.8182H182.684V108H178.751ZM180.727 91.9901C180.142 91.9901 179.641 91.7962 179.222 91.4084C178.81 91.0144 178.603 90.5436 178.603 89.9957C178.603 89.4541 178.81 88.9893 179.222 88.6016C179.641 88.2076 180.142 88.0107 180.727 88.0107C181.312 88.0107 181.81 88.2076 182.223 88.6016C182.641 88.9893 182.851 89.4541 182.851 89.9957C182.851 90.5436 182.641 91.0144 182.223 91.4084C181.81 91.7962 181.312 91.9901 180.727 91.9901ZM189.482 99.8011V108H185.549V93.8182H189.298V96.3203H189.464C189.778 95.4955 190.304 94.843 191.043 94.3629C191.781 93.8767 192.677 93.6335 193.729 93.6335C194.714 93.6335 195.573 93.849 196.305 94.2798C197.038 94.7107 197.607 95.3262 198.014 96.1264C198.42 96.9205 198.623 97.8684 198.623 98.9702V108H194.69V99.6719C194.696 98.804 194.474 98.1269 194.025 97.6406C193.576 97.1482 192.957 96.902 192.169 96.902C191.64 96.902 191.172 97.0159 190.766 97.2436C190.366 97.4714 190.052 97.8037 189.824 98.2408C189.602 98.6716 189.488 99.1918 189.482 99.8011ZM207.826 113.614C206.552 113.614 205.459 113.438 204.548 113.087C203.644 112.743 202.923 112.272 202.388 111.675C201.852 111.078 201.505 110.407 201.345 109.662L204.982 109.173C205.093 109.456 205.269 109.72 205.509 109.967C205.749 110.213 206.066 110.41 206.46 110.558C206.86 110.711 207.346 110.788 207.918 110.788C208.774 110.788 209.479 110.579 210.033 110.161C210.593 109.748 210.873 109.056 210.873 108.083V105.489H210.707C210.534 105.883 210.276 106.255 209.931 106.606C209.587 106.957 209.143 107.243 208.602 107.464C208.06 107.686 207.414 107.797 206.663 107.797C205.598 107.797 204.628 107.551 203.754 107.058C202.886 106.56 202.194 105.799 201.677 104.778C201.166 103.75 200.911 102.451 200.911 100.881C200.911 99.2749 201.172 97.933 201.695 96.8558C202.219 95.7786 202.914 94.9723 203.782 94.4368C204.656 93.9013 205.613 93.6335 206.654 93.6335C207.448 93.6335 208.112 93.7689 208.648 94.0398C209.183 94.3045 209.614 94.6368 209.94 95.0369C210.273 95.4309 210.528 95.8187 210.707 96.2003H210.855V93.8182H214.76V108.138C214.76 109.345 214.465 110.354 213.874 111.167C213.283 111.979 212.464 112.589 211.418 112.995C210.377 113.407 209.18 113.614 207.826 113.614ZM207.909 104.842C208.543 104.842 209.079 104.685 209.516 104.371C209.959 104.051 210.297 103.596 210.531 103.005C210.771 102.408 210.891 101.694 210.891 100.863C210.891 100.032 210.774 99.3118 210.541 98.7024C210.307 98.0869 209.968 97.6098 209.525 97.2713C209.082 96.9328 208.543 96.7635 207.909 96.7635C207.263 96.7635 206.718 96.9389 206.275 97.2898C205.832 97.6345 205.496 98.1146 205.269 98.7301C205.041 99.3456 204.927 100.057 204.927 100.863C204.927 101.682 205.041 102.389 205.269 102.987C205.502 103.577 205.838 104.036 206.275 104.362C206.718 104.682 207.263 104.842 207.909 104.842ZM82.2954 131.387V128.091H97.8252V131.387H92.0362V147H88.0845V131.387H82.2954ZM104.429 147.277C102.971 147.277 101.715 146.982 100.662 146.391C99.6159 145.794 98.8095 144.95 98.2432 143.861C97.6769 142.765 97.3938 141.469 97.3938 139.974C97.3938 138.515 97.6769 137.235 98.2432 136.133C98.8095 135.031 99.6066 134.172 100.635 133.557C101.669 132.941 102.881 132.634 104.272 132.634C105.208 132.634 106.079 132.784 106.885 133.086C107.698 133.381 108.406 133.828 109.009 134.425C109.618 135.022 110.092 135.773 110.431 136.678C110.769 137.576 110.939 138.629 110.939 139.835V140.915H98.9634V138.478H107.236C107.236 137.912 107.113 137.41 106.867 136.973C106.621 136.536 106.279 136.194 105.842 135.948C105.411 135.696 104.909 135.57 104.337 135.57C103.74 135.57 103.211 135.708 102.749 135.985C102.293 136.256 101.936 136.622 101.678 137.084C101.419 137.539 101.287 138.047 101.281 138.607V140.925C101.281 141.626 101.41 142.233 101.669 142.744C101.933 143.254 102.306 143.648 102.786 143.925C103.266 144.202 103.835 144.341 104.494 144.341C104.931 144.341 105.331 144.279 105.694 144.156C106.057 144.033 106.368 143.848 106.627 143.602C106.885 143.356 107.082 143.054 107.218 142.697L110.855 142.938C110.671 143.812 110.292 144.575 109.72 145.227C109.154 145.874 108.421 146.378 107.522 146.741C106.63 147.098 105.599 147.277 104.429 147.277ZM113.219 147V132.818H116.968V135.32H117.134C117.43 134.489 117.922 133.834 118.611 133.354C119.301 132.874 120.126 132.634 121.086 132.634C122.058 132.634 122.886 132.877 123.569 133.363C124.253 133.843 124.708 134.496 124.936 135.32H125.084C125.373 134.508 125.896 133.858 126.653 133.372C127.417 132.88 128.318 132.634 129.359 132.634C130.682 132.634 131.756 133.055 132.581 133.898C133.412 134.736 133.827 135.924 133.827 137.462V147H129.903V138.238C129.903 137.45 129.694 136.859 129.275 136.465C128.857 136.071 128.334 135.874 127.706 135.874C126.992 135.874 126.435 136.102 126.035 136.558C125.635 137.007 125.435 137.601 125.435 138.339V147H121.621V138.155C121.621 137.459 121.421 136.905 121.021 136.493C120.627 136.08 120.107 135.874 119.461 135.874C119.024 135.874 118.63 135.985 118.279 136.207C117.934 136.422 117.66 136.727 117.457 137.121C117.254 137.509 117.153 137.964 117.153 138.487V147H113.219ZM136.648 152.318V132.818H140.526V135.2H140.701C140.874 134.819 141.123 134.431 141.449 134.037C141.782 133.637 142.213 133.304 142.742 133.04C143.277 132.769 143.942 132.634 144.736 132.634C145.77 132.634 146.724 132.904 147.598 133.446C148.472 133.982 149.171 134.791 149.694 135.874C150.218 136.951 150.479 138.303 150.479 139.928C150.479 141.509 150.224 142.845 149.713 143.935C149.208 145.018 148.519 145.84 147.645 146.4C146.777 146.954 145.804 147.231 144.727 147.231C143.964 147.231 143.314 147.105 142.779 146.852C142.249 146.6 141.816 146.283 141.477 145.901C141.138 145.513 140.88 145.123 140.701 144.729H140.581V152.318H136.648ZM140.498 139.909C140.498 140.752 140.615 141.488 140.849 142.116C141.083 142.744 141.422 143.233 141.865 143.584C142.308 143.929 142.847 144.101 143.481 144.101C144.121 144.101 144.662 143.925 145.106 143.575C145.549 143.218 145.884 142.725 146.112 142.097C146.346 141.463 146.463 140.734 146.463 139.909C146.463 139.09 146.349 138.37 146.121 137.749C145.893 137.127 145.558 136.641 145.115 136.29C144.672 135.939 144.127 135.763 143.481 135.763C142.84 135.763 142.299 135.933 141.856 136.271C141.419 136.61 141.083 137.09 140.849 137.712C140.615 138.333 140.498 139.066 140.498 139.909ZM156.749 128.091V147H152.815V128.091H156.749ZM163.657 147.268C162.752 147.268 161.946 147.111 161.238 146.797C160.53 146.477 159.97 146.006 159.558 145.384C159.152 144.756 158.948 143.975 158.948 143.039C158.948 142.251 159.093 141.589 159.382 141.054C159.672 140.518 160.066 140.088 160.564 139.761C161.063 139.435 161.629 139.189 162.263 139.023C162.903 138.857 163.574 138.74 164.276 138.672C165.101 138.586 165.765 138.506 166.27 138.432C166.775 138.352 167.141 138.235 167.369 138.081C167.597 137.927 167.711 137.699 167.711 137.398V137.342C167.711 136.758 167.526 136.305 167.157 135.985C166.793 135.665 166.276 135.505 165.605 135.505C164.898 135.505 164.334 135.662 163.916 135.976C163.497 136.284 163.22 136.671 163.085 137.139L159.447 136.844C159.632 135.982 159.995 135.237 160.537 134.609C161.078 133.975 161.777 133.489 162.632 133.151C163.494 132.806 164.491 132.634 165.624 132.634C166.412 132.634 167.166 132.726 167.886 132.911C168.612 133.095 169.256 133.381 169.816 133.769C170.382 134.157 170.828 134.656 171.154 135.265C171.481 135.868 171.644 136.591 171.644 137.435V147H167.914V145.033H167.803C167.575 145.477 167.27 145.867 166.889 146.206C166.507 146.538 166.049 146.8 165.513 146.991C164.978 147.175 164.359 147.268 163.657 147.268ZM164.784 144.553C165.362 144.553 165.873 144.439 166.316 144.212C166.76 143.978 167.107 143.664 167.36 143.27C167.612 142.876 167.738 142.43 167.738 141.931V140.426C167.615 140.506 167.446 140.58 167.23 140.648C167.021 140.709 166.784 140.768 166.52 140.823C166.255 140.872 165.99 140.919 165.725 140.962C165.461 140.999 165.221 141.032 165.005 141.063C164.544 141.131 164.14 141.239 163.796 141.386C163.451 141.534 163.183 141.734 162.993 141.987C162.802 142.233 162.706 142.54 162.706 142.91C162.706 143.445 162.9 143.855 163.288 144.138C163.682 144.415 164.18 144.553 164.784 144.553ZM181.953 132.818V135.773H173.412V132.818H181.953ZM175.351 129.42H179.284V142.642C179.284 143.005 179.34 143.288 179.45 143.491C179.561 143.688 179.715 143.827 179.912 143.907C180.115 143.987 180.349 144.027 180.614 144.027C180.798 144.027 180.983 144.012 181.168 143.981C181.352 143.944 181.494 143.916 181.593 143.898L182.211 146.825C182.014 146.886 181.737 146.957 181.38 147.037C181.023 147.123 180.589 147.175 180.078 147.194C179.13 147.231 178.299 147.105 177.585 146.815C176.878 146.526 176.327 146.077 175.933 145.467C175.539 144.858 175.345 144.089 175.351 143.159V129.42ZM190.539 147.277C189.081 147.277 187.825 146.982 186.772 146.391C185.726 145.794 184.92 144.95 184.353 143.861C183.787 142.765 183.504 141.469 183.504 139.974C183.504 138.515 183.787 137.235 184.353 136.133C184.92 135.031 185.717 134.172 186.745 133.557C187.779 132.941 188.991 132.634 190.383 132.634C191.318 132.634 192.189 132.784 192.995 133.086C193.808 133.381 194.516 133.828 195.119 134.425C195.728 135.022 196.202 135.773 196.541 136.678C196.879 137.576 197.049 138.629 197.049 139.835V140.915H185.074V138.478H193.346C193.346 137.912 193.223 137.41 192.977 136.973C192.731 136.536 192.389 136.194 191.952 135.948C191.521 135.696 191.02 135.57 190.447 135.57C189.85 135.57 189.321 135.708 188.859 135.985C188.404 136.256 188.047 136.622 187.788 137.084C187.53 137.539 187.397 138.047 187.391 138.607V140.925C187.391 141.626 187.52 142.233 187.779 142.744C188.044 143.254 188.416 143.648 188.896 143.925C189.376 144.202 189.945 144.341 190.604 144.341C191.041 144.341 191.441 144.279 191.804 144.156C192.168 144.033 192.478 143.848 192.737 143.602C192.995 143.356 193.192 143.054 193.328 142.697L196.966 142.938C196.781 143.812 196.402 144.575 195.83 145.227C195.264 145.874 194.531 146.378 193.633 146.741C192.74 147.098 191.709 147.277 190.539 147.277ZM211.129 136.862L207.528 137.084C207.467 136.776 207.334 136.499 207.131 136.253C206.928 136 206.66 135.8 206.328 135.653C206.002 135.499 205.611 135.422 205.155 135.422C204.546 135.422 204.032 135.551 203.614 135.81C203.195 136.062 202.986 136.401 202.986 136.825C202.986 137.164 203.121 137.45 203.392 137.684C203.663 137.918 204.128 138.106 204.786 138.247L207.353 138.764C208.732 139.047 209.76 139.503 210.437 140.131C211.114 140.759 211.452 141.583 211.452 142.605C211.452 143.535 211.178 144.35 210.631 145.052C210.089 145.754 209.344 146.301 208.396 146.695C207.454 147.083 206.368 147.277 205.137 147.277C203.26 147.277 201.764 146.886 200.65 146.104C199.542 145.317 198.892 144.246 198.702 142.891L202.57 142.688C202.687 143.261 202.97 143.698 203.42 143.999C203.869 144.295 204.445 144.442 205.146 144.442C205.836 144.442 206.39 144.31 206.808 144.045C207.233 143.775 207.448 143.427 207.454 143.002C207.448 142.645 207.298 142.353 207.002 142.125C206.707 141.891 206.251 141.713 205.636 141.589L203.18 141.1C201.795 140.823 200.764 140.343 200.087 139.66C199.416 138.977 199.08 138.106 199.08 137.047C199.08 136.136 199.326 135.351 199.819 134.692C200.317 134.034 201.016 133.526 201.915 133.169C202.82 132.812 203.878 132.634 205.091 132.634C206.882 132.634 208.292 133.012 209.32 133.769C210.354 134.526 210.957 135.557 211.129 136.862Z" fill="#1E1E1E"/>
</svg>
