<svg width="288" height="255" viewBox="0 0 288 255" fill="none" xmlns="http://www.w3.org/2000/svg">
<path d="M140.659 62.9699C142.68 61.6152 145.32 61.6152 147.341 62.9699L285.341 153.493C288.886 155.87 288.886 161.084 285.341 163.461L147.341 253.984C145.32 255.339 142.68 255.339 140.659 253.984L2.65928 163.461C-0.88642 161.084 -0.886431 155.87 2.65927 153.493L140.659 62.9699Z" fill="#FFA629"/>
<rect y="93.8887" width="288" height="66.4247" rx="6" fill="#FFA629"/>
<path d="M140.659 1.01607C142.68 -0.338689 145.32 -0.338691 147.341 1.01607L285.341 91.5391C288.886 93.9158 288.886 99.1303 285.341 101.507L147.341 192.03C145.32 193.385 142.68 193.385 140.659 192.03L2.65928 101.507C-0.88642 99.1303 -0.886431 93.9158 2.65927 91.5391L140.659 1.01607Z" fill="#FCD19C"/>
<path d="M65.1033 72.0909H70.0337L75.2411 84.7955H75.4627L80.6701 72.0909H85.6005V91H81.7226V78.6925H81.5657L76.6722 90.9077H74.0316L69.1381 78.6463H68.9812V91H65.1033V72.0909ZM92.5785 91.2678C91.6737 91.2678 90.8673 91.1108 90.1595 90.7969C89.4516 90.4768 88.8915 90.0059 88.4791 89.3842C88.0728 88.7564 87.8697 87.9747 87.8697 87.0391C87.8697 86.2512 88.0143 85.5895 88.3036 85.054C88.5929 84.5185 88.9869 84.0876 89.4855 83.7614C89.984 83.4351 90.5503 83.1889 91.1843 83.0227C91.8245 82.8565 92.4954 82.7396 93.1971 82.6719C94.0219 82.5857 94.6867 82.5057 95.1914 82.4318C95.6962 82.3518 96.0624 82.2348 96.2902 82.081C96.5179 81.9271 96.6318 81.6993 96.6318 81.3977V81.3423C96.6318 80.7576 96.4471 80.3052 96.0778 79.9851C95.7146 79.665 95.1976 79.505 94.5267 79.505C93.8188 79.505 93.2556 79.6619 92.837 79.9759C92.4185 80.2836 92.1415 80.6714 92.0061 81.1392L88.3683 80.8438C88.5529 79.982 88.9161 79.2372 89.4578 78.6094C89.9994 77.9754 90.6981 77.4891 91.5536 77.1506C92.4154 76.8059 93.4126 76.6335 94.5451 76.6335C95.333 76.6335 96.087 76.7259 96.8072 76.9105C97.5335 77.0952 98.1768 77.3814 98.7369 77.7692C99.3032 78.157 99.7494 78.6555 100.076 79.2649C100.402 79.8681 100.565 80.5914 100.565 81.4347V91H96.8349V89.0334H96.7241C96.4964 89.4766 96.1917 89.8674 95.81 90.206C95.4284 90.5384 94.9698 90.8 94.4343 90.9908C93.8988 91.1754 93.2802 91.2678 92.5785 91.2678ZM93.7049 88.5533C94.2835 88.5533 94.7944 88.4394 95.2376 88.2116C95.6808 87.9777 96.0286 87.6638 96.2809 87.2699C96.5333 86.8759 96.6595 86.4297 96.6595 85.9311V84.4261C96.5364 84.5062 96.3671 84.58 96.1517 84.6477C95.9424 84.7093 95.7054 84.7678 95.4407 84.8232C95.176 84.8724 94.9114 84.9186 94.6467 84.9616C94.382 84.9986 94.142 85.0324 93.9265 85.0632C93.4649 85.1309 93.0617 85.2386 92.717 85.3864C92.3723 85.5341 92.1045 85.7341 91.9137 85.9865C91.7229 86.2327 91.6275 86.5405 91.6275 86.9098C91.6275 87.4453 91.8214 87.8546 92.2092 88.1378C92.6031 88.4148 93.1017 88.5533 93.7049 88.5533ZM107.264 82.8011V91H103.331V76.8182H107.079V79.3203H107.245C107.559 78.4955 108.085 77.843 108.824 77.3629C109.563 76.8767 110.458 76.6335 111.511 76.6335C112.496 76.6335 113.354 76.849 114.087 77.2798C114.819 77.7107 115.389 78.3262 115.795 79.1264C116.201 79.9205 116.404 80.8684 116.404 81.9702V91H112.471V82.6719C112.477 81.804 112.256 81.1269 111.806 80.6406C111.357 80.1482 110.738 79.902 109.951 79.902C109.421 79.902 108.953 80.0159 108.547 80.2436C108.147 80.4714 107.833 80.8037 107.605 81.2408C107.384 81.6716 107.27 82.1918 107.264 82.8011ZM123.262 91.2678C122.358 91.2678 121.551 91.1108 120.843 90.7969C120.135 90.4768 119.575 90.0059 119.163 89.3842C118.757 88.7564 118.554 87.9747 118.554 87.0391C118.554 86.2512 118.698 85.5895 118.988 85.054C119.277 84.5185 119.671 84.0876 120.169 83.7614C120.668 83.4351 121.234 83.1889 121.868 83.0227C122.508 82.8565 123.179 82.7396 123.881 82.6719C124.706 82.5857 125.371 82.5057 125.875 82.4318C126.38 82.3518 126.746 82.2348 126.974 82.081C127.202 81.9271 127.316 81.6993 127.316 81.3977V81.3423C127.316 80.7576 127.131 80.3052 126.762 79.9851C126.398 79.665 125.881 79.505 125.211 79.505C124.503 79.505 123.939 79.6619 123.521 79.9759C123.102 80.2836 122.825 80.6714 122.69 81.1392L119.052 80.8438C119.237 79.982 119.6 79.2372 120.142 78.6094C120.683 77.9754 121.382 77.4891 122.238 77.1506C123.099 76.8059 124.096 76.6335 125.229 76.6335C126.017 76.6335 126.771 76.7259 127.491 76.9105C128.217 77.0952 128.861 77.3814 129.421 77.7692C129.987 78.157 130.433 78.6555 130.76 79.2649C131.086 79.8681 131.249 80.5914 131.249 81.4347V91H127.519V89.0334H127.408C127.18 89.4766 126.876 89.8674 126.494 90.206C126.112 90.5384 125.654 90.8 125.118 90.9908C124.583 91.1754 123.964 91.2678 123.262 91.2678ZM124.389 88.5533C124.967 88.5533 125.478 88.4394 125.921 88.2116C126.365 87.9777 126.712 87.6638 126.965 87.2699C127.217 86.8759 127.343 86.4297 127.343 85.9311V84.4261C127.22 84.5062 127.051 84.58 126.836 84.6477C126.626 84.7093 126.389 84.7678 126.125 84.8232C125.86 84.8724 125.595 84.9186 125.331 84.9616C125.066 84.9986 124.826 85.0324 124.61 85.0632C124.149 85.1309 123.746 85.2386 123.401 85.3864C123.056 85.5341 122.788 85.7341 122.598 85.9865C122.407 86.2327 122.311 86.5405 122.311 86.9098C122.311 87.4453 122.505 87.8546 122.893 88.1378C123.287 88.4148 123.786 88.5533 124.389 88.5533ZM140.404 96.6136C139.129 96.6136 138.037 96.4382 137.126 96.0874C136.221 95.7427 135.501 95.2718 134.965 94.6747C134.43 94.0777 134.082 93.4067 133.922 92.6619L137.56 92.1726C137.671 92.4557 137.846 92.7204 138.086 92.9666C138.326 93.2128 138.643 93.4098 139.037 93.5575C139.437 93.7114 139.923 93.7884 140.496 93.7884C141.351 93.7884 142.056 93.5791 142.61 93.1605C143.17 92.7481 143.45 92.0556 143.45 91.0831V88.4886H143.284C143.112 88.8826 142.853 89.255 142.509 89.6058C142.164 89.9567 141.721 90.2429 141.179 90.4645C140.637 90.6861 139.991 90.7969 139.24 90.7969C138.175 90.7969 137.206 90.5507 136.332 90.0582C135.464 89.5597 134.771 88.7995 134.254 87.7777C133.744 86.7498 133.488 85.451 133.488 83.8814C133.488 82.2749 133.75 80.933 134.273 79.8558C134.796 78.7786 135.492 77.9723 136.36 77.4368C137.234 76.9013 138.191 76.6335 139.231 76.6335C140.025 76.6335 140.69 76.7689 141.225 77.0398C141.761 77.3045 142.192 77.6368 142.518 78.0369C142.85 78.4309 143.106 78.8187 143.284 79.2003H143.432V76.8182H147.338V91.1385C147.338 92.3449 147.042 93.3544 146.451 94.1669C145.86 94.9794 145.042 95.5888 143.995 95.995C142.955 96.4074 141.758 96.6136 140.404 96.6136ZM140.487 87.8423C141.121 87.8423 141.656 87.6854 142.093 87.3714C142.536 87.0514 142.875 86.5959 143.109 86.005C143.349 85.4079 143.469 84.6939 143.469 83.8629C143.469 83.032 143.352 82.3118 143.118 81.7024C142.884 81.0869 142.546 80.6098 142.102 80.2713C141.659 79.9328 141.121 79.7635 140.487 79.7635C139.84 79.7635 139.296 79.9389 138.852 80.2898C138.409 80.6345 138.074 81.1146 137.846 81.7301C137.618 82.3456 137.504 83.0566 137.504 83.8629C137.504 84.6816 137.618 85.3894 137.846 85.9865C138.08 86.5774 138.415 87.036 138.852 87.3622C139.296 87.6823 139.84 87.8423 140.487 87.8423ZM156.645 91.277C155.186 91.277 153.93 90.9815 152.878 90.3906C151.831 89.7936 151.025 88.9503 150.458 87.8608C149.892 86.7652 149.609 85.4695 149.609 83.9737C149.609 82.5149 149.892 81.2346 150.458 80.1328C151.025 79.031 151.822 78.1723 152.85 77.5568C153.884 76.9413 155.096 76.6335 156.488 76.6335C157.423 76.6335 158.294 76.7843 159.101 77.0859C159.913 77.3814 160.621 77.8277 161.224 78.4247C161.833 79.0218 162.307 79.7727 162.646 80.6776C162.985 81.5762 163.154 82.6288 163.154 83.8352V84.9155H151.179V82.478H159.451C159.451 81.9117 159.328 81.41 159.082 80.973C158.836 80.536 158.494 80.1944 158.057 79.9482C157.626 79.6958 157.125 79.5696 156.552 79.5696C155.955 79.5696 155.426 79.7081 154.964 79.9851C154.509 80.2559 154.152 80.6222 153.893 81.0838C153.635 81.5393 153.502 82.0471 153.496 82.6072V84.9247C153.496 85.6264 153.625 86.2327 153.884 86.7436C154.149 87.2545 154.521 87.6484 155.001 87.9254C155.481 88.2024 156.051 88.3409 156.709 88.3409C157.146 88.3409 157.546 88.2794 157.909 88.1562C158.273 88.0331 158.583 87.8485 158.842 87.6023C159.101 87.3561 159.297 87.0545 159.433 86.6974L163.071 86.9375C162.886 87.8116 162.507 88.5748 161.935 89.2273C161.369 89.8736 160.636 90.3783 159.738 90.7415C158.845 91.0985 157.814 91.277 156.645 91.277ZM165.435 91V76.8182H169.183V79.3203H169.349C169.645 78.4893 170.137 77.8338 170.827 77.3537C171.516 76.8736 172.341 76.6335 173.301 76.6335C174.274 76.6335 175.101 76.8767 175.785 77.3629C176.468 77.843 176.923 78.4955 177.151 79.3203H177.299C177.588 78.5078 178.111 77.8584 178.868 77.3722C179.632 76.8797 180.534 76.6335 181.574 76.6335C182.897 76.6335 183.971 77.0552 184.796 77.8984C185.627 78.7356 186.043 79.9235 186.043 81.4624V91H182.118V82.2379C182.118 81.45 181.909 80.8591 181.491 80.4652C181.072 80.0713 180.549 79.8743 179.921 79.8743C179.207 79.8743 178.65 80.102 178.25 80.5575C177.85 81.0069 177.65 81.6009 177.65 82.3395V91H173.837V82.1548C173.837 81.4593 173.636 80.9053 173.236 80.4929C172.842 80.0805 172.322 79.8743 171.676 79.8743C171.239 79.8743 170.845 79.9851 170.494 80.2067C170.15 80.4221 169.876 80.7268 169.672 81.1207C169.469 81.5085 169.368 81.964 169.368 82.4872V91H165.435ZM195.326 91.277C193.868 91.277 192.612 90.9815 191.559 90.3906C190.513 89.7936 189.707 88.9503 189.14 87.8608C188.574 86.7652 188.291 85.4695 188.291 83.9737C188.291 82.5149 188.574 81.2346 189.14 80.1328C189.707 79.031 190.504 78.1723 191.532 77.5568C192.566 76.9413 193.778 76.6335 195.17 76.6335C196.105 76.6335 196.976 76.7843 197.782 77.0859C198.595 77.3814 199.303 77.8277 199.906 78.4247C200.515 79.0218 200.989 79.7727 201.328 80.6776C201.666 81.5762 201.836 82.6288 201.836 83.8352V84.9155H189.861V82.478H198.133C198.133 81.9117 198.01 81.41 197.764 80.973C197.518 80.536 197.176 80.1944 196.739 79.9482C196.308 79.6958 195.807 79.5696 195.234 79.5696C194.637 79.5696 194.108 79.7081 193.646 79.9851C193.191 80.2559 192.834 80.6222 192.575 81.0838C192.317 81.5393 192.184 82.0471 192.178 82.6072V84.9247C192.178 85.6264 192.307 86.2327 192.566 86.7436C192.83 87.2545 193.203 87.6484 193.683 87.9254C194.163 88.2024 194.732 88.3409 195.391 88.3409C195.828 88.3409 196.228 88.2794 196.591 88.1562C196.955 88.0331 197.265 87.8485 197.524 87.6023C197.782 87.3561 197.979 87.0545 198.115 86.6974L201.753 86.9375C201.568 87.8116 201.189 88.5748 200.617 89.2273C200.051 89.8736 199.318 90.3783 198.42 90.7415C197.527 91.0985 196.496 91.277 195.326 91.277ZM208.05 82.8011V91H204.116V76.8182H207.865V79.3203H208.031C208.345 78.4955 208.871 77.843 209.61 77.3629C210.349 76.8767 211.244 76.6335 212.297 76.6335C213.282 76.6335 214.14 76.849 214.873 77.2798C215.605 77.7107 216.175 78.3262 216.581 79.1264C216.987 79.9205 217.19 80.8684 217.19 81.9702V91H213.257V82.6719C213.263 81.804 213.042 81.1269 212.592 80.6406C212.143 80.1482 211.524 79.902 210.736 79.902C210.207 79.902 209.739 80.0159 209.333 80.2436C208.933 80.4714 208.619 80.8037 208.391 81.2408C208.17 81.6716 208.056 82.1918 208.05 82.8011ZM227.548 76.8182V79.7727H219.007V76.8182H227.548ZM220.946 73.4205H224.879V86.642C224.879 87.0052 224.935 87.2884 225.045 87.4915C225.156 87.6884 225.31 87.8269 225.507 87.907C225.71 87.987 225.944 88.027 226.209 88.027C226.393 88.027 226.578 88.0116 226.763 87.9808C226.947 87.9439 227.089 87.9162 227.188 87.8977L227.806 90.8246C227.609 90.8861 227.332 90.9569 226.975 91.0369C226.618 91.1231 226.184 91.1754 225.673 91.1939C224.725 91.2308 223.894 91.1046 223.18 90.8153C222.473 90.526 221.922 90.0767 221.528 89.4673C221.134 88.858 220.94 88.0885 220.946 87.1591V73.4205ZM112.859 130V111.091H120.319C121.753 111.091 122.975 111.365 123.985 111.913C124.994 112.454 125.764 113.208 126.293 114.175C126.828 115.135 127.096 116.243 127.096 117.499C127.096 118.754 126.825 119.862 126.284 120.822C125.742 121.783 124.957 122.531 123.929 123.066C122.908 123.602 121.67 123.869 120.218 123.869H115.463V120.665H119.571C120.341 120.665 120.975 120.533 121.473 120.268C121.978 119.998 122.354 119.625 122.6 119.151C122.852 118.671 122.978 118.12 122.978 117.499C122.978 116.871 122.852 116.323 122.6 115.855C122.354 115.381 121.978 115.015 121.473 114.756C120.969 114.492 120.328 114.359 119.553 114.359H116.857V130H112.859ZM133.266 111.091V130H129.333V111.091H133.266ZM140.175 130.268C139.27 130.268 138.464 130.111 137.756 129.797C137.048 129.477 136.488 129.006 136.076 128.384C135.669 127.756 135.466 126.975 135.466 126.039C135.466 125.251 135.611 124.589 135.9 124.054C136.19 123.518 136.584 123.088 137.082 122.761C137.581 122.435 138.147 122.189 138.781 122.023C139.421 121.857 140.092 121.74 140.794 121.672C141.619 121.586 142.283 121.506 142.788 121.432C143.293 121.352 143.659 121.235 143.887 121.081C144.115 120.927 144.228 120.699 144.228 120.398V120.342C144.228 119.758 144.044 119.305 143.674 118.985C143.311 118.665 142.794 118.505 142.123 118.505C141.415 118.505 140.852 118.662 140.434 118.976C140.015 119.284 139.738 119.671 139.603 120.139L135.965 119.844C136.15 118.982 136.513 118.237 137.054 117.609C137.596 116.975 138.295 116.489 139.15 116.151C140.012 115.806 141.009 115.634 142.142 115.634C142.93 115.634 143.684 115.726 144.404 115.911C145.13 116.095 145.773 116.381 146.334 116.769C146.9 117.157 147.346 117.656 147.672 118.265C147.999 118.868 148.162 119.591 148.162 120.435V130H144.432V128.033H144.321C144.093 128.477 143.788 128.867 143.407 129.206C143.025 129.538 142.566 129.8 142.031 129.991C141.495 130.175 140.877 130.268 140.175 130.268ZM141.302 127.553C141.88 127.553 142.391 127.439 142.834 127.212C143.277 126.978 143.625 126.664 143.878 126.27C144.13 125.876 144.256 125.43 144.256 124.931V123.426C144.133 123.506 143.964 123.58 143.748 123.648C143.539 123.709 143.302 123.768 143.037 123.823C142.773 123.872 142.508 123.919 142.243 123.962C141.979 123.999 141.739 124.032 141.523 124.063C141.062 124.131 140.658 124.239 140.314 124.386C139.969 124.534 139.701 124.734 139.51 124.987C139.32 125.233 139.224 125.54 139.224 125.91C139.224 126.445 139.418 126.855 139.806 127.138C140.2 127.415 140.698 127.553 141.302 127.553ZM154.86 121.801V130H150.927V115.818H154.676V118.32H154.842C155.156 117.496 155.682 116.843 156.421 116.363C157.159 115.877 158.055 115.634 159.108 115.634C160.092 115.634 160.951 115.849 161.684 116.28C162.416 116.711 162.985 117.326 163.392 118.126C163.798 118.92 164.001 119.868 164.001 120.97V130H160.068V121.672C160.074 120.804 159.852 120.127 159.403 119.641C158.954 119.148 158.335 118.902 157.547 118.902C157.018 118.902 156.55 119.016 156.144 119.244C155.744 119.471 155.43 119.804 155.202 120.241C154.98 120.672 154.867 121.192 154.86 121.801ZM173.278 130.277C171.819 130.277 170.564 129.982 169.511 129.391C168.465 128.794 167.658 127.95 167.092 126.861C166.526 125.765 166.243 124.469 166.243 122.974C166.243 121.515 166.526 120.235 167.092 119.133C167.658 118.031 168.455 117.172 169.483 116.557C170.517 115.941 171.73 115.634 173.121 115.634C174.057 115.634 174.928 115.784 175.734 116.086C176.547 116.381 177.254 116.828 177.858 117.425C178.467 118.022 178.941 118.773 179.279 119.678C179.618 120.576 179.787 121.629 179.787 122.835V123.915H167.812V121.478H176.085C176.085 120.912 175.962 120.41 175.716 119.973C175.469 119.536 175.128 119.194 174.691 118.948C174.26 118.696 173.758 118.57 173.186 118.57C172.589 118.57 172.059 118.708 171.598 118.985C171.142 119.256 170.785 119.622 170.527 120.084C170.268 120.539 170.136 121.047 170.13 121.607V123.925C170.13 124.626 170.259 125.233 170.517 125.744C170.782 126.254 171.154 126.648 171.635 126.925C172.115 127.202 172.684 127.341 173.343 127.341C173.78 127.341 174.18 127.279 174.543 127.156C174.906 127.033 175.217 126.848 175.475 126.602C175.734 126.356 175.931 126.054 176.066 125.697L179.704 125.938C179.52 126.812 179.141 127.575 178.569 128.227C178.002 128.874 177.27 129.378 176.371 129.741C175.479 130.098 174.448 130.277 173.278 130.277Z" fill="#1E1E1E"/>
</svg>
