<svg version="1.1" id="Layer_1" xmlns="http://www.w3.org/2000/svg" xmlns:xlink="http://www.w3.org/1999/xlink" x="0px" y="0px"
	 width="100%" viewBox="0 0 1080 1080" enable-background="new 0 0 1080 1080" xml:space="preserve">
<path fill="#000000" opacity="1.000000" stroke="none" 
	d="
M522.000000,1081.000000 
	C349.519836,1081.000000 177.539688,1080.987305 5.559595,1081.087402 
	C1.919264,1081.089600 0.896389,1080.447876 0.897589,1076.560547 
	C1.007828,719.601746 1.009809,362.642975 0.881230,5.684213 
	C0.879719,1.491153 1.897286,0.897458 5.814765,0.898656 
	C362.606873,1.007827 719.399048,1.007917 1076.191162,0.897811 
	C1080.120972,0.896598 1081.119629,1.509711 1081.118042,5.690150 
	C1080.990356,362.482239 1080.989136,719.274414 1081.124756,1076.066528 
	C1081.126343,1080.474731 1079.989502,1081.100830 1075.934570,1081.098389 
	C891.456360,1080.984985 706.978210,1081.000000 522.000000,1081.000000 
z"/>
<path fill="#FEF1F8" opacity="1.000000" stroke="none" 
	d="
M627.781250,800.687134 
	C605.127869,807.915833 582.438354,812.652893 559.013489,814.182312 
	C502.879425,817.847351 450.491180,805.647583 402.208069,777.004517 
	C345.771606,743.524597 306.624084,695.513245 283.926392,633.896851 
	C270.285278,596.865967 265.378571,558.536316 268.630127,519.583008 
	C274.935974,444.039581 307.193268,381.123596 364.723267,331.528717 
	C394.122498,306.184570 427.800812,288.402283 465.027008,277.684204 
	C501.633698,267.144440 538.909607,264.525146 576.790344,269.576447 
	C620.357300,275.385956 660.281372,290.735626 696.131836,315.797485 
	C741.313171,347.382233 774.141724,389.121552 794.450378,440.553741 
	C801.541199,458.511444 806.744812,476.999725 809.891235,495.997070 
	C811.051819,503.004639 812.277710,510.104340 812.224121,517.317505 
	C812.126343,530.482666 812.246277,543.649353 812.257629,556.815430 
	C812.277344,579.798218 807.684448,602.033691 800.830750,623.809875 
	C791.431091,653.675354 777.270996,681.199768 758.366089,706.162415 
	C727.496338,746.924072 688.350281,776.948242 640.754028,795.820618 
	C636.583984,797.474121 632.352173,798.971985 627.781250,800.687134 
z"/>
<path fill="#3B2C39" opacity="1.000000" stroke="none" 
	d="
M540.904785,550.505615 
	C529.462891,549.866333 525.535339,541.205383 521.360718,533.106140 
	C519.258118,529.026855 517.620056,524.591553 516.545410,520.130859 
	C515.391663,515.341797 512.935059,516.010864 509.248138,516.782288 
	C500.210083,518.673401 491.237335,520.986084 481.766815,518.082581 
	C471.464020,514.923828 468.875885,507.147339 471.735748,498.296387 
	C474.539764,489.618317 480.106323,482.497803 486.606140,476.212219 
	C489.512939,473.401215 489.645203,471.272247 486.747559,468.326996 
	C480.550842,462.028381 475.171051,455.161896 472.071075,446.651459 
	C468.115051,435.790802 473.618256,426.991241 485.132050,425.654205 
	C493.850830,424.641724 502.291718,425.730957 510.706238,427.693085 
	C513.646423,428.378693 515.395020,428.280212 516.414612,424.558563 
	C518.284119,417.734772 520.784607,411.075134 524.581299,404.959442 
	C526.280396,402.222595 528.252563,399.804169 530.599854,397.713318 
	C536.833313,392.160675 543.432556,392.125366 549.865112,397.560730 
	C556.333496,403.026306 559.503052,410.563599 562.433167,418.192352 
	C564.509033,423.597046 570.449341,426.984833 576.267273,426.189148 
	C583.161011,425.246368 590.074585,424.776520 597.041565,425.818207 
	C607.732788,427.416840 612.746948,436.990845 608.457947,447.670868 
	C605.364807,455.373169 600.557129,461.973175 594.709534,467.633759 
	C590.727356,471.488586 591.335510,473.815216 595.020752,477.251862 
	C600.636536,482.488800 605.065918,488.711548 608.012329,495.910980 
	C613.245972,508.699432 607.617371,518.122192 593.740051,519.342346 
	C588.627991,519.791809 583.520081,519.847595 578.415833,518.307495 
	C572.143005,516.414795 564.772034,520.734802 562.288879,526.905640 
	C559.561707,533.683105 556.777466,540.508179 551.413086,545.745361 
	C548.649841,548.443176 545.478882,550.612488 540.904785,550.505615 
z"/>
<path fill="#251C26" opacity="1.000000" stroke="none" 
	d="
M451.335419,595.178162 
	C451.603851,591.404480 449.746124,587.099915 456.176788,587.369934 
	C460.365417,587.545776 461.620605,588.854370 461.544373,592.922546 
	C461.332123,604.249329 461.529510,615.583313 461.421204,626.913086 
	C461.399628,629.172180 462.744904,632.602173 459.116486,633.094971 
	C455.378632,633.602661 451.257599,634.754211 448.533386,630.064636 
	C443.476349,621.359192 438.015015,612.888672 432.379761,603.766296 
	C430.756836,606.502930 431.338257,608.996521 431.304413,611.325562 
	C431.217346,617.322937 431.117310,623.328064 431.329712,629.319153 
	C431.474335,633.398438 428.963776,633.275208 426.129852,633.453979 
	C422.903137,633.657593 422.187408,632.142151 422.210175,629.274658 
	C422.305511,617.278076 422.188599,605.279724 422.312439,593.283691 
	C422.332336,591.357300 421.022858,588.132324 423.939758,587.782837 
	C427.232971,587.388306 431.143707,585.980957 433.695709,590.372314 
	C438.115662,597.977844 442.972931,605.328918 447.625977,612.799683 
	C448.388428,614.023865 448.896484,615.457825 451.335388,616.107117 
	C451.335388,609.096558 451.335388,602.374573 451.335419,595.178162 
z"/>
<path fill="#251C26" opacity="1.000000" stroke="none" 
	d="
M477.465027,620.403320 
	C473.588898,607.677185 477.438782,595.047852 486.542664,589.569641 
	C500.458191,581.196045 518.401367,589.548096 520.992981,605.605225 
	C523.050049,618.350281 517.583984,628.888489 506.695190,633.170105 
	C494.873627,637.818604 482.520081,632.525269 477.465027,620.403320 
z"/>
<path fill="#251C26" opacity="1.000000" stroke="none" 
	d="
M405.770294,605.984619 
	C405.793610,610.972351 405.592346,615.417542 404.943695,619.901367 
	C403.925842,626.937317 400.351044,631.699219 393.619293,633.553040 
	C384.142181,636.162659 372.126160,634.812683 367.968109,626.112427 
	C366.497040,623.034363 365.808655,619.797791 365.716888,616.542725 
	C365.486969,608.385742 365.785126,600.214111 365.570221,592.056274 
	C365.464600,588.047791 367.395172,587.420349 370.787354,587.432983 
	C374.121155,587.445374 376.069214,587.877502 375.912964,592.001953 
	C375.616730,599.820923 375.806793,607.659241 375.837250,615.489380 
	C375.868011,623.400452 378.924225,626.884460 385.736694,626.865784 
	C392.426422,626.847412 395.435944,623.314514 395.484161,615.281067 
	C395.531158,607.451111 395.678650,599.614868 395.422699,591.793091 
	C395.302979,588.133606 396.682709,587.271301 400.037994,587.438965 
	C403.250580,587.599487 406.091187,587.376953 405.824768,591.997253 
	C405.566284,596.480469 405.769775,600.990417 405.770294,605.984619 
z"/>
<path fill="#251C26" opacity="1.000000" stroke="none" 
	d="
M554.881104,616.655518 
	C545.679016,616.858704 546.285400,614.918335 546.228210,624.969971 
	C546.222473,625.968872 546.106506,626.985413 546.248596,627.963684 
	C546.853577,632.128601 545.094055,633.488098 540.947693,633.521729 
	C536.716125,633.555969 535.567444,632.046204 535.650391,627.957886 
	C535.893494,615.975647 535.847046,603.983643 535.669678,591.999146 
	C535.617920,588.500305 536.759583,587.182922 540.234375,587.484985 
	C547.969116,588.157349 555.893494,586.092712 563.473389,588.801941 
	C570.212463,591.210449 574.111450,597.837097 572.984619,604.375488 
	C571.707520,611.785828 566.490906,616.313354 558.857544,616.617859 
	C557.693604,616.664307 556.527039,616.644043 554.881104,616.655518 
z"/>
<path fill="#251C26" opacity="1.000000" stroke="none" 
	d="
M638.326294,607.172058 
	C640.651550,601.289124 643.166199,595.878601 644.951294,590.237244 
	C646.220581,586.226013 649.106628,587.812927 651.456604,587.561096 
	C653.973755,587.291382 656.420776,587.321777 657.572876,590.451477 
	C662.266968,603.203186 667.103577,615.902405 671.789551,628.657043 
	C672.302673,630.053772 673.633972,632.434387 671.425842,632.964294 
	C668.754028,633.605652 665.534668,634.664062 663.105347,631.939514 
	C662.563354,631.331604 661.931091,630.539978 661.882629,629.797546 
	C661.471619,623.501465 657.314026,622.968140 652.395813,623.407410 
	C650.908997,623.540283 649.353577,623.666687 647.910339,623.383850 
	C643.337158,622.487671 641.344055,624.904724 640.068787,628.816772 
	C638.751404,632.858032 634.636841,634.703308 630.768127,633.324524 
	C628.641541,632.566589 629.233032,631.277222 629.819153,629.752869 
	C632.658752,622.367737 635.416687,614.951172 638.326294,607.172058 
z"/>
<path fill="#251C26" opacity="1.000000" stroke="none" 
	d="
M699.262451,633.097534 
	C690.711060,633.663635 690.711121,633.663635 690.710205,625.812683 
	C690.709167,617.172363 690.602844,608.530090 690.756348,599.892517 
	C690.821533,596.227234 689.452881,594.656494 685.771851,595.048828 
	C684.293335,595.206421 682.769470,594.941284 681.291321,595.100952 
	C678.308350,595.423218 677.169250,594.343994 677.201477,591.216736 
	C677.234741,587.988831 678.655273,587.419250 681.487671,587.459900 
	C691.123047,587.598206 700.761841,587.555359 710.398682,587.487488 
	C713.202332,587.467773 715.111511,587.745056 715.129150,591.419617 
	C715.148254,595.385742 712.750000,595.075562 710.201782,595.076843 
	C700.080688,595.081909 700.929199,593.996216 700.914551,604.518799 
	C700.903687,612.328369 700.953491,620.138245 700.880310,627.947144 
	C700.864197,629.667236 701.614380,631.678101 699.262451,633.097534 
z"/>
<path fill="#251C26" opacity="1.000000" stroke="none" 
	d="
M619.828796,630.702271 
	C619.192688,633.500061 617.241211,633.382751 615.415344,633.388184 
	C607.431152,633.411865 599.444519,633.288330 591.463867,633.458984 
	C588.356018,633.525391 587.428467,632.343140 587.452942,629.378845 
	C587.557312,616.737976 587.605225,604.094360 587.431152,591.455017 
	C587.382141,587.900452 588.955322,587.319702 591.950378,587.461548 
	C594.737549,587.593567 597.235657,587.282349 597.144897,591.430298 
	C596.948547,600.408203 597.081604,609.393494 597.091187,618.375732 
	C597.098755,625.473206 597.106201,625.473694 604.437805,625.477661 
	C607.930908,625.479492 611.434143,625.645874 614.914307,625.434143 
	C618.553894,625.212708 620.288269,626.554749 619.828796,630.702271 
z"/>
<path fill="#795B71" opacity="1.000000" stroke="none" 
	d="
M669.222534,685.867249 
	C665.350464,685.034851 662.067566,687.301819 658.435852,687.136292 
	C654.066956,686.937134 651.704773,685.944092 652.386902,681.162292 
	C652.503052,680.348328 652.444519,679.501465 652.398132,678.673645 
	C651.902283,669.825806 653.357666,670.179138 662.155457,670.376587 
	C663.158325,670.399109 664.269592,670.511841 664.405029,671.805542 
	C664.539124,673.085632 663.580139,673.348511 662.531555,673.624817 
	C660.993530,674.030090 658.089111,672.624451 658.272583,675.383362 
	C658.429749,677.746155 661.336853,676.374878 662.920532,676.988281 
	C663.718384,677.297424 664.482361,677.546509 664.596741,678.598083 
	C663.449341,680.270935 661.632629,679.599670 660.071777,679.795654 
	C658.569031,679.984375 657.047119,680.707153 657.952393,682.226562 
	C659.694275,685.149780 663.109619,683.451599 665.707458,684.231628 
	C667.753906,684.846008 667.619812,682.580688 667.738403,681.141296 
	C667.982544,678.178650 667.281982,675.171021 668.431152,671.983276 
	C668.952515,671.899902 669.204651,672.071533 669.695801,672.633789 
	C670.625854,677.213623 671.074829,681.394409 669.222534,685.867249 
z"/>
<path fill="#594254" opacity="1.000000" stroke="none" 
	d="
M579.028198,674.908081 
	C580.184021,677.859375 581.286377,680.436279 582.279724,683.054565 
	C582.688354,684.131592 583.077332,685.479126 581.897705,686.234619 
	C580.787781,686.945618 579.683533,686.429688 578.928345,685.324219 
	C576.550903,681.843750 574.109375,682.470215 571.755676,685.304993 
	C570.917664,686.314331 569.970764,687.005981 568.802551,686.317932 
	C567.424805,685.506470 568.275818,684.328979 568.669739,683.259338 
	C569.750854,680.323059 570.548523,677.250854 571.938904,674.472961 
	C572.657166,673.037903 573.109131,670.607666 575.484131,670.836060 
	C577.502563,671.030090 578.591370,672.556030 579.028198,674.908081 
z"/>
<path fill="#594254" opacity="1.000000" stroke="none" 
	d="
M479.921204,683.505615 
	C481.189148,680.405090 482.010651,677.473938 483.181915,674.690002 
	C483.917023,672.942749 484.798370,670.747375 487.150818,670.857788 
	C489.149261,670.951538 490.154297,672.630005 490.806610,674.483337 
	C491.904266,677.602112 493.180328,680.658203 494.270782,683.779297 
	C494.587280,684.685120 494.732574,685.810059 493.524139,686.359375 
	C492.689301,686.738953 491.683624,686.616272 491.245728,685.918701 
	C488.207062,681.077942 485.280090,682.557373 482.248962,685.899841 
	C482.012909,686.160156 481.292572,685.981323 480.420410,685.903320 
	C479.432861,685.208313 479.345734,684.509888 479.921204,683.505615 
z"/>
<path fill="#E6C7DA" opacity="1.000000" stroke="none" 
	d="
M433.383789,685.618591 
	C432.576843,685.998657 432.095581,686.015747 431.254700,685.999512 
	C429.011871,685.231873 426.961975,685.650574 425.049103,685.120239 
	C422.128723,684.310547 420.960449,682.240601 423.023102,680.063477 
	C424.674042,678.321045 424.123657,677.852722 422.757812,676.798828 
	C422.260986,676.415588 421.904938,675.458069 422.230865,674.994568 
	C425.037415,671.002869 420.653259,672.563904 419.351318,671.349487 
	C421.792145,667.848633 428.425751,668.110107 432.873779,671.864746 
	C435.496246,676.372925 434.920563,680.801880 433.383789,685.618591 
z"/>
<path fill="#E6C7DA" opacity="1.000000" stroke="none" 
	d="
M461.489075,670.540894 
	C462.879272,670.202393 464.024200,670.101685 465.600677,670.015076 
	C466.415894,670.780151 466.359558,671.566650 466.147400,672.749573 
	C464.388672,677.194458 467.550323,681.478333 465.253662,685.832764 
	C460.773499,688.725586 456.189911,688.195435 451.294434,687.349548 
	C450.859009,686.877625 450.730347,686.674805 450.728973,686.137024 
	C452.560913,684.336121 454.558075,684.920044 456.732635,685.026489 
	C454.585846,684.451355 452.414948,682.660767 453.816833,681.398560 
	C456.578827,678.911743 454.595673,676.880188 454.487793,674.318848 
	C456.485138,672.216736 459.565186,672.936951 461.489075,670.540894 
z"/>
<path fill="#61495C" opacity="1.000000" stroke="none" 
	d="
M418.986389,671.591553 
	C422.134766,671.142639 425.195099,671.142639 429.171082,671.142639 
	C426.990051,673.843994 422.740631,671.431641 422.830902,675.123413 
	C422.928925,679.132385 427.263275,675.870117 428.766876,678.444336 
	C427.783386,679.632202 426.274750,679.369751 424.956848,679.469116 
	C423.321442,679.592468 422.579132,680.382874 422.652008,682.015320 
	C422.729645,683.754150 423.800598,684.164307 425.311249,684.217529 
	C427.090057,684.280151 429.016663,683.800049 430.685638,685.660645 
	C430.600555,685.994751 430.347504,686.112427 430.006226,686.487793 
	C426.586884,688.415833 423.075836,687.122986 419.421570,686.989258 
	C418.241699,681.750427 418.632233,676.894287 418.986389,671.591553 
z"/>
<path fill="#61495C" opacity="1.000000" stroke="none" 
	d="
M534.387695,680.808716 
	C534.058167,681.471619 534.012451,681.894836 534.104309,682.612671 
	C535.648743,684.099243 537.317688,683.415588 538.854797,683.472046 
	C540.634460,683.537476 542.005066,683.972900 542.477783,686.185852 
	C541.997986,686.561523 541.643188,686.555298 541.147583,686.670715 
	C538.011047,688.291748 534.835815,687.160461 531.368164,687.148804 
	C530.794434,686.648193 530.581909,686.450256 530.162842,686.157227 
	C528.900146,680.868408 527.308472,675.680664 531.076965,670.502075 
	C532.033813,670.379822 532.560608,670.462219 533.352722,670.578247 
	C534.779541,670.903992 534.941101,671.926697 535.317749,673.187988 
	C535.785339,676.735291 539.263306,675.114624 540.683105,677.182251 
	C540.770813,677.827271 540.823853,678.138000 540.947266,678.676025 
	C539.233765,680.863281 536.590881,679.341919 534.387695,680.808716 
z"/>
<path fill="#61495C" opacity="1.000000" stroke="none" 
	d="
M561.137939,680.550049 
	C560.411804,682.755676 562.148865,686.362000 558.898071,686.389099 
	C555.504944,686.417419 557.402954,682.813171 556.999023,680.827881 
	C556.740173,679.555847 556.947327,678.188354 556.950684,676.863647 
	C556.966309,670.712158 559.558105,668.831665 565.604431,670.560181 
	C566.430176,670.796204 567.279175,671.008301 567.172668,672.087708 
	C567.072266,673.104065 566.241760,673.277954 565.389526,673.434387 
	C563.772461,673.731079 561.506348,672.678467 560.959717,675.876709 
	C561.063965,676.468323 561.239502,676.634705 561.400879,677.163574 
	C562.190857,677.471680 563.001770,677.327637 563.797363,677.387146 
	C564.663696,677.451965 566.102844,677.256165 565.835510,678.612061 
	C565.621033,679.699524 564.232239,679.357849 562.911011,679.296265 
	C561.826904,679.271118 561.508667,679.726440 561.137939,680.550049 
z"/>
<path fill="#795B71" opacity="1.000000" stroke="none" 
	d="
M603.224243,683.380676 
	C602.525330,679.487610 605.300659,674.818909 599.396545,673.092407 
	C598.041748,672.696228 598.573486,670.654419 600.386353,670.426025 
	C602.180664,670.199829 604.025879,670.276306 605.842468,670.358398 
	C607.412476,670.429260 609.518311,669.680786 610.247314,671.630737 
	C610.878540,673.318909 608.605774,673.336426 607.877136,674.306213 
	C605.655884,677.262573 607.191528,680.740540 606.637817,683.935608 
	C606.442749,685.061462 606.423828,686.504517 604.849182,686.436768 
	C603.293091,686.369873 603.437805,684.893982 603.224243,683.380676 
z"/>
<path fill="#61495C" opacity="1.000000" stroke="none" 
	d="
M455.151917,673.604736 
	C453.484406,678.857971 458.555542,676.186707 459.949280,678.190979 
	C459.324829,679.716980 457.877045,679.305420 456.733002,679.498291 
	C455.298584,679.740356 454.066376,680.314209 454.178009,681.964844 
	C454.286865,683.574585 455.554199,684.029053 457.001038,684.203796 
	C458.520020,684.387207 460.342773,683.655457 461.686523,685.829773 
	C458.336670,687.116943 455.091217,686.465149 451.457458,686.290771 
	C450.634735,686.067017 450.326904,685.850159 449.999847,685.265015 
	C449.870178,681.299683 449.821289,677.612244 449.803650,673.465637 
	C450.100342,671.926697 450.781281,671.186890 452.051666,670.664062 
	C452.924469,670.618835 453.487305,670.585205 454.331360,670.583618 
	C456.004456,671.173218 455.786774,672.220032 455.151917,673.604736 
z"/>
<path fill="#795B71" opacity="1.000000" stroke="none" 
	d="
M500.228271,685.817871 
	C496.606537,685.873047 498.424042,683.210205 498.106964,681.665649 
	C497.493103,678.675659 499.342438,675.048157 495.079742,673.097717 
	C493.717377,672.474365 494.283783,670.603455 496.115662,670.425964 
	C498.247894,670.219238 500.413269,670.333557 502.564026,670.347534 
	C503.864929,670.355957 505.483551,670.084839 505.991394,671.635864 
	C506.468262,673.092163 504.832581,673.374756 503.994843,674.072510 
	C502.203979,675.564087 502.658447,677.651917 502.518738,679.601501 
	C502.368164,681.703186 503.082092,683.919128 501.377258,685.964539 
	C499.865570,682.724976 500.879791,679.304504 500.510559,676.375793 
	C500.391083,679.137329 500.599396,682.338989 500.228271,685.817871 
z"/>
<path fill="#61495C" opacity="1.000000" stroke="none" 
	d="
M514.683167,673.435547 
	C511.042725,675.790039 513.309387,679.337524 512.666199,682.186401 
	C512.308716,683.769958 513.567261,686.391663 510.780914,686.489807 
	C507.568726,686.602844 508.683777,683.761536 508.562866,682.023071 
	C508.391449,679.558777 508.469910,677.072632 508.528931,674.597900 
	C508.621490,670.718201 510.096283,669.652283 513.868958,672.582764 
	C514.435730,672.795410 514.657593,673.204346 514.683167,673.435547 
z"/>
<path fill="#594254" opacity="1.000000" stroke="none" 
	d="
M441.109802,683.271484 
	C440.692322,682.849182 440.511658,682.598633 440.180664,682.174072 
	C438.636230,681.242676 437.828033,680.037781 437.264313,678.197937 
	C436.914581,676.825256 436.906067,675.819458 437.422821,674.487915 
	C437.822632,674.009827 438.034912,673.867004 438.593140,673.890259 
	C438.939117,674.056335 439.001556,674.008545 438.969421,674.028442 
	C439.431244,674.425354 439.463593,675.033569 439.934875,675.688354 
	C440.182343,675.830872 440.419586,676.178528 440.532715,676.355957 
	C442.553162,677.081177 442.921783,675.960266 443.033264,674.419556 
	C443.184692,672.326782 443.882874,670.794739 446.667908,671.885010 
	C447.481567,676.680359 448.124817,681.206909 446.475708,685.988159 
	C445.692078,686.525696 445.140930,686.660217 444.137756,686.578247 
	C443.269409,686.140137 442.821808,685.790833 442.234924,685.189392 
	C441.542450,684.595764 441.538055,683.972839 441.109802,683.271484 
z"/>
<path fill="#795B71" opacity="1.000000" stroke="none" 
	d="
M585.252380,678.198120 
	C583.622375,675.875854 583.534973,673.949829 585.367798,672.150391 
	C587.411255,670.144104 589.917786,669.303833 592.552124,670.412170 
	C594.494202,671.229370 597.169739,671.968079 596.042847,675.443237 
	C594.030334,677.210144 592.635986,674.617981 590.747253,675.114563 
	C592.718384,676.339539 595.668579,676.312317 595.473328,679.867798 
	C594.935364,680.846680 594.347229,681.276672 593.267334,681.637512 
	C590.086121,681.406189 587.186218,681.316101 585.252380,678.198120 
z"/>
<path fill="#3B2C39" opacity="1.000000" stroke="none" 
	d="
M514.924011,674.085693 
	C514.578064,673.333984 514.447388,673.001343 514.200806,672.578613 
	C514.396973,671.268127 515.301208,671.371338 516.611694,671.772339 
	C517.239807,672.262024 517.485962,672.508179 517.780273,673.020081 
	C518.715088,673.774597 518.815552,674.673950 519.030151,675.858887 
	C519.167480,676.340515 519.274841,676.492493 519.550903,676.866821 
	C520.514587,677.514648 521.285156,678.107727 522.443481,677.185303 
	C522.744202,676.178772 522.838013,675.441284 522.953613,674.331421 
	C523.478516,673.582520 523.497131,672.988770 523.817749,672.226074 
	C523.985901,671.997131 524.000000,672.000305 523.997864,671.993652 
	C527.637634,670.420898 527.783569,672.623535 526.966003,675.043701 
	C525.806641,678.475769 525.000732,682.028381 523.292114,685.691040 
	C523.052002,686.026306 522.996948,686.005432 523.013184,686.030029 
	C522.346313,686.582886 521.597534,686.908386 520.299377,686.727112 
	C519.754395,686.509277 519.620117,686.369507 519.214722,686.124634 
	C518.764404,685.752930 518.560608,685.506775 518.185425,685.091064 
	C517.894958,683.978149 517.751282,683.055176 517.614319,681.781250 
	C517.615662,680.589905 516.968750,680.061157 516.501343,679.122559 
	C515.963745,677.408691 515.551514,675.956726 514.924011,674.085693 
z"/>
<path fill="#E6C7DA" opacity="1.000000" stroke="none" 
	d="
M523.409546,685.976440 
	C523.006104,681.600647 525.477173,677.849487 526.427002,673.673523 
	C526.933044,671.448425 525.669556,672.171021 524.373535,671.990112 
	C525.267029,668.120728 528.377686,670.671570 531.049683,670.196899 
	C528.511047,674.980835 530.521545,680.165527 530.003784,685.566589 
	C525.877869,683.950012 529.257507,680.044678 527.656311,677.198792 
	C525.858582,679.875549 526.280701,683.597290 523.409546,685.976440 
z"/>
<path fill="#61495C" opacity="1.000000" stroke="none" 
	d="
M412.201111,685.695740 
	C411.602509,686.145691 411.250397,686.310059 410.621185,686.565918 
	C409.107147,686.949951 407.857056,687.022095 406.127014,686.815918 
	C399.632599,682.122009 399.000824,678.819763 403.241852,672.331665 
	C404.872986,670.972046 405.844360,671.463928 406.726318,673.149048 
	C406.978790,674.998901 406.443420,676.427002 406.385132,677.903503 
	C406.216217,682.180725 407.006683,682.872925 411.793365,682.492737 
	C412.438507,683.029663 412.638123,683.468933 412.730347,684.330444 
	C412.629089,684.941101 412.538330,685.175598 412.201111,685.695740 
z"/>
<path fill="#3B2C39" opacity="1.000000" stroke="none" 
	d="
M437.919525,673.823364 
	C437.955444,675.031189 437.954224,675.916992 437.970703,677.134644 
	C437.920624,678.780945 438.193420,680.139038 437.240784,681.685120 
	C436.898254,682.433716 436.803558,682.869202 436.583740,683.615845 
	C436.102234,684.733887 435.804138,685.566162 435.187378,686.603882 
	C434.420868,686.738220 433.872375,686.623413 433.190979,686.245117 
	C433.138428,681.645386 433.218811,677.309204 433.247986,672.514282 
	C433.875549,671.723328 434.554321,671.390991 435.529083,671.088135 
	C436.745453,671.709656 437.610229,672.349792 437.919525,673.823364 
z"/>
<path fill="#594254" opacity="1.000000" stroke="none" 
	d="
M475.826996,671.632141 
	C477.596924,672.891907 478.153168,674.341125 477.811584,676.453125 
	C477.331177,678.044983 476.817902,679.289490 477.619995,680.913696 
	C477.801270,681.597595 477.936310,681.955688 478.123718,682.596680 
	C478.610199,683.607178 478.764252,684.371399 478.218262,685.503479 
	C473.765656,688.591553 474.138550,685.348328 473.988647,682.415039 
	C473.777832,681.791382 473.553345,681.562195 473.131897,681.191528 
	C472.944061,681.041016 472.572632,680.914246 472.383911,680.860596 
	C471.201538,680.146545 471.037903,679.159241 471.204224,677.699707 
	C471.728577,676.144836 472.598328,675.153687 472.923004,673.503296 
	C473.526947,672.112793 474.229248,671.417419 475.826996,671.632141 
z"/>
<path fill="#594254" opacity="1.000000" stroke="none" 
	d="
M636.810059,684.972656 
	C636.659302,681.389954 636.625793,678.179260 636.568237,674.563354 
	C636.798828,670.197754 638.862366,670.658875 641.593872,672.556763 
	C642.360901,674.244995 642.465759,675.655579 642.757812,677.440125 
	C643.026001,680.452026 641.028931,682.311462 640.447266,684.697388 
	C640.056213,686.301331 638.407654,686.714417 636.810059,684.972656 
z"/>
<path fill="#3B2C39" opacity="1.000000" stroke="none" 
	d="
M627.886292,680.385559 
	C626.369385,682.264587 628.499939,686.237793 625.207642,686.071899 
	C622.219482,685.921265 623.885254,682.347900 623.601257,680.307068 
	C623.329285,678.352783 623.535645,676.330200 623.552490,674.337830 
	C623.567322,672.584351 623.734131,670.924255 626.552490,670.910889 
	C627.695557,671.575623 627.815613,672.416809 627.407654,673.739746 
	C626.207581,677.626892 628.574463,677.455750 631.192871,677.434570 
	C633.026245,681.309631 629.264221,679.229309 627.886292,680.385559 
z"/>
<path fill="#795B71" opacity="1.000000" stroke="none" 
	d="
M668.798828,671.818359 
	C671.489075,668.929443 674.869690,670.756714 677.986206,670.590332 
	C678.617126,670.556641 679.130249,671.186401 679.138000,671.964111 
	C679.145752,672.739319 678.675842,673.253662 678.015686,673.391174 
	C677.053040,673.591919 676.047607,673.578979 675.063904,673.688660 
	C674.092529,673.796936 672.954529,673.788757 672.955994,675.182983 
	C672.957397,676.505127 674.019348,676.547058 675.005188,676.797119 
	C678.489075,677.680725 678.479614,677.718140 677.208984,679.348511 
	C671.962646,679.743774 670.199341,676.772278 669.330566,672.325989 
	C669.091797,672.091614 668.897339,671.908569 668.798828,671.818359 
z"/>
<path fill="#61495C" opacity="1.000000" stroke="none" 
	d="
M669.038635,672.546509 
	C670.047058,672.042358 671.749939,671.924561 671.504272,672.918640 
	C670.346680,677.602661 673.737366,677.838501 676.767456,678.955688 
	C675.820740,679.367188 674.749878,679.483521 673.269897,679.601074 
	C671.320679,682.356384 672.123047,683.826050 675.276245,684.000916 
	C676.384460,684.062378 677.529480,683.882751 678.821289,684.713013 
	C679.095703,684.909180 678.994446,684.975952 679.043579,684.937378 
	C679.229187,685.111755 679.365662,685.324646 679.264099,685.832947 
	C676.005554,687.321655 672.877380,686.600525 669.372437,686.439270 
	C668.963440,681.821350 668.974426,677.411377 669.038635,672.546509 
z"/>
<path fill="#3B2C39" opacity="1.000000" stroke="none" 
	d="
M465.388000,686.186401 
	C464.651886,681.720581 464.061920,677.295349 464.926636,672.488831 
	C466.387726,670.946777 467.738190,670.817444 469.309265,672.323608 
	C469.682617,673.329590 469.638153,674.029419 469.578522,675.058594 
	C469.596161,675.603943 469.613983,675.820496 469.685242,676.358887 
	C469.782898,676.895447 469.827087,677.110046 469.924133,677.651306 
	C470.053406,678.879395 470.010101,679.758545 469.317810,680.831055 
	C469.136169,681.111206 469.031219,680.998779 469.075012,681.061646 
	C467.876007,682.345398 468.365479,684.181335 467.376282,685.853394 
	C466.723633,686.177063 466.241302,686.200073 465.388000,686.186401 
z"/>
<path fill="#594254" opacity="1.000000" stroke="none" 
	d="
M647.870972,671.612183 
	C648.199219,671.770386 648.524902,671.942505 648.678101,672.044678 
	C649.561584,672.502808 650.018616,673.129089 650.416260,674.072266 
	C650.923584,676.244019 648.968933,677.450500 649.098633,679.544189 
	C649.455078,680.372253 649.824524,680.846436 650.072266,681.718018 
	C650.177002,683.652771 651.409851,685.964783 648.657532,686.315491 
	C646.540161,686.585266 646.995117,684.385315 646.499512,682.670471 
	C645.945251,682.631836 645.597351,682.549194 645.626221,681.942139 
	C645.945129,681.790161 645.673462,681.504700 645.513977,681.388977 
	C644.163269,681.083740 644.244507,680.121460 644.176086,678.956970 
	C644.324097,678.249023 644.472351,677.871338 644.808838,677.268555 
	C645.119324,676.702026 645.249939,676.365417 645.293396,675.739258 
	C645.036743,674.718750 644.564697,674.054749 644.523071,672.921265 
	C645.206055,671.288513 646.256775,671.062561 647.870972,671.612183 
z"/>
<path fill="#795B71" opacity="1.000000" stroke="none" 
	d="
M406.278198,674.318298 
	C405.986938,672.826904 405.512787,672.054260 403.849670,672.126587 
	C408.938782,668.566772 412.351868,669.506714 414.504669,675.558899 
	C414.006622,676.363770 413.573975,676.644287 412.658386,676.823914 
	C410.180817,676.562378 408.352417,675.607422 406.278198,674.318298 
z"/>
<path fill="#795B71" opacity="1.000000" stroke="none" 
	d="
M595.982544,683.831970 
	C592.505554,688.666626 586.750305,688.088440 584.093140,682.572021 
	C587.045898,679.852356 589.700073,683.064331 592.947388,682.645630 
	C594.216431,682.751892 595.007446,683.011414 595.982544,683.831970 
z"/>
<path fill="#B991AC" opacity="1.000000" stroke="none" 
	d="
M648.047058,671.406738 
	C647.235657,672.215149 645.701721,671.344788 645.268066,673.383789 
	C644.453674,674.965576 643.299133,674.984131 641.670654,674.401245 
	C640.349609,670.722839 638.835571,671.108521 636.782837,673.832764 
	C635.288391,671.922607 636.515320,670.427185 638.458191,670.240906 
	C641.590637,669.940552 644.906738,669.065247 648.047058,671.406738 
z"/>
<path fill="#E6C7DA" opacity="1.000000" stroke="none" 
	d="
M593.241150,683.644165 
	C589.790710,685.480591 587.722473,682.129272 584.497986,682.130981 
	C584.396545,681.002991 584.673706,679.802856 585.011780,678.230835 
	C587.493469,678.822083 589.914307,679.785217 592.677002,680.874023 
	C593.617004,681.678772 593.736938,682.452637 593.241150,683.644165 
z"/>
<path fill="#B991AC" opacity="1.000000" stroke="none" 
	d="
M627.638489,674.129333 
	C627.140320,673.325806 627.068909,672.512512 626.995117,671.289185 
	C629.389343,669.329529 631.853577,669.670776 634.252075,670.781189 
	C634.596619,670.940735 634.875916,672.103882 634.650696,672.492737 
	C633.055298,675.246704 630.253601,673.488831 627.638489,674.129333 
z"/>
<path fill="#B991AC" opacity="1.000000" stroke="none" 
	d="
M644.320801,677.629822 
	C644.805420,678.743286 644.978577,679.670227 645.253113,680.935242 
	C643.417908,681.721985 642.149780,682.416626 641.447876,684.759094 
	C640.604980,687.571838 638.442139,688.491516 636.533997,684.956177 
	C638.012146,685.563843 639.711365,686.208069 639.756958,683.914124 
	C639.801270,681.686340 641.663269,680.603638 642.007202,678.349609 
	C642.576721,677.404358 643.254944,677.282166 644.320801,677.629822 
z"/>
<path fill="#B991AC" opacity="1.000000" stroke="none" 
	d="
M469.224884,674.260620 
	C468.796844,671.817383 467.523682,671.578735 465.443695,672.084473 
	C465.299133,671.603333 465.529053,671.076233 465.895599,670.289185 
	C469.325653,670.362854 472.796143,668.966309 476.053894,671.406250 
	C475.226044,672.025146 474.029755,671.937256 473.788635,673.733887 
	C472.463531,675.307983 471.039673,675.248291 469.224884,674.260620 
z"/>
<path fill="#E6C7DA" opacity="1.000000" stroke="none" 
	d="
M595.420837,680.067688 
	C594.874512,677.364319 593.017517,677.207703 591.134888,677.033936 
	C589.925659,676.922302 588.837097,676.518616 588.438599,675.209229 
	C588.143066,674.238464 588.834656,673.658630 589.453613,673.117554 
	C591.048706,671.723206 591.828674,673.340698 592.701111,674.138855 
	C593.467163,674.839722 594.208679,675.416748 595.562622,675.595703 
	C596.239807,676.912659 596.613403,678.144592 596.959534,679.759766 
	C596.533936,680.421814 596.102417,680.474548 595.420837,680.067688 
z"/>
<path fill="#B991AC" opacity="1.000000" stroke="none" 
	d="
M534.459229,674.344360 
	C533.993530,673.132751 533.890808,672.208130 533.703003,670.947632 
	C535.883057,669.618713 538.187378,669.823669 540.834717,670.643921 
	C541.453735,671.358215 541.563293,671.854431 541.321777,672.740417 
	C540.967163,673.375366 540.731079,673.603394 540.214905,673.877869 
	C538.409790,675.332153 536.686646,675.542358 534.459229,674.344360 
z"/>
<path fill="#B991AC" opacity="1.000000" stroke="none" 
	d="
M455.295410,673.919189 
	C454.832123,673.020325 454.791901,672.140076 454.682159,670.937744 
	C456.631409,669.572205 458.769958,670.044006 461.305786,670.211792 
	C462.061188,675.374695 458.162415,673.452209 455.295410,673.919189 
z"/>
<path fill="#B991AC" opacity="1.000000" stroke="none" 
	d="
M446.883118,671.795898 
	C443.093536,671.567871 444.141479,674.409668 444.038696,676.282776 
	C443.841858,679.869812 442.637421,679.527710 440.720428,676.881042 
	C442.595856,675.762573 442.050629,673.783752 442.682007,672.370544 
	C443.638794,670.228882 444.877686,668.989746 446.883118,671.795898 
z"/>
<path fill="#E6C7DA" opacity="1.000000" stroke="none" 
	d="
M548.565308,685.683960 
	C547.276672,687.332825 545.995361,688.721924 544.447083,686.666504 
	C543.445496,685.336853 543.587158,683.435791 545.086914,682.732178 
	C547.348511,681.671204 548.279358,683.389648 548.565308,685.683960 
z"/>
<path fill="#795B71" opacity="1.000000" stroke="none" 
	d="
M678.927307,684.584290 
	C677.330811,684.904846 675.419434,685.334290 673.833984,684.798706 
	C671.170471,683.899109 669.858948,682.075684 672.594910,679.532349 
	C671.256042,685.677063 676.784180,682.717957 678.927307,684.584290 
z"/>
<path fill="#B991AC" opacity="1.000000" stroke="none" 
	d="
M614.711731,685.303345 
	C613.620605,687.503967 612.065002,687.590088 610.661072,686.285278 
	C609.646240,685.342163 610.289917,683.881104 611.139526,683.220459 
	C613.223145,681.600159 613.886902,683.568909 614.711731,685.303345 
z"/>
<path fill="#E6C7DA" opacity="1.000000" stroke="none" 
	d="
M534.001099,674.466064 
	C535.780029,674.012512 537.463867,673.967590 539.568481,673.951660 
	C540.241211,674.911987 540.493103,675.843323 540.758911,677.140869 
	C538.585022,676.365906 534.879211,679.184204 534.001099,674.466064 
z"/>
<path fill="#3B2C39" opacity="1.000000" stroke="none" 
	d="
M500.284729,686.199463 
	C499.565765,682.206909 500.486725,678.222534 499.260803,674.374084 
	C498.916260,673.292358 499.133667,672.254944 500.428680,672.247070 
	C501.832550,672.238586 501.578064,673.257935 501.491272,674.344971 
	C501.205109,677.928894 501.125549,681.529358 500.985413,685.587891 
	C500.846771,686.134094 500.689362,686.216003 500.284729,686.199463 
z"/>
<path fill="#594254" opacity="1.000000" stroke="none" 
	d="
M412.170288,685.018555 
	C411.864014,684.131226 411.769806,683.542908 411.516174,682.536133 
	C411.201355,681.495056 411.189911,680.868347 411.443115,679.940308 
	C411.853607,679.282593 412.178833,678.978088 412.864410,678.580933 
	C413.648499,678.370667 414.105133,678.413940 414.820740,678.782959 
	C415.209473,680.735291 415.331207,682.460388 415.329285,684.603760 
	C414.780518,685.271790 414.322662,685.421387 413.466064,685.469299 
	C412.860718,685.417297 412.621521,685.367371 412.170288,685.018555 
z"/>
<path fill="#3B2C39" opacity="1.000000" stroke="none" 
	d="
M594.899719,679.897217 
	C595.582275,679.889221 595.965210,679.976318 596.640137,680.103149 
	C596.932129,680.142944 596.911194,680.571899 597.020508,680.756714 
	C597.437134,681.375244 597.555237,681.855408 597.302490,682.718445 
	C596.925049,683.306580 596.755249,683.574829 596.428955,684.012146 
	C595.437012,684.106750 594.627686,684.048767 593.412903,683.988403 
	C593.057251,683.237854 593.107056,682.489563 593.087891,681.370483 
	C593.545898,680.663879 594.072998,680.328064 594.899719,679.897217 
z"/>
<path fill="#B991AC" opacity="1.000000" stroke="none" 
	d="
M627.922668,680.523438 
	C627.734680,677.795715 630.769043,679.821533 631.556030,677.734131 
	C632.437866,677.096191 633.261841,677.081909 633.690247,678.011536 
	C634.137390,678.981750 633.458801,679.540833 632.703247,679.962952 
	C631.335205,680.727112 629.848999,680.750610 627.922668,680.523438 
z"/>
<path fill="#E6C7DA" opacity="1.000000" stroke="none" 
	d="
M534.522095,681.042908 
	C535.249451,677.783813 538.289185,680.125732 540.560547,678.957764 
	C540.030579,682.668945 536.912415,680.228882 534.522095,681.042908 
z"/>
<path fill="#B991AC" opacity="1.000000" stroke="none" 
	d="
M415.298645,678.811523 
	C414.626648,678.991150 414.165527,678.972046 413.358215,678.960022 
	C412.401367,678.961243 411.834961,678.812500 411.138306,678.220642 
	C410.694946,677.361084 410.889771,676.831421 411.592041,676.226807 
	C412.411316,676.027771 412.959869,675.958557 413.928040,675.915527 
	C415.894104,676.327881 415.759338,677.445374 415.298645,678.811523 
z"/>
<path fill="#B991AC" opacity="1.000000" stroke="none" 
	d="
M469.521240,681.168762 
	C469.073608,680.065430 469.011017,679.019714 468.891357,677.581848 
	C469.683014,676.344727 470.668304,676.269165 472.045807,677.103516 
	C472.297455,678.403076 472.242218,679.273438 472.191040,680.475403 
	C471.432220,680.946716 470.669281,681.086548 469.521240,681.168762 
z"/>
<path fill="#E6C7DA" opacity="1.000000" stroke="none" 
	d="
M542.582947,686.170105 
	C540.817322,682.620972 536.870789,685.218079 534.348877,683.282715 
	C536.164062,682.929321 538.086365,682.943848 540.008362,682.975525 
	C541.834656,683.005554 543.218201,683.496765 542.582947,686.170105 
z"/>
<path fill="#E6C7DA" opacity="1.000000" stroke="none" 
	d="
M419.340698,686.960571 
	C422.437256,686.593872 425.709747,686.605347 429.429382,686.636597 
	C426.571808,689.139771 423.033417,688.075562 419.340698,686.960571 
z"/>
<path fill="#E6C7DA" opacity="1.000000" stroke="none" 
	d="
M531.244934,687.189209 
	C534.020447,686.807434 537.060242,686.740540 540.553467,686.732910 
	C537.993652,689.067139 534.722900,687.904541 531.244934,687.189209 
z"/>
<path fill="#E6C7DA" opacity="1.000000" stroke="none" 
	d="
M437.371002,682.005127 
	C436.426544,680.605408 436.642731,679.279175 437.660950,677.729858 
	C438.637939,678.743713 439.287445,680.021057 439.977386,681.653687 
	C439.261566,682.010010 438.505310,682.011047 437.371002,682.005127 
z"/>
<path fill="#B991AC" opacity="1.000000" stroke="none" 
	d="
M467.564758,686.083984 
	C467.259003,684.440552 467.192200,682.697571 468.761597,681.196411 
	C469.042053,682.832947 469.361206,684.638123 467.564758,686.083984 
z"/>
<path fill="#B991AC" opacity="1.000000" stroke="none" 
	d="
M405.862610,686.961548 
	C406.914917,686.627563 408.170013,686.505249 409.884583,686.520203 
	C409.068481,688.079163 407.597198,687.877075 405.862610,686.961548 
z"/>
<path fill="#B991AC" opacity="1.000000" stroke="none" 
	d="
M478.109711,686.039673 
	C477.945068,685.069458 477.932129,684.325134 478.047607,683.230164 
	C478.626404,682.987854 479.076721,683.096191 479.873383,683.239258 
	C480.207458,683.908325 480.195160,684.542664 480.113190,685.488525 
	C479.589630,686.491699 479.031128,686.782898 478.109711,686.039673 
z"/>
<path fill="#B991AC" opacity="1.000000" stroke="none" 
	d="
M438.201599,674.115601 
	C437.255432,673.351257 436.554169,672.557068 435.838989,671.440186 
	C437.648224,670.743774 438.728851,671.456238 438.984711,673.682434 
	C438.939117,674.056335 438.446533,674.085754 438.201599,674.115601 
z"/>
<path fill="#B991AC" opacity="1.000000" stroke="none" 
	d="
M452.058502,670.484253 
	C451.707428,671.371155 451.053162,672.089783 450.116943,672.907471 
	C448.659210,670.813416 449.885437,670.335022 452.058502,670.484253 
z"/>
<path fill="#E6C7DA" opacity="1.000000" stroke="none" 
	d="
M520.000854,686.931274 
	C520.670227,686.477356 521.451721,686.305725 522.631348,686.094299 
	C522.719971,688.108398 521.727783,688.444336 520.000854,686.931274 
z"/>
<path fill="#B991AC" opacity="1.000000" stroke="none" 
	d="
M477.720490,680.797668 
	C475.761658,680.050293 476.042999,678.596130 477.446167,676.918457 
	C477.748169,677.982483 477.761475,679.169128 477.720490,680.797668 
z"/>
<path fill="#795B71" opacity="1.000000" stroke="none" 
	d="
M516.932739,671.676025 
	C516.269714,672.154907 515.545776,672.293945 514.453369,672.460754 
	C514.084961,672.488525 514.050720,672.469055 514.054565,672.496338 
	C514.369080,670.641846 515.169189,669.919800 516.932739,671.676025 
z"/>
<path fill="#E6C7DA" opacity="1.000000" stroke="none" 
	d="
M522.283386,676.919128 
	C522.967773,678.112366 522.454529,678.847473 521.323853,679.153931 
	C520.269104,679.439819 519.850342,678.760498 519.666382,677.488037 
	C520.451965,677.033386 521.184143,676.977661 522.283386,676.919128 
z"/>
<path fill="#795B71" opacity="1.000000" stroke="none" 
	d="
M519.208984,675.925476 
	C517.970276,675.781128 517.829346,674.827148 517.772705,673.571289 
	C518.861511,673.741333 519.349487,674.547607 519.208984,675.925476 
z"/>
<path fill="#594254" opacity="1.000000" stroke="none" 
	d="
M435.299255,686.835144 
	C435.053131,685.863037 434.868713,684.783936 436.170715,684.014954 
	C437.183960,685.177856 436.312012,685.970459 435.299255,686.835144 
z"/>
<path fill="#E6C7DA" opacity="1.000000" stroke="none" 
	d="
M597.409363,683.018921 
	C597.048157,682.580994 596.975403,682.107300 597.016235,681.287598 
	C598.649780,681.251892 599.351074,681.789917 597.409363,683.018921 
z"/>
<path fill="#B991AC" opacity="1.000000" stroke="none" 
	d="
M449.686218,685.149292 
	C450.215820,685.205139 450.512604,685.423157 450.911560,685.910400 
	C451.013763,686.179565 451.032562,686.630737 451.010101,686.855591 
	C450.138092,686.784180 448.966278,686.767273 449.686218,685.149292 
z"/>
<path fill="#B991AC" opacity="1.000000" stroke="none" 
	d="
M443.828125,686.714539 
	C444.268097,686.382751 444.819153,686.276001 445.791138,686.216309 
	C445.789948,687.616211 444.976837,687.655029 443.828125,686.714539 
z"/>
<path fill="#B991AC" opacity="1.000000" stroke="none" 
	d="
M650.338013,681.847046 
	C649.754822,681.516174 649.374146,681.022156 649.059998,680.201538 
	C650.042847,680.130066 650.757568,680.542847 650.338013,681.847046 
z"/>
<path fill="#795B71" opacity="1.000000" stroke="none" 
	d="
M516.337280,679.160156 
	C517.510803,679.005859 517.892151,679.733582 517.740845,681.105469 
	C517.180176,680.773438 516.739380,680.116455 516.337280,679.160156 
z"/>
<path fill="#E6C7DA" opacity="1.000000" stroke="none" 
	d="
M541.424927,673.029907 
	C541.119202,672.603577 541.089600,672.116333 541.113037,671.265137 
	C542.497131,671.292236 543.391235,671.796204 541.424927,673.029907 
z"/>
<path fill="#B991AC" opacity="1.000000" stroke="none" 
	d="
M650.501526,674.040527 
	C649.883850,673.816589 649.383850,673.270813 648.857544,672.435913 
	C649.888306,672.146301 650.562927,672.580811 650.501526,674.040527 
z"/>
<path fill="#B991AC" opacity="1.000000" stroke="none" 
	d="
M440.163605,675.538147 
	C439.749084,675.445740 439.315796,675.060669 438.909912,674.361938 
	C439.339813,674.447388 439.742340,674.846375 440.163605,675.538147 
z"/>
<path fill="#E6C7DA" opacity="1.000000" stroke="none" 
	d="
M523.711731,672.130310 
	C523.820679,672.553467 523.655396,673.109863 523.232788,673.812622 
	C523.129517,673.393921 523.283569,672.828674 523.711731,672.130310 
z"/>
<path fill="#795B71" opacity="1.000000" stroke="none" 
	d="
M679.229675,686.109619 
	C679.027649,685.922913 679.029236,685.717468 679.061768,685.205444 
	C679.952698,685.083008 680.259521,685.425171 679.229675,686.109619 
z"/>
<path fill="#795B71" opacity="1.000000" stroke="none" 
	d="
M561.121338,680.565125 
	C561.221619,680.224915 561.549011,679.718079 562.203491,679.201721 
	C562.136475,679.594299 561.742493,679.996460 561.121338,680.565125 
z"/>
<path fill="#B991AC" opacity="1.000000" stroke="none" 
	d="
M440.897156,683.390137 
	C441.298157,683.497437 441.710846,683.904175 442.109619,684.624084 
	C441.700073,684.521423 441.304474,684.105469 440.897156,683.390137 
z"/>
<path fill="#61495C" opacity="1.000000" stroke="none" 
	d="
M412.878723,685.185242 
	C413.603607,684.973267 414.061005,684.990662 414.862000,685.015015 
	C415.171021,685.919983 414.781250,686.391113 413.473633,686.034546 
	C412.955414,685.734253 412.783325,685.574402 412.878723,685.185242 
z"/>
<path fill="#E6C7DA" opacity="1.000000" stroke="none" 
	d="
M466.551880,687.387146 
	C466.589569,687.451843 466.514221,687.322449 466.551880,687.387146 
z"/>
<path fill="#E6C7DA" opacity="1.000000" stroke="none" 
	d="
M518.062134,685.171143 
	C518.333069,685.089722 518.627502,685.278320 518.932861,685.743164 
	C518.657654,685.826721 518.371643,685.633972 518.062134,685.171143 
z"/>
<path fill="#795B71" opacity="1.000000" stroke="none" 
	d="
M561.470581,677.349731 
	C561.274658,677.333618 561.162598,677.141113 560.969482,676.625305 
	C561.110474,676.592468 561.332458,676.882935 561.470581,677.349731 
z"/>
<path fill="#B991AC" opacity="1.000000" stroke="none" 
	d="
M412.845306,684.916443 
	C413.146210,684.955872 413.189697,685.426025 413.158630,685.660095 
	C412.934814,685.945007 412.742065,685.995789 412.251953,686.013916 
	C411.941162,685.771362 411.927734,685.561523 411.936279,685.035645 
	C412.153625,684.772034 412.348999,684.824524 412.845306,684.916443 
z"/>
<path fill="#B991AC" opacity="1.000000" stroke="none" 
	d="
M645.801270,681.963989 
	C645.945129,681.790161 646.286377,682.054688 646.325195,682.156616 
	C646.364075,682.258484 645.963989,682.467346 645.963989,682.467346 
	C645.963989,682.467346 645.657471,682.137878 645.801270,681.963989 
z"/>
<path fill="#B991AC" opacity="1.000000" stroke="none" 
	d="
M473.036743,681.278076 
	C473.287170,681.172852 473.630280,681.304626 473.983276,681.732971 
	C473.705261,681.858032 473.417358,681.686584 473.036743,681.278076 
z"/>
<path fill="#FAEBF4" opacity="1.000000" stroke="none" 
	d="
M515.767151,476.941986 
	C515.769470,473.965149 515.819275,471.469604 515.760803,468.976562 
	C515.703491,466.537018 515.923584,464.509308 518.712708,463.367096 
	C520.337646,462.701660 521.754333,460.967957 521.834839,459.083954 
	C522.095093,452.995575 527.027161,451.261169 531.036255,448.463165 
	C537.448975,443.987610 543.505676,443.703796 549.858459,448.628143 
	C552.849548,450.946655 556.186462,452.967987 559.643433,454.498993 
	C564.065735,456.457581 565.087463,459.800049 564.971252,464.102295 
	C564.859070,468.256592 564.559326,472.462372 565.039612,476.563843 
	C565.903564,483.941376 563.161865,488.659424 556.505005,492.078003 
	C536.943298,502.123779 544.287109,502.759705 523.693359,491.647736 
	C517.709778,488.419067 514.537048,484.329254 515.767151,476.941986 
z"/>
<path fill="#F8E7F1" opacity="1.000000" stroke="none" 
	d="
M494.793396,476.615540 
	C499.392059,479.924713 503.562988,483.204895 507.839294,486.341461 
	C509.382477,487.473358 510.777679,488.748199 511.094727,490.573975 
	C512.165894,496.742676 513.075500,502.941254 513.928284,509.144714 
	C514.129761,510.610443 513.293091,511.570404 511.707977,511.936646 
	C503.129944,513.918457 494.564911,515.878113 485.663788,514.237183 
	C477.473938,512.727417 474.308319,508.978424 476.363861,501.098694 
	C479.073944,490.709900 485.424194,482.541473 494.793396,476.615540 
z"/>
<path fill="#FAEBF4" opacity="1.000000" stroke="none" 
	d="
M578.702148,430.185974 
	C586.173706,430.298035 593.632263,428.327667 601.033936,431.860779 
	C601.452515,432.124512 601.472168,432.310547 601.769287,432.538147 
	C606.715454,437.520081 605.491821,442.835510 602.979370,448.184662 
	C599.484070,455.626434 594.347839,461.834930 588.160645,467.654541 
	C587.629517,468.293671 587.210327,468.471893 586.356934,468.413757 
	C584.748596,467.345642 583.495178,466.327667 581.916260,465.183472 
	C581.564392,464.873779 581.538025,464.690216 581.234741,464.480194 
	C580.156128,463.720398 579.354492,462.987030 578.247131,462.137024 
	C577.802368,461.850403 577.663391,461.680450 577.232727,461.357849 
	C576.533875,460.817780 576.126831,460.430420 575.435547,459.982788 
	C574.576355,459.529297 574.059631,459.058075 573.179321,458.495483 
	C572.878967,458.319550 572.752563,458.101837 572.627319,458.114136 
	C572.515686,457.937622 572.529358,457.748779 572.273132,457.648132 
	C571.120117,456.490936 569.610474,455.624390 569.486206,453.466125 
	C568.767395,451.486328 569.326172,449.668091 568.440369,447.740448 
	C567.280029,443.032837 568.582275,439.450348 571.856445,436.095276 
	C572.087402,435.677002 572.270142,435.625732 572.334351,435.315552 
	C572.897461,433.947388 573.579102,432.838104 574.577393,431.489990 
	C576.110596,431.042114 577.265320,430.566772 578.702148,430.185974 
z"/>
<path fill="#F8E7F1" opacity="1.000000" stroke="none" 
	d="
M558.544800,423.569000 
	C557.284668,425.312683 555.703979,426.490234 555.107544,428.808472 
	C554.890076,429.250671 554.716980,429.336853 554.581421,429.710693 
	C553.598877,431.788330 552.667908,433.660919 550.203003,434.632538 
	C549.711975,434.749817 549.547974,434.651062 549.227173,434.792847 
	C548.283264,435.254028 547.392151,435.307556 546.726257,435.722504 
	C542.580933,438.305847 538.603271,438.638916 534.176514,436.020325 
	C531.070435,434.182953 527.526794,433.001251 524.065247,431.874786 
	C521.162964,430.930328 520.537109,429.121979 521.212036,426.514862 
	C523.218384,418.765167 525.809631,411.224731 530.701355,404.772552 
	C537.297974,396.071503 544.336060,396.353394 550.675293,405.382843 
	C551.153076,406.063385 551.566895,406.788788 552.282104,407.727905 
	C552.539185,408.144318 552.524597,408.326202 552.781128,408.471191 
	C554.634277,412.442352 556.216248,416.450378 558.079468,420.732239 
	C558.492554,421.734009 558.485596,422.470093 558.544800,423.569000 
z"/>
<path fill="#F8E7F1" opacity="1.000000" stroke="none" 
	d="
M533.823181,543.364258 
	C526.643372,536.114807 523.687988,527.163025 521.167847,518.017517 
	C520.387878,515.187012 521.302979,513.274719 524.396484,512.377747 
	C527.079773,511.599670 529.752930,510.566986 532.193970,509.218536 
	C537.364563,506.362244 542.164185,506.338745 547.681763,508.853363 
	C556.050415,512.667480 559.592651,520.949829 555.692444,529.488525 
	C553.766602,533.704834 551.933716,537.956848 548.765076,541.436035 
	C543.618103,547.087341 540.617554,547.523926 533.823181,543.364258 
z"/>
<path fill="#F8E7F1" opacity="1.000000" stroke="none" 
	d="
M602.282227,494.886505 
	C604.208557,497.581757 604.565857,500.479736 605.148865,503.180634 
	C606.122437,507.691559 602.696472,512.567871 597.996399,513.734375 
	C590.724243,515.539185 583.421692,514.466248 576.140808,513.651550 
	C575.515503,513.581604 574.596619,513.316467 574.377625,512.867188 
	C571.968933,507.927795 567.784302,504.426697 568.285950,497.430786 
	C569.123779,485.745026 579.170349,483.336670 585.226440,476.958679 
	C586.608643,475.502960 588.244873,476.513794 589.505676,477.928589 
	C594.148010,483.138031 598.975586,488.198639 602.282227,494.886505 
z"/>
<path fill="#F8E7F1" opacity="1.000000" stroke="none" 
	d="
M497.141968,466.262146 
	C495.058380,468.602661 493.209167,468.532532 491.365845,466.583771 
	C485.748779,460.645386 480.429779,454.475372 477.200134,446.839661 
	C473.103302,437.153809 477.546814,430.397644 488.069275,429.778748 
	C495.459900,429.344025 502.651520,430.281525 509.801086,431.936127 
	C513.065857,432.691650 514.936096,434.576294 513.704529,438.014771 
	C512.263550,442.037781 513.177979,447.298767 507.283356,449.107117 
	C505.039856,449.795410 503.183990,452.931091 503.609436,455.205017 
	C504.676392,460.907471 501.018555,463.310669 497.141968,466.262146 
z"/>
<path fill="#E6C7DA" opacity="1.000000" stroke="none" 
	d="
M526.846008,506.893890 
	C519.034119,510.305969 518.284180,509.900116 517.556030,501.503662 
	C517.351562,499.146423 515.685059,496.000458 517.952515,494.534454 
	C520.291504,493.022247 522.136475,496.332489 524.351624,497.198151 
	C526.180359,497.912811 527.915527,498.935303 529.567383,500.012665 
	C530.873230,500.864380 532.941101,501.284027 532.842773,503.300354 
	C532.750549,505.192047 530.663574,505.016388 529.462646,505.750092 
	C528.763855,506.177002 527.967590,506.444336 526.846008,506.893890 
z"/>
<path fill="#E6C7DA" opacity="1.000000" stroke="none" 
	d="
M510.067993,465.347015 
	C510.404694,470.007935 510.555756,474.319397 510.666595,478.631836 
	C510.691833,479.614410 510.833069,480.794678 509.834076,481.347839 
	C508.545990,482.061096 507.698853,480.914612 506.820923,480.234863 
	C505.375153,479.115540 503.886047,478.025177 502.591644,476.744293 
	C500.969025,475.138519 497.727386,474.347809 499.166351,470.977966 
	C500.480225,467.901031 506.984619,464.346283 510.067993,465.347015 
z"/>
<path fill="#E6C7DA" opacity="1.000000" stroke="none" 
	d="
M580.363525,475.180725 
	C577.745911,477.257202 575.428101,479.126068 573.007385,480.850586 
	C571.118286,482.196350 569.890686,481.742279 569.872314,479.262451 
	C569.838013,474.636200 569.850403,470.009583 569.843201,465.383118 
	C569.839966,463.311340 570.835083,462.591064 572.650940,463.592102 
	C576.006531,465.441986 578.832153,468.009399 581.475037,470.741852 
	C583.053040,472.373383 582.002563,473.742188 580.363525,475.180725 
z"/>
<path fill="#E6C7DA" opacity="1.000000" stroke="none" 
	d="
M528.249512,445.165649 
	C527.201111,445.759491 526.505981,446.258789 525.730469,446.509216 
	C523.224731,447.318481 521.180908,451.403107 518.045166,447.861450 
	C516.488342,446.103027 517.772156,437.616821 519.460815,435.994110 
	C520.554993,434.942657 521.519592,435.361633 522.613281,435.823364 
	C524.432922,436.591614 526.328186,437.201324 528.087952,438.084412 
	C529.616516,438.851501 532.018005,438.606201 532.325867,440.963043 
	C532.677734,443.656464 529.982056,443.766785 528.249512,445.165649 
z"/>
<path fill="#E6C7DA" opacity="1.000000" stroke="none" 
	d="
M552.854980,438.082214 
	C558.861023,437.287415 565.085449,443.601196 564.242065,449.025482 
	C563.870850,451.413086 562.688599,451.149109 561.159485,450.250458 
	C558.030029,448.411224 554.868774,446.620819 551.806519,444.674988 
	C550.396851,443.779236 547.912415,443.664368 548.298340,441.140167 
	C548.646484,438.862946 550.888611,438.896271 552.854980,438.082214 
z"/>
<path fill="#E6C7DA" opacity="1.000000" stroke="none" 
	d="
M563.150513,500.871429 
	C559.492737,506.686005 555.264221,507.894348 550.206116,505.358978 
	C547.011841,503.757904 547.600647,502.252533 549.963135,500.817169 
	C554.299927,498.182312 558.783508,495.789062 563.626160,493.058014 
	C564.608154,495.923279 564.261902,498.214203 563.150513,500.871429 
z"/>
<path fill="#E6C7DA" opacity="1.000000" stroke="none" 
	d="
M567.442505,435.026062 
	C561.978149,438.087646 559.029968,436.905548 558.895874,432.104523 
	C558.806946,428.918213 560.677795,427.315002 563.380127,427.215363 
	C566.047058,427.117035 568.264832,428.403412 567.992065,431.742615 
	C567.911316,432.731079 567.776123,433.715118 567.442505,435.026062 
z"/>
<path fill="#E6C7DA" opacity="1.000000" stroke="none" 
	d="
M566.231567,508.717651 
	C568.447754,510.193665 568.068665,512.152527 567.917114,513.916687 
	C567.690613,516.553101 565.868835,517.552734 563.423096,517.593872 
	C561.107666,517.632874 559.581543,516.425476 559.078735,514.241882 
	C558.513184,511.785858 558.948425,509.602692 561.553772,508.366119 
	C563.054199,507.653961 564.455688,507.862396 566.231567,508.717651 
z"/>
<path fill="#E6C7DA" opacity="1.000000" stroke="none" 
	d="
M511.530823,451.403107 
	C515.769226,450.991241 517.943787,452.524536 517.659973,456.660095 
	C517.446289,459.773254 515.414856,460.926239 512.633972,460.908722 
	C510.905975,460.897858 509.391693,460.111328 508.837067,458.290894 
	C507.986755,455.499786 508.335999,453.055695 511.530823,451.403107 
z"/>
<path fill="#61495C" opacity="1.000000" stroke="none" 
	d="
M568.296265,447.769623 
	C570.111023,448.737396 569.478821,450.653442 569.485229,452.742218 
	C567.255310,451.859283 568.181091,449.898560 568.296265,447.769623 
z"/>
<path fill="#61495C" opacity="1.000000" stroke="none" 
	d="
M578.582214,429.899963 
	C577.994141,430.972595 576.827820,431.433868 575.190552,431.380981 
	C575.594055,429.778778 576.975830,429.932556 578.582214,429.899963 
z"/>
<path fill="#61495C" opacity="1.000000" stroke="none" 
	d="
M572.960571,458.623596 
	C573.815002,458.161469 574.433594,458.663391 575.062805,459.624939 
	C574.211975,460.091949 573.520386,459.735962 572.960571,458.623596 
z"/>
<path fill="#61495C" opacity="1.000000" stroke="none" 
	d="
M558.782104,423.720764 
	C558.484802,423.202179 558.369812,422.471924 558.307861,421.373840 
	C559.303711,421.661499 559.194397,422.570740 558.782104,423.720764 
z"/>
<path fill="#61495C" opacity="1.000000" stroke="none" 
	d="
M586.171997,468.583008 
	C586.431885,468.225677 586.861877,468.087738 587.630737,467.939514 
	C587.752197,468.826416 587.207092,469.112671 586.171997,468.583008 
z"/>
<path fill="#61495C" opacity="1.000000" stroke="none" 
	d="
M553.026611,408.306885 
	C553.052368,408.434326 552.729431,408.525970 552.729431,408.525970 
	C552.729431,408.525970 552.488403,408.292480 552.521057,408.127441 
	C552.748169,407.941162 552.897217,408.013489 553.026611,408.306885 
z"/>
<path fill="#61495C" opacity="1.000000" stroke="none" 
	d="
M554.770630,429.911041 
	C554.397827,429.739655 554.415710,429.498779 554.867920,429.220062 
	C555.140991,429.410858 555.093994,429.630646 554.770630,429.911041 
z"/>
<path fill="#61495C" opacity="1.000000" stroke="none" 
	d="
M602.014404,432.417053 
	C601.760742,432.664612 601.547424,432.575562 601.419800,432.125519 
	C601.679260,431.933594 601.862305,432.038879 602.014404,432.417053 
z"/>
<path fill="#61495C" opacity="1.000000" stroke="none" 
	d="
M549.215210,435.083374 
	C549.121704,434.739075 549.296509,434.599640 549.735352,434.731812 
	C549.758667,435.042297 549.586731,435.137238 549.215210,435.083374 
z"/>
<path fill="#61495C" opacity="1.000000" stroke="none" 
	d="
M572.095825,435.127777 
	C572.215759,435.056671 572.443054,435.349457 572.443054,435.349457 
	C572.443054,435.349457 572.274109,435.679474 572.089355,435.703888 
	C571.820435,435.537292 571.844238,435.360840 572.095825,435.127777 
z"/>
<path fill="#61495C" opacity="1.000000" stroke="none" 
	d="
M580.994324,464.613739 
	C581.253723,464.301056 581.481934,464.370483 581.616577,464.859680 
	C581.346558,465.076324 581.159973,464.981781 580.994324,464.613739 
z"/>
<path fill="#61495C" opacity="1.000000" stroke="none" 
	d="
M572.037964,457.851135 
	C572.003174,457.736328 572.298828,457.606812 572.298828,457.606812 
	C572.298828,457.606812 572.552246,457.806610 572.527100,457.966553 
	C572.502014,458.126465 572.072754,457.965973 572.037964,457.851135 
z"/>
<path fill="#61495C" opacity="1.000000" stroke="none" 
	d="
M577.020508,461.429443 
	C577.303467,461.133362 577.590210,461.249115 577.871338,461.786438 
	C577.593445,462.052917 577.312988,461.930695 577.020508,461.429443 
z"/>
<path fill="#F8E7F1" opacity="1.000000" stroke="none" 
	d="
M491.426392,624.771301 
	C485.458588,618.340820 483.782257,608.519653 487.594421,601.325928 
	C489.668854,597.411438 492.702026,594.559570 497.818237,594.582947 
	C502.965332,594.606506 506.911255,596.078857 509.174683,600.963196 
	C511.993530,607.046082 511.979736,613.375366 509.638641,619.382263 
	C506.993835,626.168457 499.172638,629.410767 491.426392,624.771301 
z"/>
<path fill="#F8E7F1" opacity="1.000000" stroke="none" 
	d="
M546.147766,599.274292 
	C545.906250,595.802551 547.264771,594.585510 550.274231,594.888000 
	C552.082642,595.069641 553.926453,594.864624 555.749329,594.945435 
	C560.933289,595.175171 563.066162,597.352234 563.017822,602.271362 
	C562.970398,607.096863 561.092529,609.213562 556.011108,609.284790 
	C544.282959,609.449219 546.366882,610.575806 546.147766,599.274292 
z"/>
<path fill="#E6C7DA" opacity="1.000000" stroke="none" 
	d="
M655.658875,610.762695 
	C655.909912,612.981140 657.515076,615.572021 654.560242,616.133606 
	C651.718262,616.673828 648.613708,617.089417 645.792236,615.623962 
	C645.481567,615.462585 645.207520,614.663208 645.335022,614.311340 
	C647.091553,609.460510 647.699585,604.086426 651.626709,599.580261 
	C653.052795,603.548950 654.277283,606.956726 655.658875,610.762695 
z"/>
<path fill="#B991AC" opacity="1.000000" stroke="none" 
	d="
M576.612732,676.837402 
	C576.917664,678.529846 577.600525,680.171082 575.572083,680.720154 
	C575.204102,680.819763 574.300964,680.182129 574.179993,679.738831 
	C573.675842,677.891235 574.185059,676.562683 576.612732,676.837402 
z"/>
<path fill="#B991AC" opacity="1.000000" stroke="none" 
	d="
M485.934509,678.182434 
	C487.052917,676.934875 488.112000,676.377563 488.745697,678.008179 
	C489.164642,679.086182 489.150482,680.462219 487.630890,680.742188 
	C486.023926,681.038330 485.832367,679.765991 485.934509,678.182434 
z"/>
<path fill="#F8E7F1" opacity="1.000000" stroke="none" 
	d="
M411.551147,675.912720 
	C411.599030,676.545654 411.335327,676.994446 411.024231,677.993896 
	C411.040894,678.720337 411.104980,678.896118 411.291046,679.314575 
	C411.442963,679.731812 411.472931,679.906372 411.316010,680.269653 
	C411.147614,680.883301 411.166107,681.308167 411.270691,681.925415 
	C410.230042,683.113159 409.933899,685.534973 407.732635,684.678528 
	C405.984985,683.998596 404.803162,682.573059 404.724213,680.502075 
	C404.648407,678.513855 404.342896,676.502380 405.758484,674.361206 
	C408.125854,673.450317 409.926025,673.836487 411.551147,675.912720 
z"/>
<path fill="#E6C7DA" opacity="1.000000" stroke="none" 
	d="
M472.715637,677.470581 
	C471.474884,677.389282 470.597046,677.245911 469.276733,677.146118 
	C468.834229,677.189758 468.848816,677.167175 468.838318,677.167114 
	C468.813843,676.827942 468.670837,676.556885 468.281677,676.148499 
	C468.256165,675.392273 468.347809,674.841370 468.669617,674.118408 
	C470.248840,673.989624 471.597870,674.033020 473.350403,674.100159 
	C473.781952,675.270813 474.539551,676.567749 472.715637,677.470581 
z"/>
<path fill="#E6C7DA" opacity="1.000000" stroke="none" 
	d="
M644.891541,677.738464 
	C643.976135,677.821960 643.319946,677.827637 642.341919,677.905884 
	C640.522095,677.307312 640.736938,676.054565 641.119263,674.474731 
	C642.354492,674.060791 643.412781,673.977051 644.864075,673.812012 
	C646.043457,673.991150 646.662598,674.406250 646.728149,675.622681 
	C646.635925,676.127502 646.548889,676.337830 646.270264,676.830811 
	C645.769409,677.295776 645.460083,677.478210 644.891541,677.738464 
z"/>
<path fill="#B991AC" opacity="1.000000" stroke="none" 
	d="
M468.077087,676.216431 
	C468.387329,676.181580 468.610138,676.420105 468.830383,676.912781 
	C468.548431,676.941223 468.269073,676.715454 468.077087,676.216431 
z"/>
<path fill="#B991AC" opacity="1.000000" stroke="none" 
	d="
M646.326172,677.013062 
	C646.083374,676.788391 646.184143,676.496643 646.552002,676.077637 
	C646.673218,676.249023 646.623474,676.580933 646.326172,677.013062 
z"/>
<path fill="#61495C" opacity="1.000000" stroke="none" 
	d="
M411.497437,680.280640 
	C411.129120,680.458374 410.779694,680.479004 410.640503,680.372925 
	C410.346130,679.728333 410.350739,679.191284 410.739136,678.312439 
	C410.963257,677.969360 410.978271,677.982727 410.975098,677.972168 
	C411.513794,678.162964 412.055664,678.364258 412.804749,678.766357 
	C412.629913,679.345703 412.247833,679.724304 411.497437,680.280640 
z"/>
<path fill="#B991AC" opacity="1.000000" stroke="none" 
	d="
M410.664764,677.936523 
	C410.933685,678.497864 410.904083,679.026367 410.687927,679.910828 
	C408.976288,679.563721 408.718719,678.788147 410.664764,677.936523 
z"/>
</svg>