<svg width="288" height="255" viewBox="0 0 288 255" fill="none" xmlns="http://www.w3.org/2000/svg">
<path d="M140.659 62.9699C142.68 61.6152 145.32 61.6152 147.341 62.9699L285.341 153.493C288.886 155.87 288.886 161.084 285.341 163.461L147.341 253.984C145.32 255.339 142.68 255.339 140.659 253.984L2.65928 163.461C-0.88642 161.084 -0.886431 155.87 2.65927 153.493L140.659 62.9699Z" fill="#FFA629"/>
<rect y="93.8887" width="288" height="66.4247" rx="6" fill="#FFA629"/>
<path d="M140.659 1.01607C142.68 -0.338689 145.32 -0.338691 147.341 1.01607L285.341 91.5391C288.886 93.9158 288.886 99.1303 285.341 101.507L147.341 192.03C145.32 193.385 142.68 193.385 140.659 192.03L2.65928 101.507C-0.88642 99.1303 -0.886431 93.9158 2.65927 91.5391L140.659 1.01607Z" fill="#FCD19C"/>
<path d="M54.938 94V75.0909H62.3982C63.8324 75.0909 65.0543 75.3648 66.0637 75.9126C67.0732 76.4543 67.8426 77.2083 68.372 78.1747C68.9075 79.1349 69.1752 80.2429 69.1752 81.4986C69.1752 82.7543 68.9044 83.8622 68.3627 84.8224C67.8211 85.7827 67.0363 86.5305 66.0083 87.0661C64.9865 87.6016 63.7493 87.8693 62.2967 87.8693H57.5417V84.6655H61.6504C62.4198 84.6655 63.0538 84.5331 63.5524 84.2685C64.0571 83.9976 64.4326 83.6252 64.6788 83.1513C64.9311 82.6712 65.0573 82.1203 65.0573 81.4986C65.0573 80.8707 64.9311 80.3229 64.6788 79.8551C64.4326 79.3812 64.0571 79.0149 63.5524 78.7564C63.0476 78.4917 62.4075 78.3594 61.6319 78.3594H58.9359V94H54.938ZM75.3454 75.0909V94H71.4121V75.0909H75.3454ZM82.2542 94.2678C81.3493 94.2678 80.543 94.1108 79.8351 93.7969C79.1273 93.4768 78.5671 93.0059 78.1547 92.3842C77.7485 91.7564 77.5453 90.9747 77.5453 90.0391C77.5453 89.2512 77.69 88.5895 77.9793 88.054C78.2686 87.5185 78.6625 87.0876 79.1611 86.7614C79.6597 86.4351 80.226 86.1889 80.86 86.0227C81.5001 85.8565 82.1711 85.7396 82.8728 85.6719C83.6976 85.5857 84.3623 85.5057 84.8671 85.4318C85.3718 85.3518 85.7381 85.2348 85.9658 85.081C86.1935 84.9271 86.3074 84.6993 86.3074 84.3977V84.3423C86.3074 83.7576 86.1228 83.3052 85.7534 82.9851C85.3903 82.665 84.8732 82.505 84.2023 82.505C83.4944 82.505 82.9312 82.6619 82.5127 82.9759C82.0941 83.2836 81.8171 83.6714 81.6817 84.1392L78.0439 83.8438C78.2286 82.982 78.5917 82.2372 79.1334 81.6094C79.6751 80.9754 80.3737 80.4891 81.2293 80.1506C82.091 79.8059 83.0882 79.6335 84.2208 79.6335C85.0087 79.6335 85.7627 79.7259 86.4828 79.9105C87.2092 80.0952 87.8524 80.3814 88.4125 80.7692C88.9788 81.157 89.4251 81.6555 89.7513 82.2649C90.0775 82.8681 90.2407 83.5914 90.2407 84.4347V94H86.5105V92.0334H86.3998C86.172 92.4766 85.8673 92.8674 85.4857 93.206C85.1041 93.5384 84.6455 93.8 84.11 93.9908C83.5745 94.1754 82.9559 94.2678 82.2542 94.2678ZM83.3806 91.5533C83.9592 91.5533 84.4701 91.4394 84.9132 91.2116C85.3564 90.9777 85.7042 90.6638 85.9566 90.2699C86.2089 89.8759 86.3351 89.4297 86.3351 88.9311V87.4261C86.212 87.5062 86.0427 87.58 85.8273 87.6477C85.618 87.7093 85.381 87.7678 85.1164 87.8232C84.8517 87.8724 84.587 87.9186 84.3223 87.9616C84.0577 87.9986 83.8176 88.0324 83.6022 88.0632C83.1405 88.1309 82.7373 88.2386 82.3926 88.3864C82.048 88.5341 81.7802 88.7341 81.5894 88.9865C81.3986 89.2327 81.3032 89.5405 81.3032 89.9098C81.3032 90.4453 81.4971 90.8546 81.8848 91.1378C82.2788 91.4148 82.7774 91.5533 83.3806 91.5533ZM100.549 79.8182V82.7727H92.009V79.8182H100.549ZM93.9479 76.4205H97.8811V89.642C97.8811 90.0052 97.9365 90.2884 98.0473 90.4915C98.1581 90.6884 98.312 90.8269 98.509 90.907C98.7121 90.987 98.946 91.027 99.2107 91.027C99.3954 91.027 99.58 91.0116 99.7647 90.9808C99.9493 90.9439 100.091 90.9162 100.189 90.8977L100.808 93.8246C100.611 93.8861 100.334 93.9569 99.977 94.0369C99.62 94.1231 99.1861 94.1754 98.6752 94.1939C97.7273 94.2308 96.8963 94.1046 96.1823 93.8153C95.4744 93.526 94.9235 93.0767 94.5296 92.4673C94.1356 91.858 93.9418 91.0885 93.9479 90.1591V76.4205ZM110.452 79.8182V82.7727H101.699V79.8182H110.452ZM103.703 94V78.7933C103.703 77.7654 103.903 76.9129 104.303 76.2358C104.709 75.5587 105.263 75.0509 105.965 74.7124C106.667 74.3738 107.464 74.2045 108.356 74.2045C108.959 74.2045 109.51 74.2507 110.009 74.343C110.514 74.4354 110.889 74.5185 111.135 74.5923L110.434 77.5469C110.28 77.4976 110.089 77.4515 109.861 77.4084C109.64 77.3653 109.412 77.3438 109.178 77.3438C108.599 77.3438 108.196 77.4792 107.968 77.75C107.741 78.0147 107.627 78.3871 107.627 78.8672V94H103.703ZM118.469 94.277C117.035 94.277 115.794 93.9723 114.748 93.3629C113.708 92.7474 112.904 91.8918 112.338 90.7962C111.772 89.6944 111.489 88.4171 111.489 86.9645C111.489 85.4995 111.772 84.2192 112.338 83.1236C112.904 82.0218 113.708 81.1662 114.748 80.5568C115.794 79.9413 117.035 79.6335 118.469 79.6335C119.903 79.6335 121.14 79.9413 122.18 80.5568C123.227 81.1662 124.033 82.0218 124.599 83.1236C125.166 84.2192 125.449 85.4995 125.449 86.9645C125.449 88.4171 125.166 89.6944 124.599 90.7962C124.033 91.8918 123.227 92.7474 122.18 93.3629C121.14 93.9723 119.903 94.277 118.469 94.277ZM118.487 91.2301C119.14 91.2301 119.684 91.0455 120.121 90.6761C120.558 90.3007 120.888 89.7898 121.109 89.1435C121.337 88.4972 121.451 87.7616 121.451 86.9368C121.451 86.112 121.337 85.3764 121.109 84.7301C120.888 84.0838 120.558 83.5729 120.121 83.1974C119.684 82.822 119.14 82.6342 118.487 82.6342C117.829 82.6342 117.275 82.822 116.825 83.1974C116.382 83.5729 116.047 84.0838 115.819 84.7301C115.597 85.3764 115.487 86.112 115.487 86.9368C115.487 87.7616 115.597 88.4972 115.819 89.1435C116.047 89.7898 116.382 90.3007 116.825 90.6761C117.275 91.0455 117.829 91.2301 118.487 91.2301ZM127.72 94V79.8182H131.534V82.2926H131.681C131.94 81.4124 132.374 80.7476 132.983 80.2983C133.593 79.8428 134.294 79.6151 135.088 79.6151C135.285 79.6151 135.498 79.6274 135.725 79.652C135.953 79.6766 136.153 79.7105 136.326 79.7536V83.2436C136.141 83.1882 135.885 83.139 135.559 83.0959C135.233 83.0528 134.934 83.0312 134.664 83.0312C134.085 83.0312 133.568 83.1574 133.112 83.4098C132.663 83.656 132.306 84.0007 132.041 84.4439C131.783 84.8871 131.654 85.398 131.654 85.9766V94H127.72ZM138.073 94V79.8182H141.822V82.3203H141.988C142.283 81.4893 142.776 80.8338 143.465 80.3537C144.155 79.8736 144.979 79.6335 145.94 79.6335C146.912 79.6335 147.74 79.8767 148.423 80.3629C149.106 80.843 149.562 81.4955 149.79 82.3203H149.937C150.227 81.5078 150.75 80.8584 151.507 80.3722C152.27 79.8797 153.172 79.6335 154.212 79.6335C155.536 79.6335 156.61 80.0552 157.435 80.8984C158.266 81.7356 158.681 82.9235 158.681 84.4624V94H154.757V85.2379C154.757 84.45 154.548 83.8591 154.129 83.4652C153.711 83.0713 153.187 82.8743 152.56 82.8743C151.846 82.8743 151.289 83.102 150.888 83.5575C150.488 84.0069 150.288 84.6009 150.288 85.3395V94H146.475V85.1548C146.475 84.4593 146.275 83.9053 145.875 83.4929C145.481 83.0805 144.961 82.8743 144.315 82.8743C143.878 82.8743 143.484 82.9851 143.133 83.2067C142.788 83.4221 142.514 83.7268 142.311 84.1207C142.108 84.5085 142.006 84.964 142.006 85.4872V94H138.073ZM170.567 94H166.283L172.81 75.0909H177.962L184.481 94H180.197L175.46 79.4119H175.312L170.567 94ZM170.299 86.5675H180.418V89.6882H170.299V86.5675ZM197.866 83.8622L194.266 84.0838C194.204 83.776 194.072 83.4991 193.868 83.2528C193.665 83.0005 193.398 82.8004 193.065 82.6527C192.739 82.4988 192.348 82.4219 191.893 82.4219C191.283 82.4219 190.769 82.5511 190.351 82.8097C189.932 83.062 189.723 83.4006 189.723 83.8253C189.723 84.1638 189.858 84.45 190.129 84.6839C190.4 84.9179 190.865 85.1056 191.523 85.2472L194.09 85.7642C195.469 86.0473 196.497 86.5028 197.174 87.1307C197.851 87.7585 198.19 88.5833 198.19 89.6051C198.19 90.5346 197.916 91.3501 197.368 92.0518C196.826 92.7536 196.081 93.3014 195.133 93.6953C194.192 94.0831 193.105 94.277 191.874 94.277C189.997 94.277 188.501 93.8861 187.387 93.1044C186.279 92.3165 185.63 91.2455 185.439 89.8913L189.307 89.6882C189.424 90.2607 189.708 90.6977 190.157 90.9993C190.606 91.2947 191.182 91.4425 191.883 91.4425C192.573 91.4425 193.127 91.3101 193.545 91.0455C193.97 90.7746 194.185 90.4268 194.192 90.0021C194.185 89.6451 194.035 89.3527 193.739 89.125C193.444 88.8911 192.988 88.7126 192.373 88.5895L189.917 88.1001C188.532 87.8232 187.501 87.343 186.824 86.6598C186.153 85.9766 185.817 85.1056 185.817 84.0469C185.817 83.1359 186.064 82.3511 186.556 81.6925C187.055 81.0339 187.753 80.526 188.652 80.169C189.557 79.812 190.615 79.6335 191.828 79.6335C193.619 79.6335 195.029 80.0121 196.057 80.7692C197.091 81.5263 197.694 82.5573 197.866 83.8622ZM209.445 94H205.161L211.689 75.0909H216.841L223.359 94H219.075L214.338 79.4119H214.191L209.445 94ZM209.177 86.5675H219.296V89.6882H209.177V86.5675ZM102.877 119.529C102.804 118.784 102.487 118.206 101.926 117.793C101.366 117.381 100.606 117.175 99.6459 117.175C98.9934 117.175 98.4425 117.267 97.9932 117.452C97.5439 117.63 97.1992 117.879 96.9591 118.2C96.7252 118.52 96.6083 118.883 96.6083 119.289C96.596 119.628 96.6667 119.923 96.8206 120.175C96.9807 120.428 97.1992 120.646 97.4762 120.831C97.7532 121.009 98.0732 121.166 98.4364 121.302C98.7996 121.431 99.1873 121.542 99.5997 121.634L101.299 122.04C102.123 122.225 102.881 122.471 103.57 122.779C104.259 123.087 104.856 123.465 105.361 123.915C105.866 124.364 106.257 124.893 106.534 125.503C106.817 126.112 106.961 126.811 106.968 127.599C106.961 128.756 106.666 129.759 106.081 130.609C105.503 131.452 104.666 132.107 103.57 132.575C102.48 133.037 101.166 133.268 99.6274 133.268C98.1009 133.268 96.7714 133.034 95.6388 132.566C94.5124 132.098 93.6322 131.406 92.9982 130.489C92.3703 129.565 92.041 128.424 92.0103 127.063H95.8789C95.922 127.697 96.1035 128.227 96.4236 128.651C96.7498 129.07 97.1838 129.387 97.7255 129.602C98.2733 129.812 98.8919 129.916 99.5813 129.916C100.258 129.916 100.846 129.818 101.345 129.621C101.85 129.424 102.24 129.15 102.517 128.799C102.794 128.448 102.933 128.045 102.933 127.589C102.933 127.165 102.807 126.808 102.554 126.518C102.308 126.229 101.945 125.983 101.465 125.78C100.991 125.577 100.409 125.392 99.7198 125.226L97.6608 124.709C96.0666 124.321 94.8078 123.715 93.8845 122.89C92.9613 122.065 92.5027 120.954 92.5088 119.557C92.5027 118.412 92.8074 117.412 93.4229 116.556C94.0446 115.701 94.8971 115.033 95.9804 114.553C97.0638 114.072 98.2948 113.832 99.6736 113.832C101.077 113.832 102.302 114.072 103.348 114.553C104.401 115.033 105.22 115.701 105.804 116.556C106.389 117.412 106.691 118.403 106.709 119.529H102.877ZM115.76 133.277C114.301 133.277 113.045 132.982 111.993 132.391C110.947 131.794 110.14 130.95 109.574 129.861C109.008 128.765 108.724 127.469 108.724 125.974C108.724 124.515 109.008 123.235 109.574 122.133C110.14 121.031 110.937 120.172 111.965 119.557C112.999 118.941 114.212 118.634 115.603 118.634C116.539 118.634 117.41 118.784 118.216 119.086C119.028 119.381 119.736 119.828 120.339 120.425C120.949 121.022 121.423 121.773 121.761 122.678C122.1 123.576 122.269 124.629 122.269 125.835V126.915H110.294V124.478H118.567C118.567 123.912 118.444 123.41 118.197 122.973C117.951 122.536 117.61 122.194 117.173 121.948C116.742 121.696 116.24 121.57 115.668 121.57C115.071 121.57 114.541 121.708 114.08 121.985C113.624 122.256 113.267 122.622 113.009 123.084C112.75 123.539 112.618 124.047 112.612 124.607V126.925C112.612 127.626 112.741 128.233 112.999 128.744C113.264 129.254 113.636 129.648 114.116 129.925C114.597 130.202 115.166 130.341 115.825 130.341C116.262 130.341 116.662 130.279 117.025 130.156C117.388 130.033 117.699 129.848 117.957 129.602C118.216 129.356 118.413 129.054 118.548 128.697L122.186 128.938C122.001 129.812 121.623 130.575 121.05 131.227C120.484 131.874 119.752 132.378 118.853 132.741C117.96 133.098 116.929 133.277 115.76 133.277ZM124.55 133V118.818H128.363V121.293H128.511C128.769 120.412 129.203 119.748 129.813 119.298C130.422 118.843 131.124 118.615 131.918 118.615C132.115 118.615 132.327 118.627 132.555 118.652C132.783 118.677 132.983 118.71 133.155 118.754V122.244C132.97 122.188 132.715 122.139 132.389 122.096C132.062 122.053 131.764 122.031 131.493 122.031C130.915 122.031 130.397 122.157 129.942 122.41C129.493 122.656 129.136 123.001 128.871 123.444C128.612 123.887 128.483 124.398 128.483 124.977V133H124.55ZM148.556 118.818L143.598 133H139.166L134.208 118.818H138.363L141.308 128.965H141.456L144.392 118.818H148.556ZM150.283 133V118.818H154.216V133H150.283ZM152.258 116.99C151.674 116.99 151.172 116.796 150.754 116.408C150.341 116.014 150.135 115.544 150.135 114.996C150.135 114.454 150.341 113.989 150.754 113.602C151.172 113.208 151.674 113.011 152.258 113.011C152.843 113.011 153.342 113.208 153.754 113.602C154.173 113.989 154.382 114.454 154.382 114.996C154.382 115.544 154.173 116.014 153.754 116.408C153.342 116.796 152.843 116.99 152.258 116.99ZM163.488 133.277C162.036 133.277 160.786 132.969 159.74 132.354C158.699 131.732 157.899 130.87 157.339 129.768C156.785 128.667 156.508 127.399 156.508 125.964C156.508 124.512 156.788 123.238 157.348 122.142C157.915 121.04 158.718 120.182 159.758 119.566C160.798 118.944 162.036 118.634 163.47 118.634C164.707 118.634 165.79 118.858 166.72 119.308C167.649 119.757 168.385 120.388 168.927 121.2C169.468 122.013 169.767 122.967 169.822 124.062H166.11C166.006 123.355 165.729 122.785 165.279 122.354C164.836 121.917 164.255 121.699 163.534 121.699C162.925 121.699 162.393 121.865 161.937 122.197C161.488 122.524 161.137 123.001 160.885 123.629C160.632 124.256 160.506 125.017 160.506 125.909C160.506 126.814 160.629 127.583 160.875 128.217C161.128 128.851 161.482 129.335 161.937 129.667C162.393 129.999 162.925 130.165 163.534 130.165C163.984 130.165 164.387 130.073 164.744 129.888C165.107 129.704 165.406 129.436 165.64 129.085C165.88 128.728 166.037 128.3 166.11 127.802H169.822C169.761 128.885 169.465 129.839 168.936 130.664C168.413 131.483 167.689 132.123 166.766 132.585C165.843 133.046 164.75 133.277 163.488 133.277ZM178.517 133.277C177.059 133.277 175.803 132.982 174.75 132.391C173.704 131.794 172.898 130.95 172.331 129.861C171.765 128.765 171.482 127.469 171.482 125.974C171.482 124.515 171.765 123.235 172.331 122.133C172.898 121.031 173.695 120.172 174.723 119.557C175.757 118.941 176.969 118.634 178.36 118.634C179.296 118.634 180.167 118.784 180.973 119.086C181.786 119.381 182.494 119.828 183.097 120.425C183.706 121.022 184.18 121.773 184.519 122.678C184.857 123.576 185.027 124.629 185.027 125.835V126.915H173.052V124.478H181.324C181.324 123.912 181.201 123.41 180.955 122.973C180.709 122.536 180.367 122.194 179.93 121.948C179.499 121.696 178.998 121.57 178.425 121.57C177.828 121.57 177.299 121.708 176.837 121.985C176.382 122.256 176.025 122.622 175.766 123.084C175.507 123.539 175.375 124.047 175.369 124.607V126.925C175.369 127.626 175.498 128.233 175.757 128.744C176.021 129.254 176.394 129.648 176.874 129.925C177.354 130.202 177.923 130.341 178.582 130.341C179.019 130.341 179.419 130.279 179.782 130.156C180.146 130.033 180.456 129.848 180.715 129.602C180.973 129.356 181.17 129.054 181.306 128.697L184.944 128.938C184.759 129.812 184.38 130.575 183.808 131.227C183.242 131.874 182.509 132.378 181.61 132.741C180.718 133.098 179.687 133.277 178.517 133.277Z" fill="#1E1E1E"/>
</svg>
