<svg width="288" height="255" viewBox="0 0 288 255" fill="none" xmlns="http://www.w3.org/2000/svg">
<path d="M140.659 62.9699C142.68 61.6152 145.32 61.6152 147.341 62.9699L285.341 153.493C288.886 155.87 288.886 161.084 285.341 163.461L147.341 253.984C145.32 255.339 142.68 255.339 140.659 253.984L2.65928 163.461C-0.88642 161.084 -0.886431 155.87 2.65927 153.493L140.659 62.9699Z" fill="#757575"/>
<rect y="93.8887" width="288" height="66.4247" rx="6" fill="#757575"/>
<path d="M140.659 1.01607C142.68 -0.338689 145.32 -0.338691 147.341 1.01607L285.341 91.5391C288.886 93.9158 288.886 99.1303 285.341 101.507L147.341 192.03C145.32 193.385 142.68 193.385 140.659 192.03L2.65928 101.507C-0.88642 99.1303 -0.886431 93.9158 2.65927 91.5391L140.659 1.01607Z" fill="#E6E6E6"/>
<path d="M94.7986 59.5291C94.7248 58.7843 94.4078 58.2057 93.8476 57.7933C93.2875 57.3809 92.5273 57.1747 91.5671 57.1747C90.9146 57.1747 90.3637 57.267 89.9144 57.4517C89.4651 57.6302 89.1204 57.8795 88.8803 58.1996C88.6464 58.5196 88.5295 58.8828 88.5295 59.2891C88.5171 59.6276 88.5879 59.9231 88.7418 60.1754C88.9018 60.4278 89.1204 60.6463 89.3974 60.831C89.6743 61.0095 89.9944 61.1664 90.3576 61.3018C90.7207 61.4311 91.1085 61.5419 91.5209 61.6342L93.2198 62.0405C94.0446 62.2251 94.8017 62.4714 95.4911 62.7791C96.1805 63.0869 96.7776 63.4654 97.2823 63.9148C97.787 64.3641 98.1779 64.8935 98.4549 65.5028C98.738 66.1122 98.8827 66.8108 98.8888 67.5987C98.8827 68.7559 98.5872 69.7592 98.0025 70.6087C97.4239 71.4519 96.5867 72.1075 95.4911 72.5753C94.4016 73.0369 93.0875 73.2678 91.5486 73.2678C90.0221 73.2678 88.6926 73.0339 87.56 72.5661C86.4336 72.0982 85.5534 71.4058 84.9194 70.4886C84.2915 69.5653 83.9622 68.4235 83.9314 67.0632H87.8C87.8431 67.6972 88.0247 68.2266 88.3448 68.6513C88.671 69.0698 89.105 69.3868 89.6466 69.6023C90.1945 69.8116 90.8131 69.9162 91.5025 69.9162C92.1795 69.9162 92.7674 69.8177 93.266 69.6207C93.7707 69.4238 94.1616 69.1499 94.4385 68.799C94.7155 68.4482 94.854 68.045 94.854 67.5895C94.854 67.1648 94.7278 66.8078 94.4755 66.5185C94.2293 66.2292 93.8661 65.983 93.386 65.7798C92.912 65.5767 92.3304 65.392 91.641 65.2259L89.582 64.7088C87.9878 64.321 86.729 63.7147 85.8057 62.8899C84.8824 62.0651 84.4239 60.9541 84.43 59.5568C84.4239 58.4119 84.7286 57.4117 85.3441 56.5561C85.9658 55.7005 86.8183 55.0327 87.9016 54.5526C88.9849 54.0724 90.216 53.8324 91.5948 53.8324C92.9982 53.8324 94.2231 54.0724 95.2695 54.5526C96.3221 55.0327 97.1407 55.7005 97.7255 56.5561C98.3102 57.4117 98.6118 58.4027 98.6303 59.5291H94.7986ZM108.761 58.8182V61.7727H100.221V58.8182H108.761ZM102.16 55.4205H106.093V68.642C106.093 69.0052 106.148 69.2884 106.259 69.4915C106.37 69.6884 106.524 69.8269 106.721 69.907C106.924 69.987 107.158 70.027 107.423 70.027C107.607 70.027 107.792 70.0116 107.977 69.9808C108.161 69.9439 108.303 69.9162 108.401 69.8977L109.02 72.8246C108.823 72.8861 108.546 72.9569 108.189 73.0369C107.832 73.1231 107.398 73.1754 106.887 73.1939C105.939 73.2308 105.108 73.1046 104.394 72.8153C103.686 72.526 103.135 72.0767 102.742 71.4673C102.348 70.858 102.154 70.0885 102.16 69.1591V55.4205ZM117.293 73.277C115.859 73.277 114.618 72.9723 113.572 72.3629C112.532 71.7474 111.728 70.8918 111.162 69.7962C110.596 68.6944 110.313 67.4171 110.313 65.9645C110.313 64.4995 110.596 63.2192 111.162 62.1236C111.728 61.0218 112.532 60.1662 113.572 59.5568C114.618 58.9413 115.859 58.6335 117.293 58.6335C118.727 58.6335 119.964 58.9413 121.005 59.5568C122.051 60.1662 122.857 61.0218 123.424 62.1236C123.99 63.2192 124.273 64.4995 124.273 65.9645C124.273 67.4171 123.99 68.6944 123.424 69.7962C122.857 70.8918 122.051 71.7474 121.005 72.3629C119.964 72.9723 118.727 73.277 117.293 73.277ZM117.311 70.2301C117.964 70.2301 118.509 70.0455 118.946 69.6761C119.383 69.3007 119.712 68.7898 119.933 68.1435C120.161 67.4972 120.275 66.7616 120.275 65.9368C120.275 65.112 120.161 64.3764 119.933 63.7301C119.712 63.0838 119.383 62.5729 118.946 62.1974C118.509 61.822 117.964 61.6342 117.311 61.6342C116.653 61.6342 116.099 61.822 115.649 62.1974C115.206 62.5729 114.871 63.0838 114.643 63.7301C114.421 64.3764 114.311 65.112 114.311 65.9368C114.311 66.7616 114.421 67.4972 114.643 68.1435C114.871 68.7898 115.206 69.3007 115.649 69.6761C116.099 70.0455 116.653 70.2301 117.311 70.2301ZM126.545 73V58.8182H130.358V61.2926H130.505C130.764 60.4124 131.198 59.7476 131.807 59.2983C132.417 58.8428 133.118 58.6151 133.912 58.6151C134.109 58.6151 134.322 58.6274 134.549 58.652C134.777 58.6766 134.977 58.7105 135.15 58.7536V62.2436C134.965 62.1882 134.71 62.139 134.383 62.0959C134.057 62.0528 133.759 62.0312 133.488 62.0312C132.909 62.0312 132.392 62.1574 131.937 62.4098C131.487 62.656 131.13 63.0007 130.866 63.4439C130.607 63.8871 130.478 64.398 130.478 64.9766V73H126.545ZM140.535 73.2678C139.63 73.2678 138.824 73.1108 138.116 72.7969C137.408 72.4768 136.848 72.0059 136.436 71.3842C136.029 70.7564 135.826 69.9747 135.826 69.0391C135.826 68.2512 135.971 67.5895 136.26 67.054C136.549 66.5185 136.943 66.0876 137.442 65.7614C137.94 65.4351 138.507 65.1889 139.141 65.0227C139.781 64.8565 140.452 64.7396 141.154 64.6719C141.978 64.5857 142.643 64.5057 143.148 64.4318C143.653 64.3518 144.019 64.2348 144.247 64.081C144.474 63.9271 144.588 63.6993 144.588 63.3977V63.3423C144.588 62.7576 144.404 62.3052 144.034 61.9851C143.671 61.665 143.154 61.505 142.483 61.505C141.775 61.505 141.212 61.6619 140.793 61.9759C140.375 62.2836 140.098 62.6714 139.963 63.1392L136.325 62.8438C136.509 61.982 136.873 61.2372 137.414 60.6094C137.956 59.9754 138.655 59.4891 139.51 59.1506C140.372 58.8059 141.369 58.6335 142.502 58.6335C143.289 58.6335 144.043 58.7259 144.764 58.9105C145.49 59.0952 146.133 59.3814 146.693 59.7692C147.26 60.157 147.706 60.6555 148.032 61.2649C148.358 61.8681 148.521 62.5914 148.521 63.4347V73H144.791V71.0334H144.681C144.453 71.4766 144.148 71.8674 143.766 72.206C143.385 72.5384 142.926 72.8 142.391 72.9908C141.855 73.1754 141.237 73.2678 140.535 73.2678ZM141.661 70.5533C142.24 70.5533 142.751 70.4394 143.194 70.2116C143.637 69.9777 143.985 69.6638 144.237 69.2699C144.49 68.8759 144.616 68.4297 144.616 67.9311V66.4261C144.493 66.5062 144.324 66.58 144.108 66.6477C143.899 66.7093 143.662 66.7678 143.397 66.8232C143.132 66.8724 142.868 66.9186 142.603 66.9616C142.338 66.9986 142.098 67.0324 141.883 67.0632C141.421 67.1309 141.018 67.2386 140.673 67.3864C140.329 67.5341 140.061 67.7341 139.87 67.9865C139.679 68.2327 139.584 68.5405 139.584 68.9098C139.584 69.4453 139.778 69.8546 140.166 70.1378C140.56 70.4148 141.058 70.5533 141.661 70.5533ZM157.676 78.6136C156.402 78.6136 155.309 78.4382 154.398 78.0874C153.494 77.7427 152.773 77.2718 152.238 76.6747C151.702 76.0777 151.355 75.4067 151.195 74.6619L154.832 74.1726C154.943 74.4557 155.119 74.7204 155.359 74.9666C155.599 75.2128 155.916 75.4098 156.31 75.5575C156.71 75.7114 157.196 75.7884 157.768 75.7884C158.624 75.7884 159.329 75.5791 159.883 75.1605C160.443 74.7481 160.723 74.0556 160.723 73.0831V70.4886H160.557C160.384 70.8826 160.126 71.255 159.781 71.6058C159.437 71.9567 158.993 72.2429 158.452 72.4645C157.91 72.6861 157.264 72.7969 156.513 72.7969C155.448 72.7969 154.478 72.5507 153.604 72.0582C152.737 71.5597 152.044 70.7995 151.527 69.7777C151.016 68.7498 150.761 67.451 150.761 65.8814C150.761 64.2749 151.022 62.933 151.545 61.8558C152.069 60.7786 152.764 59.9723 153.632 59.4368C154.506 58.9013 155.463 58.6335 156.504 58.6335C157.298 58.6335 157.962 58.7689 158.498 59.0398C159.033 59.3045 159.464 59.6368 159.791 60.0369C160.123 60.4309 160.378 60.8187 160.557 61.2003H160.705V58.8182H164.61V73.1385C164.61 74.3449 164.315 75.3544 163.724 76.1669C163.133 76.9794 162.314 77.5888 161.268 77.995C160.228 78.4074 159.03 78.6136 157.676 78.6136ZM157.759 69.8423C158.393 69.8423 158.929 69.6854 159.366 69.3714C159.809 69.0514 160.148 68.5959 160.381 68.005C160.621 67.4079 160.741 66.6939 160.741 65.8629C160.741 65.032 160.625 64.3118 160.391 63.7024C160.157 63.0869 159.818 62.6098 159.375 62.2713C158.932 61.9328 158.393 61.7635 157.759 61.7635C157.113 61.7635 156.568 61.9389 156.125 62.2898C155.682 62.6345 155.346 63.1146 155.119 63.7301C154.891 64.3456 154.777 65.0566 154.777 65.8629C154.777 66.6816 154.891 67.3894 155.119 67.9865C155.353 68.5774 155.688 69.036 156.125 69.3622C156.568 69.6823 157.113 69.8423 157.759 69.8423ZM173.917 73.277C172.458 73.277 171.203 72.9815 170.15 72.3906C169.104 71.7936 168.297 70.9503 167.731 69.8608C167.165 68.7652 166.882 67.4695 166.882 65.9737C166.882 64.5149 167.165 63.2346 167.731 62.1328C168.297 61.031 169.094 60.1723 170.122 59.5568C171.156 58.9413 172.369 58.6335 173.76 58.6335C174.696 58.6335 175.567 58.7843 176.373 59.0859C177.186 59.3814 177.893 59.8277 178.497 60.4247C179.106 61.0218 179.58 61.7727 179.919 62.6776C180.257 63.5762 180.426 64.6288 180.426 65.8352V66.9155H168.451V64.478H176.724C176.724 63.9117 176.601 63.41 176.355 62.973C176.108 62.536 175.767 62.1944 175.33 61.9482C174.899 61.6958 174.397 61.5696 173.825 61.5696C173.228 61.5696 172.698 61.7081 172.237 61.9851C171.781 62.2559 171.424 62.6222 171.166 63.0838C170.907 63.5393 170.775 64.0471 170.769 64.6072V66.9247C170.769 67.6264 170.898 68.2327 171.156 68.7436C171.421 69.2545 171.794 69.6484 172.274 69.9254C172.754 70.2024 173.323 70.3409 173.982 70.3409C174.419 70.3409 174.819 70.2794 175.182 70.1562C175.545 70.0331 175.856 69.8485 176.115 69.6023C176.373 69.3561 176.57 69.0545 176.705 68.6974L180.343 68.9375C180.159 69.8116 179.78 70.5748 179.208 71.2273C178.641 71.8736 177.909 72.3783 177.01 72.7415C176.118 73.0985 175.087 73.277 173.917 73.277ZM194.237 73.277C192.932 73.277 191.806 73.0431 190.858 72.5753C189.91 72.1075 189.18 71.4735 188.67 70.6733C188.165 69.867 187.912 68.9683 187.912 67.9773C187.912 67.2386 188.06 66.5831 188.356 66.0107C188.651 65.4382 189.063 64.9119 189.593 64.4318C190.122 63.9455 190.738 63.4624 191.439 62.9822L195.105 60.5724C195.579 60.2708 195.927 59.9538 196.148 59.6214C196.37 59.2829 196.481 58.9167 196.481 58.5227C196.481 58.1473 196.33 57.7995 196.028 57.4794C195.727 57.1593 195.299 57.0024 194.745 57.0085C194.376 57.0085 194.055 57.0916 193.785 57.2578C193.514 57.4179 193.301 57.6302 193.148 57.8949C193 58.1534 192.926 58.4427 192.926 58.7628C192.926 59.1567 193.037 59.5568 193.258 59.9631C193.48 60.3693 193.775 60.8002 194.145 61.2557C194.514 61.705 194.917 62.1913 195.354 62.7145L204.319 73H200.22L192.741 64.6719C192.249 64.1117 191.756 63.527 191.264 62.9176C190.778 62.3021 190.371 61.6496 190.045 60.9602C189.719 60.2647 189.556 59.5107 189.556 58.6982C189.556 57.781 189.768 56.9562 190.193 56.2237C190.624 55.4912 191.227 54.9126 192.003 54.4879C192.778 54.0571 193.683 53.8416 194.717 53.8416C195.727 53.8416 196.598 54.0478 197.33 54.4602C198.069 54.8665 198.635 55.4081 199.029 56.0852C199.429 56.7562 199.629 57.4948 199.629 58.3011C199.629 59.1937 199.407 60.0031 198.964 60.7294C198.527 61.4496 197.912 62.0959 197.118 62.6683L193.258 65.4474C192.735 65.8291 192.347 66.2199 192.095 66.62C191.849 67.014 191.726 67.3925 191.726 67.7557C191.726 68.205 191.836 68.6082 192.058 68.9652C192.28 69.3222 192.594 69.6054 193 69.8146C193.406 70.0178 193.883 70.1193 194.431 70.1193C195.096 70.1193 195.751 69.9685 196.398 69.6669C197.05 69.3591 197.641 68.9252 198.17 68.3651C198.706 67.7988 199.134 67.1278 199.454 66.3523C199.774 65.5767 199.934 64.718 199.934 63.7763H203.193C203.193 64.9335 203.067 65.9768 202.814 66.9062C202.562 67.8295 202.211 68.6359 201.762 69.3253C201.313 70.0085 200.799 70.5687 200.22 71.0057C200.035 71.1226 199.857 71.2334 199.684 71.3381C199.512 71.4427 199.334 71.5535 199.149 71.6705C198.447 72.2367 197.662 72.6461 196.795 72.8984C195.933 73.1508 195.08 73.277 194.237 73.277ZM40.9144 98.5291C40.8406 97.7843 40.5236 97.2057 39.9634 96.7933C39.4033 96.3809 38.6431 96.1747 37.6829 96.1747C37.0304 96.1747 36.4795 96.267 36.0302 96.4517C35.5809 96.6302 35.2362 96.8795 34.9961 97.1996C34.7622 97.5196 34.6453 97.8828 34.6453 98.2891C34.633 98.6276 34.7037 98.9231 34.8576 99.1754C35.0177 99.4278 35.2362 99.6463 35.5132 99.831C35.7901 100.009 36.1102 100.166 36.4734 100.302C36.8366 100.431 37.2243 100.542 37.6367 100.634L39.3356 101.04C40.1604 101.225 40.9175 101.471 41.6069 101.779C42.2963 102.087 42.8934 102.465 43.3981 102.915C43.9028 103.364 44.2937 103.893 44.5707 104.503C44.8538 105.112 44.9985 105.811 45.0046 106.599C44.9985 107.756 44.703 108.759 44.1183 109.609C43.5397 110.452 42.7026 111.107 41.6069 111.575C40.5174 112.037 39.2033 112.268 37.6644 112.268C36.1379 112.268 34.8084 112.034 33.6758 111.566C32.5494 111.098 31.6692 110.406 31.0352 109.489C30.4073 108.565 30.078 107.424 30.0473 106.063H33.9159C33.9589 106.697 34.1405 107.227 34.4606 107.651C34.7868 108.07 35.2208 108.387 35.7625 108.602C36.3103 108.812 36.9289 108.916 37.6183 108.916C38.2954 108.916 38.8832 108.818 39.3818 108.621C39.8865 108.424 40.2774 108.15 40.5544 107.799C40.8313 107.448 40.9698 107.045 40.9698 106.589C40.9698 106.165 40.8437 105.808 40.5913 105.518C40.3451 105.229 39.9819 104.983 39.5018 104.78C39.0278 104.577 38.4462 104.392 37.7568 104.226L35.6978 103.709C34.1036 103.321 32.8448 102.715 31.9215 101.89C30.9982 101.065 30.5397 99.9541 30.5458 98.5568C30.5397 97.4119 30.8444 96.4117 31.4599 95.5561C32.0816 94.7005 32.9341 94.0327 34.0174 93.5526C35.1008 93.0724 36.3318 92.8324 37.7106 92.8324C39.114 92.8324 40.3389 93.0724 41.3853 93.5526C42.4379 94.0327 43.2565 94.7005 43.8413 95.5561C44.426 96.4117 44.7276 97.4027 44.7461 98.5291H40.9144ZM54.8772 97.8182V100.773H46.3367V97.8182H54.8772ZM48.2756 94.4205H52.2089V107.642C52.2089 108.005 52.2643 108.288 52.3751 108.491C52.4859 108.688 52.6397 108.827 52.8367 108.907C53.0398 108.987 53.2737 109.027 53.5384 109.027C53.7231 109.027 53.9077 109.012 54.0924 108.981C54.2771 108.944 54.4186 108.916 54.5171 108.898L55.1357 111.825C54.9388 111.886 54.6618 111.957 54.3048 112.037C53.9477 112.123 53.5138 112.175 53.0029 112.194C52.055 112.231 51.224 112.105 50.51 111.815C49.8021 111.526 49.2513 111.077 48.8573 110.467C48.4634 109.858 48.2695 109.089 48.2756 108.159V94.4205ZM57.1533 112V97.8182H60.9666V100.293H61.1143C61.3728 99.4124 61.8067 98.7476 62.4161 98.2983C63.0255 97.8428 63.7272 97.6151 64.5212 97.6151C64.7182 97.6151 64.9306 97.6274 65.1583 97.652C65.3861 97.6766 65.5861 97.7105 65.7585 97.7536V101.244C65.5738 101.188 65.3184 101.139 64.9921 101.096C64.6659 101.053 64.3674 101.031 64.0965 101.031C63.5179 101.031 63.0009 101.157 62.5454 101.41C62.096 101.656 61.739 102.001 61.4744 102.444C61.2158 102.887 61.0866 103.398 61.0866 103.977V112H57.1533ZM73.3089 112.277C71.8501 112.277 70.5944 111.982 69.5419 111.391C68.4955 110.794 67.6891 109.95 67.1228 108.861C66.5566 107.765 66.2734 106.469 66.2734 104.974C66.2734 103.515 66.5566 102.235 67.1228 101.133C67.6891 100.031 68.4862 99.1723 69.5142 98.5568C70.5483 97.9413 71.7609 97.6335 73.152 97.6335C74.0876 97.6335 74.9585 97.7843 75.7649 98.0859C76.5774 98.3814 77.2852 98.8277 77.8885 99.4247C78.4978 100.022 78.9718 100.773 79.3103 101.678C79.6489 102.576 79.8182 103.629 79.8182 104.835V105.915H67.843V103.478H76.1157C76.1157 102.912 75.9926 102.41 75.7464 101.973C75.5002 101.536 75.1586 101.194 74.7216 100.948C74.2907 100.696 73.789 100.57 73.2166 100.57C72.6195 100.57 72.0902 100.708 71.6285 100.985C71.173 101.256 70.816 101.622 70.5575 102.084C70.299 102.539 70.1666 103.047 70.1605 103.607V105.925C70.1605 106.626 70.2897 107.233 70.5483 107.744C70.8129 108.254 71.1853 108.648 71.6655 108.925C72.1456 109.202 72.7149 109.341 73.3736 109.341C73.8106 109.341 74.2107 109.279 74.5738 109.156C74.937 109.033 75.2478 108.848 75.5064 108.602C75.7649 108.356 75.9619 108.054 76.0973 107.697L79.7351 107.938C79.5504 108.812 79.1718 109.575 78.5994 110.227C78.0331 110.874 77.3006 111.378 76.402 111.741C75.5094 112.098 74.4784 112.277 73.3089 112.277ZM86.143 112.268C85.2381 112.268 84.4318 112.111 83.7239 111.797C83.0161 111.477 82.4559 111.006 82.0435 110.384C81.6373 109.756 81.4341 108.975 81.4341 108.039C81.4341 107.251 81.5788 106.589 81.8681 106.054C82.1574 105.518 82.5513 105.088 83.0499 104.761C83.5485 104.435 84.1148 104.189 84.7488 104.023C85.3889 103.857 86.0599 103.74 86.7616 103.672C87.5864 103.586 88.2511 103.506 88.7559 103.432C89.2606 103.352 89.6269 103.235 89.8546 103.081C90.0823 102.927 90.1962 102.699 90.1962 102.398V102.342C90.1962 101.758 90.0116 101.305 89.6422 100.985C89.2791 100.665 88.762 100.505 88.0911 100.505C87.3832 100.505 86.82 100.662 86.4015 100.976C85.9829 101.284 85.7059 101.671 85.5705 102.139L81.9327 101.844C82.1174 100.982 82.4805 100.237 83.0222 99.6094C83.5639 98.9754 84.2625 98.4891 85.1181 98.1506C85.9798 97.8059 86.977 97.6335 88.1096 97.6335C88.8975 97.6335 89.6515 97.7259 90.3716 97.9105C91.098 98.0952 91.7412 98.3814 92.3013 98.7692C92.8676 99.157 93.3139 99.6555 93.6401 100.265C93.9663 100.868 94.1295 101.591 94.1295 102.435V112H90.3993V110.033H90.2885C90.0608 110.477 89.7561 110.867 89.3745 111.206C88.9929 111.538 88.5343 111.8 87.9988 111.991C87.4633 112.175 86.8447 112.268 86.143 112.268ZM87.2694 109.553C87.848 109.553 88.3589 109.439 88.802 109.212C89.2452 108.978 89.593 108.664 89.8454 108.27C90.0977 107.876 90.2239 107.43 90.2239 106.931V105.426C90.1008 105.506 89.9315 105.58 89.7161 105.648C89.5068 105.709 89.2698 105.768 89.0052 105.823C88.7405 105.872 88.4758 105.919 88.2111 105.962C87.9465 105.999 87.7064 106.032 87.491 106.063C87.0293 106.131 86.6261 106.239 86.2814 106.386C85.9367 106.534 85.669 106.734 85.4782 106.987C85.2874 107.233 85.192 107.54 85.192 107.91C85.192 108.445 85.3859 108.855 85.7736 109.138C86.1676 109.415 86.6662 109.553 87.2694 109.553ZM96.895 112V97.8182H100.644V100.32H100.81C101.105 99.4893 101.598 98.8338 102.287 98.3537C102.976 97.8736 103.801 97.6335 104.761 97.6335C105.734 97.6335 106.562 97.8767 107.245 98.3629C107.928 98.843 108.384 99.4955 108.612 100.32H108.759C109.049 99.5078 109.572 98.8584 110.329 98.3722C111.092 97.8797 111.994 97.6335 113.034 97.6335C114.358 97.6335 115.432 98.0552 116.256 98.8984C117.087 99.7356 117.503 100.924 117.503 102.462V112H113.579V103.238C113.579 102.45 113.37 101.859 112.951 101.465C112.532 101.071 112.009 100.874 111.381 100.874C110.667 100.874 110.11 101.102 109.71 101.558C109.31 102.007 109.11 102.601 109.11 103.339V112H105.297V103.155C105.297 102.459 105.097 101.905 104.697 101.493C104.303 101.08 103.783 100.874 103.136 100.874C102.699 100.874 102.305 100.985 101.955 101.207C101.61 101.422 101.336 101.727 101.133 102.121C100.93 102.509 100.828 102.964 100.828 103.487V112H96.895ZM120.324 112V97.8182H124.257V112H120.324ZM122.3 95.9901C121.715 95.9901 121.213 95.7962 120.795 95.4084C120.382 95.0144 120.176 94.5436 120.176 93.9957C120.176 93.4541 120.382 92.9893 120.795 92.6016C121.213 92.2076 121.715 92.0107 122.3 92.0107C122.884 92.0107 123.383 92.2076 123.795 92.6016C124.214 92.9893 124.423 93.4541 124.423 93.9957C124.423 94.5436 124.214 95.0144 123.795 95.4084C123.383 95.7962 122.884 95.9901 122.3 95.9901ZM131.055 103.801V112H127.122V97.8182H130.87V100.32H131.037C131.35 99.4955 131.877 98.843 132.615 98.3629C133.354 97.8767 134.25 97.6335 135.302 97.6335C136.287 97.6335 137.146 97.849 137.878 98.2798C138.611 98.7107 139.18 99.3262 139.586 100.126C139.993 100.92 140.196 101.868 140.196 102.97V112H136.262V103.672C136.269 102.804 136.047 102.127 135.598 101.641C135.148 101.148 134.53 100.902 133.742 100.902C133.212 100.902 132.745 101.016 132.338 101.244C131.938 101.471 131.624 101.804 131.397 102.241C131.175 102.672 131.061 103.192 131.055 103.801ZM149.399 117.614C148.125 117.614 147.032 117.438 146.121 117.087C145.216 116.743 144.496 116.272 143.961 115.675C143.425 115.078 143.077 114.407 142.917 113.662L146.555 113.173C146.666 113.456 146.841 113.72 147.081 113.967C147.321 114.213 147.638 114.41 148.032 114.558C148.432 114.711 148.919 114.788 149.491 114.788C150.347 114.788 151.052 114.579 151.605 114.161C152.166 113.748 152.446 113.056 152.446 112.083V109.489H152.279C152.107 109.883 151.849 110.255 151.504 110.606C151.159 110.957 150.716 111.243 150.174 111.464C149.633 111.686 148.986 111.797 148.235 111.797C147.171 111.797 146.201 111.551 145.327 111.058C144.459 110.56 143.767 109.799 143.25 108.778C142.739 107.75 142.483 106.451 142.483 104.881C142.483 103.275 142.745 101.933 143.268 100.856C143.791 99.7786 144.487 98.9723 145.355 98.4368C146.229 97.9013 147.186 97.6335 148.226 97.6335C149.02 97.6335 149.685 97.7689 150.221 98.0398C150.756 98.3045 151.187 98.6368 151.513 99.0369C151.846 99.4309 152.101 99.8187 152.279 100.2H152.427V97.8182H156.333V112.138C156.333 113.345 156.037 114.354 155.446 115.167C154.855 115.979 154.037 116.589 152.99 116.995C151.95 117.407 150.753 117.614 149.399 117.614ZM149.482 108.842C150.116 108.842 150.651 108.685 151.088 108.371C151.532 108.051 151.87 107.596 152.104 107.005C152.344 106.408 152.464 105.694 152.464 104.863C152.464 104.032 152.347 103.312 152.113 102.702C151.879 102.087 151.541 101.61 151.098 101.271C150.654 100.933 150.116 100.763 149.482 100.763C148.836 100.763 148.291 100.939 147.848 101.29C147.404 101.634 147.069 102.115 146.841 102.73C146.614 103.346 146.5 104.057 146.5 104.863C146.5 105.682 146.614 106.389 146.841 106.987C147.075 107.577 147.411 108.036 147.848 108.362C148.291 108.682 148.836 108.842 149.482 108.842ZM175.24 98.5291C175.166 97.7843 174.849 97.2057 174.289 96.7933C173.729 96.3809 172.969 96.1747 172.008 96.1747C171.356 96.1747 170.805 96.267 170.356 96.4517C169.906 96.6302 169.562 96.8795 169.322 97.1996C169.088 97.5196 168.971 97.8828 168.971 98.2891C168.959 98.6276 169.029 98.9231 169.183 99.1754C169.343 99.4278 169.562 99.6463 169.839 99.831C170.116 100.009 170.436 100.166 170.799 100.302C171.162 100.431 171.55 100.542 171.962 100.634L173.661 101.04C174.486 101.225 175.243 101.471 175.932 101.779C176.622 102.087 177.219 102.465 177.724 102.915C178.228 103.364 178.619 103.893 178.896 104.503C179.179 105.112 179.324 105.811 179.33 106.599C179.324 107.756 179.029 108.759 178.444 109.609C177.865 110.452 177.028 111.107 175.932 111.575C174.843 112.037 173.529 112.268 171.99 112.268C170.463 112.268 169.134 112.034 168.001 111.566C166.875 111.098 165.995 110.406 165.361 109.489C164.733 108.565 164.404 107.424 164.373 106.063H168.241C168.285 106.697 168.466 107.227 168.786 107.651C169.112 108.07 169.546 108.387 170.088 108.602C170.636 108.812 171.254 108.916 171.944 108.916C172.621 108.916 173.209 108.818 173.707 108.621C174.212 108.424 174.603 108.15 174.88 107.799C175.157 107.448 175.295 107.045 175.295 106.589C175.295 106.165 175.169 105.808 174.917 105.518C174.671 105.229 174.307 104.983 173.827 104.78C173.353 104.577 172.772 104.392 172.082 104.226L170.023 103.709C168.429 103.321 167.17 102.715 166.247 101.89C165.324 101.065 164.865 99.9541 164.871 98.5568C164.865 97.4119 165.17 96.4117 165.785 95.5561C166.407 94.7005 167.26 94.0327 168.343 93.5526C169.426 93.0724 170.657 92.8324 172.036 92.8324C173.44 92.8324 174.664 93.0724 175.711 93.5526C176.763 94.0327 177.582 94.7005 178.167 95.5561C178.752 96.4117 179.053 97.4027 179.072 98.5291H175.24ZM184.088 117.318C183.589 117.318 183.121 117.278 182.684 117.198C182.253 117.124 181.896 117.029 181.613 116.912L182.5 113.976C182.961 114.117 183.377 114.194 183.746 114.207C184.122 114.219 184.445 114.133 184.716 113.948C184.993 113.763 185.217 113.45 185.39 113.006L185.62 112.406L180.533 97.8182H184.669L187.605 108.233H187.753L190.717 97.8182H194.881L189.369 113.533C189.104 114.296 188.744 114.961 188.289 115.527C187.839 116.099 187.27 116.54 186.581 116.847C185.891 117.161 185.06 117.318 184.088 117.318ZM208.407 101.862L204.807 102.084C204.745 101.776 204.613 101.499 204.41 101.253C204.207 101 203.939 100.8 203.606 100.653C203.28 100.499 202.889 100.422 202.434 100.422C201.824 100.422 201.31 100.551 200.892 100.81C200.473 101.062 200.264 101.401 200.264 101.825C200.264 102.164 200.399 102.45 200.67 102.684C200.941 102.918 201.406 103.106 202.064 103.247L204.631 103.764C206.01 104.047 207.038 104.503 207.715 105.131C208.392 105.759 208.731 106.583 208.731 107.605C208.731 108.535 208.457 109.35 207.909 110.052C207.367 110.754 206.622 111.301 205.675 111.695C204.733 112.083 203.646 112.277 202.415 112.277C200.538 112.277 199.042 111.886 197.928 111.104C196.82 110.317 196.171 109.246 195.98 107.891L199.849 107.688C199.965 108.261 200.249 108.698 200.698 108.999C201.147 109.295 201.723 109.442 202.425 109.442C203.114 109.442 203.668 109.31 204.086 109.045C204.511 108.775 204.727 108.427 204.733 108.002C204.727 107.645 204.576 107.353 204.28 107.125C203.985 106.891 203.529 106.713 202.914 106.589L200.458 106.1C199.073 105.823 198.042 105.343 197.365 104.66C196.694 103.977 196.358 103.106 196.358 102.047C196.358 101.136 196.605 100.351 197.097 99.6925C197.596 99.0339 198.294 98.526 199.193 98.169C200.098 97.812 201.157 97.6335 202.369 97.6335C204.16 97.6335 205.57 98.0121 206.598 98.7692C207.632 99.5263 208.235 100.557 208.407 101.862ZM218.465 97.8182V100.773H209.924V97.8182H218.465ZM211.863 94.4205H215.796V107.642C215.796 108.005 215.852 108.288 215.963 108.491C216.073 108.688 216.227 108.827 216.424 108.907C216.627 108.987 216.861 109.027 217.126 109.027C217.311 109.027 217.495 109.012 217.68 108.981C217.865 108.944 218.006 108.916 218.105 108.898L218.723 111.825C218.526 111.886 218.249 111.957 217.892 112.037C217.535 112.123 217.101 112.175 216.59 112.194C215.643 112.231 214.812 112.105 214.098 111.815C213.39 111.526 212.839 111.077 212.445 110.467C212.051 109.858 211.857 109.089 211.863 108.159V94.4205ZM227.052 112.277C225.593 112.277 224.337 111.982 223.285 111.391C222.238 110.794 221.432 109.95 220.866 108.861C220.299 107.765 220.016 106.469 220.016 104.974C220.016 103.515 220.299 102.235 220.866 101.133C221.432 100.031 222.229 99.1723 223.257 98.5568C224.291 97.9413 225.504 97.6335 226.895 97.6335C227.83 97.6335 228.701 97.7843 229.508 98.0859C230.32 98.3814 231.028 98.8277 231.631 99.4247C232.241 100.022 232.714 100.773 233.053 101.678C233.392 102.576 233.561 103.629 233.561 104.835V105.915H221.586V103.478H229.858C229.858 102.912 229.735 102.41 229.489 101.973C229.243 101.536 228.901 101.194 228.464 100.948C228.033 100.696 227.532 100.57 226.959 100.57C226.362 100.57 225.833 100.708 225.371 100.985C224.916 101.256 224.559 101.622 224.3 102.084C224.042 102.539 223.909 103.047 223.903 103.607V105.925C223.903 106.626 224.032 107.233 224.291 107.744C224.556 108.254 224.928 108.648 225.408 108.925C225.888 109.202 226.458 109.341 227.116 109.341C227.553 109.341 227.953 109.279 228.317 109.156C228.68 109.033 228.991 108.848 229.249 108.602C229.508 108.356 229.705 108.054 229.84 107.697L233.478 107.938C233.293 108.812 232.915 109.575 232.342 110.227C231.776 110.874 231.043 111.378 230.145 111.741C229.252 112.098 228.221 112.277 227.052 112.277ZM235.842 112V97.8182H239.59V100.32H239.756C240.052 99.4893 240.544 98.8338 241.234 98.3537C241.923 97.8736 242.748 97.6335 243.708 97.6335C244.681 97.6335 245.509 97.8767 246.192 98.3629C246.875 98.843 247.33 99.4955 247.558 100.32H247.706C247.995 99.5078 248.518 98.8584 249.276 98.3722C250.039 97.8797 250.941 97.6335 251.981 97.6335C253.304 97.6335 254.378 98.0552 255.203 98.8984C256.034 99.7356 256.45 100.924 256.45 102.462V112H252.526V103.238C252.526 102.45 252.316 101.859 251.898 101.465C251.479 101.071 250.956 100.874 250.328 100.874C249.614 100.874 249.057 101.102 248.657 101.558C248.257 102.007 248.057 102.601 248.057 103.339V112H244.244V103.155C244.244 102.459 244.044 101.905 243.643 101.493C243.25 101.08 242.729 100.874 242.083 100.874C241.646 100.874 241.252 100.985 240.901 101.207C240.557 101.422 240.283 101.727 240.08 102.121C239.876 102.509 239.775 102.964 239.775 103.487V112H235.842Z" fill="#1E1E1E"/>
</svg>
