<svg width="288" height="255" viewBox="0 0 288 255" fill="none" xmlns="http://www.w3.org/2000/svg">
<path d="M140.659 62.9699C142.68 61.6152 145.32 61.6152 147.341 62.9699L285.341 153.493C288.886 155.87 288.886 161.084 285.341 163.461L147.341 253.984C145.32 255.339 142.68 255.339 140.659 253.984L2.65928 163.461C-0.88642 161.084 -0.886431 155.87 2.65927 153.493L140.659 62.9699Z" fill="#9747FF"/>
<rect y="93.8887" width="288" height="66.4247" rx="6" fill="#9747FF"/>
<path d="M140.659 1.01607C142.68 -0.338689 145.32 -0.338691 147.341 1.01607L285.341 91.5391C288.886 93.9158 288.886 99.1303 285.341 101.507L147.341 192.03C145.32 193.385 142.68 193.385 140.659 192.03L2.65928 101.507C-0.88642 99.1303 -0.886431 93.9158 2.65927 91.5391L140.659 1.01607Z" fill="#E4CCFF"/>
<path d="M67.4933 73.5291C67.4194 72.7843 67.1024 72.2057 66.5423 71.7933C65.9821 71.3809 65.222 71.1747 64.2617 71.1747C63.6093 71.1747 63.0584 71.267 62.609 71.4517C62.1597 71.6302 61.815 71.8795 61.5749 72.1996C61.341 72.5196 61.2241 72.8828 61.2241 73.2891C61.2118 73.6276 61.2826 73.9231 61.4364 74.1754C61.5965 74.4278 61.815 74.6463 62.092 74.831C62.369 75.0095 62.689 75.1664 63.0522 75.3018C63.4154 75.4311 63.8032 75.5419 64.2156 75.6342L65.9144 76.0405C66.7392 76.2251 67.4963 76.4714 68.1857 76.7791C68.8751 77.0869 69.4722 77.4654 69.9769 77.9148C70.4817 78.3641 70.8725 78.8935 71.1495 79.5028C71.4327 80.1122 71.5773 80.8108 71.5835 81.5987C71.5773 82.7559 71.2818 83.7592 70.6971 84.6087C70.1185 85.4519 69.2814 86.1075 68.1857 86.5753C67.0962 87.0369 65.7821 87.2678 64.2433 87.2678C62.7167 87.2678 61.3872 87.0339 60.2546 86.5661C59.1282 86.0982 58.248 85.4058 57.614 84.4886C56.9862 83.5653 56.6568 82.4235 56.6261 81.0632H60.4947C60.5378 81.6972 60.7193 82.2266 61.0394 82.6513C61.3657 83.0698 61.7996 83.3868 62.3413 83.6023C62.8891 83.8116 63.5077 83.9162 64.1971 83.9162C64.8742 83.9162 65.462 83.8177 65.9606 83.6207C66.4653 83.4238 66.8562 83.1499 67.1332 82.799C67.4102 82.4482 67.5487 82.045 67.5487 81.5895C67.5487 81.1648 67.4225 80.8078 67.1701 80.5185C66.9239 80.2292 66.5607 79.983 66.0806 79.7798C65.6067 79.5767 65.025 79.392 64.3356 79.2259L62.2766 78.7088C60.6824 78.321 59.4237 77.7147 58.5004 76.8899C57.5771 76.0651 57.1185 74.9541 57.1247 73.5568C57.1185 72.4119 57.4232 71.4117 58.0387 70.5561C58.6604 69.7005 59.5129 69.0327 60.5962 68.5526C61.6796 68.0724 62.9106 67.8324 64.2894 67.8324C65.6928 67.8324 66.9177 68.0724 67.9641 68.5526C69.0167 69.0327 69.8354 69.7005 70.4201 70.5561C71.0049 71.4117 71.3065 72.4027 71.3249 73.5291H67.4933ZM83.0072 80.9616V72.8182H86.9404V87H83.1641V84.424H83.0164C82.6963 85.255 82.1639 85.9228 81.4191 86.4276C80.6804 86.9323 79.7787 87.1847 78.7138 87.1847C77.7659 87.1847 76.9319 86.9692 76.2117 86.5384C75.4915 86.1075 74.9283 85.495 74.5221 84.701C74.122 83.907 73.9188 82.956 73.9127 81.848V72.8182H77.8459V81.1463C77.8521 81.9834 78.0768 82.6451 78.5199 83.1314C78.9631 83.6177 79.5571 83.8608 80.3019 83.8608C80.7759 83.8608 81.219 83.7531 81.6314 83.5376C82.0438 83.3161 82.3762 82.9898 82.6286 82.5589C82.8871 82.1281 83.0133 81.5956 83.0072 80.9616ZM89.8005 92.3182V72.8182H93.6784V75.2003H93.8538C94.0261 74.8187 94.2754 74.4309 94.6017 74.0369C94.934 73.6368 95.3649 73.3045 95.8943 73.0398C96.4298 72.7689 97.0946 72.6335 97.8886 72.6335C98.9227 72.6335 99.8768 72.9044 100.751 73.446C101.625 73.9815 102.323 74.791 102.847 75.8743C103.37 76.9515 103.631 78.3026 103.631 79.9276C103.631 81.5095 103.376 82.8452 102.865 83.9347C102.36 85.018 101.671 85.8397 100.797 86.3999C99.9291 86.9538 98.9565 87.2308 97.8794 87.2308C97.1161 87.2308 96.4667 87.1046 95.9312 86.8523C95.4018 86.5999 94.9679 86.2829 94.6294 85.9013C94.2908 85.5135 94.0323 85.1226 93.8538 84.7287H93.7338V92.3182H89.8005ZM93.6507 79.9091C93.6507 80.7524 93.7676 81.4879 94.0015 82.1158C94.2354 82.7436 94.574 83.233 95.0171 83.5838C95.4603 83.9285 95.9989 84.1009 96.6329 84.1009C97.2731 84.1009 97.8147 83.9254 98.2579 83.5746C98.7011 83.2176 99.0366 82.7251 99.2643 82.0973C99.4982 81.4633 99.6152 80.7339 99.6152 79.9091C99.6152 79.0904 99.5013 78.3703 99.2735 77.7486C99.0458 77.1269 98.7103 76.6406 98.2671 76.2898C97.824 75.9389 97.2792 75.7635 96.6329 75.7635C95.9928 75.7635 95.4511 75.9328 95.0079 76.2713C94.5709 76.6098 94.2354 77.09 94.0015 77.7116C93.7676 78.3333 93.6507 79.0658 93.6507 79.9091ZM112.431 87.277C110.972 87.277 109.716 86.9815 108.664 86.3906C107.617 85.7936 106.811 84.9503 106.245 83.8608C105.678 82.7652 105.395 81.4695 105.395 79.9737C105.395 78.5149 105.678 77.2346 106.245 76.1328C106.811 75.031 107.608 74.1723 108.636 73.5568C109.67 72.9413 110.883 72.6335 112.274 72.6335C113.209 72.6335 114.08 72.7843 114.887 73.0859C115.699 73.3814 116.407 73.8277 117.01 74.4247C117.62 75.0218 118.094 75.7727 118.432 76.6776C118.771 77.5762 118.94 78.6288 118.94 79.8352V80.9155H106.965V78.478H115.238C115.238 77.9117 115.114 77.41 114.868 76.973C114.622 76.536 114.28 76.1944 113.843 75.9482C113.412 75.6958 112.911 75.5696 112.338 75.5696C111.741 75.5696 111.212 75.7081 110.75 75.9851C110.295 76.2559 109.938 76.6222 109.679 77.0838C109.421 77.5393 109.288 78.0471 109.282 78.6072V80.9247C109.282 81.6264 109.412 82.2327 109.67 82.7436C109.935 83.2545 110.307 83.6484 110.787 83.9254C111.267 84.2024 111.837 84.3409 112.495 84.3409C112.932 84.3409 113.332 84.2794 113.696 84.1562C114.059 84.0331 114.37 83.8485 114.628 83.6023C114.887 83.3561 115.084 83.0545 115.219 82.6974L118.857 82.9375C118.672 83.8116 118.294 84.5748 117.721 85.2273C117.155 85.8736 116.422 86.3783 115.524 86.7415C114.631 87.0985 113.6 87.277 112.431 87.277ZM121.221 87V72.8182H125.034V75.2926H125.182C125.44 74.4124 125.874 73.7476 126.483 73.2983C127.093 72.8428 127.795 72.6151 128.589 72.6151C128.786 72.6151 128.998 72.6274 129.226 72.652C129.453 72.6766 129.653 72.7105 129.826 72.7536V76.2436C129.641 76.1882 129.386 76.139 129.059 76.0959C128.733 76.0528 128.435 76.0312 128.164 76.0312C127.585 76.0312 127.068 76.1574 126.613 76.4098C126.163 76.656 125.806 77.0007 125.542 77.4439C125.283 77.8871 125.154 78.398 125.154 78.9766V87H121.221ZM137.321 87.277C135.868 87.277 134.619 86.9692 133.572 86.3537C132.532 85.732 131.732 84.8703 131.172 83.7685C130.618 82.6667 130.341 81.3987 130.341 79.9645C130.341 78.5118 130.621 77.2377 131.181 76.142C131.747 75.0402 132.551 74.1816 133.591 73.5661C134.631 72.9444 135.868 72.6335 137.302 72.6335C138.54 72.6335 139.623 72.8582 140.552 73.3075C141.482 73.7569 142.217 74.3878 142.759 75.2003C143.301 76.0128 143.599 76.9669 143.655 78.0625H139.943C139.838 77.3546 139.561 76.7853 139.112 76.3544C138.669 75.9174 138.087 75.6989 137.367 75.6989C136.758 75.6989 136.225 75.8651 135.77 76.1974C135.32 76.5237 134.97 77.0007 134.717 77.6286C134.465 78.2564 134.339 79.0166 134.339 79.9091C134.339 80.8139 134.462 81.5833 134.708 82.2173C134.96 82.8513 135.314 83.3345 135.77 83.6669C136.225 83.9993 136.758 84.1655 137.367 84.1655C137.816 84.1655 138.22 84.0732 138.577 83.8885C138.94 83.7038 139.238 83.4361 139.472 83.0852C139.712 82.7282 139.869 82.3004 139.943 81.8018H143.655C143.593 82.8852 143.298 83.8393 142.768 84.6641C142.245 85.4827 141.522 86.1229 140.599 86.5845C139.675 87.0462 138.583 87.277 137.321 87.277ZM149.82 78.8011V87H145.887V68.0909H149.709V75.3203H149.876C150.196 74.4832 150.713 73.8277 151.427 73.3537C152.141 72.8736 153.036 72.6335 154.114 72.6335C155.098 72.6335 155.957 72.849 156.69 73.2798C157.428 73.7045 158.001 74.317 158.407 75.1172C158.819 75.9112 159.022 76.8622 159.016 77.9702V87H155.083V78.6719C155.089 77.7978 154.868 77.1177 154.418 76.6314C153.975 76.1451 153.353 75.902 152.553 75.902C152.018 75.902 151.544 76.0159 151.131 76.2436C150.725 76.4714 150.405 76.8037 150.171 77.2408C149.943 77.6716 149.826 78.1918 149.82 78.8011ZM165.87 87.2678C164.965 87.2678 164.158 87.1108 163.451 86.7969C162.743 86.4768 162.183 86.0059 161.77 85.3842C161.364 84.7564 161.161 83.9747 161.161 83.0391C161.161 82.2512 161.305 81.5895 161.595 81.054C161.884 80.5185 162.278 80.0876 162.777 79.7614C163.275 79.4351 163.841 79.1889 164.475 79.0227C165.116 78.8565 165.787 78.7396 166.488 78.6719C167.313 78.5857 167.978 78.5057 168.483 78.4318C168.987 78.3518 169.354 78.2348 169.581 78.081C169.809 77.9271 169.923 77.6993 169.923 77.3977V77.3423C169.923 76.7576 169.738 76.3052 169.369 75.9851C169.006 75.665 168.489 75.505 167.818 75.505C167.11 75.505 166.547 75.6619 166.128 75.9759C165.71 76.2836 165.433 76.6714 165.297 77.1392L161.659 76.8438C161.844 75.982 162.207 75.2372 162.749 74.6094C163.291 73.9754 163.989 73.4891 164.845 73.1506C165.707 72.8059 166.704 72.6335 167.836 72.6335C168.624 72.6335 169.378 72.7259 170.098 72.9105C170.825 73.0952 171.468 73.3814 172.028 73.7692C172.594 74.157 173.041 74.6555 173.367 75.2649C173.693 75.8681 173.856 76.5914 173.856 77.4347V87H170.126V85.0334H170.015C169.787 85.4766 169.483 85.8674 169.101 86.206C168.72 86.5384 168.261 86.8 167.725 86.9908C167.19 87.1754 166.571 87.2678 165.87 87.2678ZM166.996 84.5533C167.575 84.5533 168.086 84.4394 168.529 84.2116C168.972 83.9777 169.32 83.6638 169.572 83.2699C169.824 82.8759 169.951 82.4297 169.951 81.9311V80.4261C169.827 80.5062 169.658 80.58 169.443 80.6477C169.234 80.7093 168.997 80.7678 168.732 80.8232C168.467 80.8724 168.202 80.9186 167.938 80.9616C167.673 80.9986 167.433 81.0324 167.218 81.0632C166.756 81.1309 166.353 81.2386 166.008 81.3864C165.663 81.5341 165.396 81.7341 165.205 81.9865C165.014 82.2327 164.919 82.5405 164.919 82.9098C164.919 83.4453 165.113 83.8546 165.5 84.1378C165.894 84.4148 166.393 84.5533 166.996 84.5533ZM176.622 87V72.8182H180.435V75.2926H180.583C180.841 74.4124 181.275 73.7476 181.884 73.2983C182.494 72.8428 183.195 72.6151 183.99 72.6151C184.187 72.6151 184.399 72.6274 184.627 72.652C184.854 72.6766 185.054 72.7105 185.227 72.7536V76.2436C185.042 76.1882 184.787 76.139 184.46 76.0959C184.134 76.0528 183.836 76.0312 183.565 76.0312C182.986 76.0312 182.469 76.1574 182.014 76.4098C181.564 76.656 181.207 77.0007 180.943 77.4439C180.684 77.8871 180.555 78.398 180.555 78.9766V87H176.622ZM192.703 92.6136C191.429 92.6136 190.337 92.4382 189.426 92.0874C188.521 91.7427 187.801 91.2718 187.265 90.6747C186.73 90.0777 186.382 89.4067 186.222 88.6619L189.86 88.1726C189.97 88.4557 190.146 88.7204 190.386 88.9666C190.626 89.2128 190.943 89.4098 191.337 89.5575C191.737 89.7114 192.223 89.7884 192.796 89.7884C193.651 89.7884 194.356 89.5791 194.91 89.1605C195.47 88.7481 195.75 88.0556 195.75 87.0831V84.4886H195.584C195.412 84.8826 195.153 85.255 194.808 85.6058C194.464 85.9567 194.021 86.2429 193.479 86.4645C192.937 86.6861 192.291 86.7969 191.54 86.7969C190.475 86.7969 189.506 86.5507 188.632 86.0582C187.764 85.5597 187.071 84.7995 186.554 83.7777C186.043 82.7498 185.788 81.451 185.788 79.8814C185.788 78.2749 186.049 76.933 186.573 75.8558C187.096 74.7786 187.791 73.9723 188.659 73.4368C189.533 72.9013 190.491 72.6335 191.531 72.6335C192.325 72.6335 192.99 72.7689 193.525 73.0398C194.061 73.3045 194.491 73.6368 194.818 74.0369C195.15 74.4309 195.406 74.8187 195.584 75.2003H195.732V72.8182H199.637V87.1385C199.637 88.3449 199.342 89.3544 198.751 90.1669C198.16 90.9794 197.341 91.5888 196.295 91.995C195.255 92.4074 194.058 92.6136 192.703 92.6136ZM192.786 83.8423C193.42 83.8423 193.956 83.6854 194.393 83.3714C194.836 83.0514 195.175 82.5959 195.409 82.005C195.649 81.4079 195.769 80.6939 195.769 79.8629C195.769 79.032 195.652 78.3118 195.418 77.7024C195.184 77.0869 194.845 76.6098 194.402 76.2713C193.959 75.9328 193.42 75.7635 192.786 75.7635C192.14 75.7635 191.595 75.9389 191.152 76.2898C190.709 76.6345 190.374 77.1146 190.146 77.7301C189.918 78.3456 189.804 79.0566 189.804 79.8629C189.804 80.6816 189.918 81.3894 190.146 81.9865C190.38 82.5774 190.715 83.036 191.152 83.3622C191.595 83.6823 192.14 83.8423 192.786 83.8423ZM208.944 87.277C207.486 87.277 206.23 86.9815 205.177 86.3906C204.131 85.7936 203.325 84.9503 202.758 83.8608C202.192 82.7652 201.909 81.4695 201.909 79.9737C201.909 78.5149 202.192 77.2346 202.758 76.1328C203.325 75.031 204.122 74.1723 205.15 73.5568C206.184 72.9413 207.396 72.6335 208.787 72.6335C209.723 72.6335 210.594 72.7843 211.4 73.0859C212.213 73.3814 212.921 73.8277 213.524 74.4247C214.133 75.0218 214.607 75.7727 214.946 76.6776C215.284 77.5762 215.454 78.6288 215.454 79.8352V80.9155H203.478V78.478H211.751C211.751 77.9117 211.628 77.41 211.382 76.973C211.136 76.536 210.794 76.1944 210.357 75.9482C209.926 75.6958 209.424 75.5696 208.852 75.5696C208.255 75.5696 207.726 75.7081 207.264 75.9851C206.808 76.2559 206.451 76.6222 206.193 77.0838C205.934 77.5393 205.802 78.0471 205.796 78.6072V80.9247C205.796 81.6264 205.925 82.2327 206.184 82.7436C206.448 83.2545 206.821 83.6484 207.301 83.9254C207.781 84.2024 208.35 84.3409 209.009 84.3409C209.446 84.3409 209.846 84.2794 210.209 84.1562C210.572 84.0331 210.883 83.8485 211.142 83.6023C211.4 83.3561 211.597 83.0545 211.733 82.6974L215.37 82.9375C215.186 83.8116 214.807 84.5748 214.235 85.2273C213.669 85.8736 212.936 86.3783 212.037 86.7415C211.145 87.0985 210.114 87.277 208.944 87.277ZM222.96 87.2308C221.883 87.2308 220.907 86.9538 220.033 86.3999C219.165 85.8397 218.476 85.018 217.965 83.9347C217.46 82.8452 217.208 81.5095 217.208 79.9276C217.208 78.3026 217.47 76.9515 217.993 75.8743C218.516 74.791 219.212 73.9815 220.08 73.446C220.954 72.9044 221.911 72.6335 222.951 72.6335C223.745 72.6335 224.407 72.7689 224.936 73.0398C225.472 73.3045 225.902 73.6368 226.229 74.0369C226.561 74.4309 226.813 74.8187 226.986 75.2003H227.106V68.0909H231.03V87H227.152V84.7287H226.986C226.801 85.1226 226.539 85.5135 226.201 85.9013C225.869 86.2829 225.435 86.5999 224.899 86.8523C224.37 87.1046 223.723 87.2308 222.96 87.2308ZM224.207 84.1009C224.841 84.1009 225.376 83.9285 225.813 83.5838C226.256 83.233 226.595 82.7436 226.829 82.1158C227.069 81.4879 227.189 80.7524 227.189 79.9091C227.189 79.0658 227.072 78.3333 226.838 77.7116C226.604 77.09 226.266 76.6098 225.822 76.2713C225.379 75.9328 224.841 75.7635 224.207 75.7635C223.56 75.7635 223.016 75.9389 222.572 76.2898C222.129 76.6406 221.794 77.1269 221.566 77.7486C221.338 78.3703 221.224 79.0904 221.224 79.9091C221.224 80.7339 221.338 81.4633 221.566 82.0973C221.8 82.7251 222.135 83.2176 222.572 83.5746C223.016 83.9254 223.56 84.1009 224.207 84.1009ZM54.7945 126H50.5104L57.0381 107.091H62.1901L68.7085 126H64.4245L59.688 111.412H59.5402L54.7945 126ZM54.5267 118.567H64.646V121.688H54.5267V118.567ZM70.6246 131.318V111.818H74.5024V114.2H74.6779C74.8502 113.819 75.0995 113.431 75.4257 113.037C75.7581 112.637 76.189 112.304 76.7184 112.04C77.2539 111.769 77.9186 111.634 78.7127 111.634C79.7468 111.634 80.7008 111.904 81.5749 112.446C82.4489 112.982 83.1476 113.791 83.6708 114.874C84.194 115.951 84.4556 117.303 84.4556 118.928C84.4556 120.509 84.2001 121.845 83.6892 122.935C83.1845 124.018 82.4951 124.84 81.6211 125.4C80.7532 125.954 79.7806 126.231 78.7034 126.231C77.9402 126.231 77.2908 126.105 76.7553 125.852C76.2259 125.6 75.792 125.283 75.4534 124.901C75.1149 124.513 74.8564 124.123 74.6779 123.729H74.5578V131.318H70.6246ZM74.4747 118.909C74.4747 119.752 74.5917 120.488 74.8256 121.116C75.0595 121.744 75.398 122.233 75.8412 122.584C76.2844 122.929 76.823 123.101 77.457 123.101C78.0971 123.101 78.6388 122.925 79.082 122.575C79.5252 122.218 79.8606 121.725 80.0884 121.097C80.3223 120.463 80.4392 119.734 80.4392 118.909C80.4392 118.09 80.3254 117.37 80.0976 116.749C79.8699 116.127 79.5344 115.641 79.0912 115.29C78.648 114.939 78.1033 114.763 77.457 114.763C76.8168 114.763 76.2752 114.933 75.832 115.271C75.395 115.61 75.0595 116.09 74.8256 116.712C74.5917 117.333 74.4747 118.066 74.4747 118.909ZM86.7917 131.318V111.818H90.6696V114.2H90.845C91.0173 113.819 91.2666 113.431 91.5929 113.037C91.9253 112.637 92.3561 112.304 92.8855 112.04C93.421 111.769 94.0858 111.634 94.8798 111.634C95.9139 111.634 96.868 111.904 97.742 112.446C98.6161 112.982 99.3147 113.791 99.8379 114.874C100.361 115.951 100.623 117.303 100.623 118.928C100.623 120.509 100.367 121.845 99.8564 122.935C99.3516 124.018 98.6622 124.84 97.7882 125.4C96.9203 125.954 95.9477 126.231 94.8706 126.231C94.1073 126.231 93.4579 126.105 92.9224 125.852C92.3931 125.6 91.9591 125.283 91.6206 124.901C91.282 124.513 91.0235 124.123 90.845 123.729H90.725V131.318H86.7917ZM90.6419 118.909C90.6419 119.752 90.7588 120.488 90.9927 121.116C91.2266 121.744 91.5652 122.233 92.0084 122.584C92.4515 122.929 92.9901 123.101 93.6241 123.101C94.2643 123.101 94.8059 122.925 95.2491 122.575C95.6923 122.218 96.0278 121.725 96.2555 121.097C96.4894 120.463 96.6064 119.734 96.6064 118.909C96.6064 118.09 96.4925 117.37 96.2647 116.749C96.037 116.127 95.7015 115.641 95.2584 115.29C94.8152 114.939 94.2704 114.763 93.6241 114.763C92.984 114.763 92.4423 114.933 91.9991 115.271C91.5621 115.61 91.2266 116.09 90.9927 116.712C90.7588 117.333 90.6419 118.066 90.6419 118.909ZM108.044 110.387V107.091H123.574V110.387H117.785V126H113.833V110.387H108.044ZM130.178 126.277C128.719 126.277 127.464 125.982 126.411 125.391C125.365 124.794 124.558 123.95 123.992 122.861C123.426 121.765 123.143 120.469 123.143 118.974C123.143 117.515 123.426 116.235 123.992 115.133C124.558 114.031 125.355 113.172 126.383 112.557C127.417 111.941 128.63 111.634 130.021 111.634C130.957 111.634 131.828 111.784 132.634 112.086C133.447 112.381 134.154 112.828 134.758 113.425C135.367 114.022 135.841 114.773 136.179 115.678C136.518 116.576 136.687 117.629 136.687 118.835V119.915H124.712V117.478H132.985C132.985 116.912 132.862 116.41 132.616 115.973C132.369 115.536 132.028 115.194 131.591 114.948C131.16 114.696 130.658 114.57 130.086 114.57C129.489 114.57 128.959 114.708 128.498 114.985C128.042 115.256 127.685 115.622 127.427 116.084C127.168 116.539 127.036 117.047 127.03 117.607V119.925C127.03 120.626 127.159 121.233 127.417 121.744C127.682 122.254 128.054 122.648 128.535 122.925C129.015 123.202 129.584 123.341 130.243 123.341C130.68 123.341 131.08 123.279 131.443 123.156C131.806 123.033 132.117 122.848 132.375 122.602C132.634 122.356 132.831 122.054 132.966 121.697L136.604 121.938C136.42 122.812 136.041 123.575 135.469 124.227C134.902 124.874 134.17 125.378 133.271 125.741C132.379 126.098 131.348 126.277 130.178 126.277ZM138.968 126V111.818H142.717V114.32H142.883C143.178 113.489 143.671 112.834 144.36 112.354C145.049 111.874 145.874 111.634 146.835 111.634C147.807 111.634 148.635 111.877 149.318 112.363C150.001 112.843 150.457 113.496 150.685 114.32H150.832C151.122 113.508 151.645 112.858 152.402 112.372C153.165 111.88 154.067 111.634 155.107 111.634C156.431 111.634 157.505 112.055 158.33 112.898C159.161 113.736 159.576 114.924 159.576 116.462V126H155.652V117.238C155.652 116.45 155.443 115.859 155.024 115.465C154.606 115.071 154.082 114.874 153.455 114.874C152.741 114.874 152.183 115.102 151.783 115.558C151.383 116.007 151.183 116.601 151.183 117.339V126H147.37V117.155C147.37 116.459 147.17 115.905 146.77 115.493C146.376 115.08 145.856 114.874 145.21 114.874C144.772 114.874 144.379 114.985 144.028 115.207C143.683 115.422 143.409 115.727 143.206 116.121C143.003 116.509 142.901 116.964 142.901 117.487V126H138.968ZM162.397 131.318V111.818H166.275V114.2H166.45C166.623 113.819 166.872 113.431 167.198 113.037C167.53 112.637 167.961 112.304 168.491 112.04C169.026 111.769 169.691 111.634 170.485 111.634C171.519 111.634 172.473 111.904 173.347 112.446C174.221 112.982 174.92 113.791 175.443 114.874C175.966 115.951 176.228 117.303 176.228 118.928C176.228 120.509 175.972 121.845 175.462 122.935C174.957 124.018 174.267 124.84 173.393 125.4C172.525 125.954 171.553 126.231 170.476 126.231C169.712 126.231 169.063 126.105 168.528 125.852C167.998 125.6 167.564 125.283 167.226 124.901C166.887 124.513 166.629 124.123 166.45 123.729H166.33V131.318H162.397ZM166.247 118.909C166.247 119.752 166.364 120.488 166.598 121.116C166.832 121.744 167.17 122.233 167.614 122.584C168.057 122.929 168.595 123.101 169.229 123.101C169.869 123.101 170.411 122.925 170.854 122.575C171.297 122.218 171.633 121.725 171.861 121.097C172.095 120.463 172.212 119.734 172.212 118.909C172.212 118.09 172.098 117.37 171.87 116.749C171.642 116.127 171.307 115.641 170.864 115.29C170.42 114.939 169.876 114.763 169.229 114.763C168.589 114.763 168.047 114.933 167.604 115.271C167.167 115.61 166.832 116.09 166.598 116.712C166.364 117.333 166.247 118.066 166.247 118.909ZM182.497 107.091V126H178.564V107.091H182.497ZM189.406 126.268C188.501 126.268 187.695 126.111 186.987 125.797C186.279 125.477 185.719 125.006 185.307 124.384C184.9 123.756 184.697 122.975 184.697 122.039C184.697 121.251 184.842 120.589 185.131 120.054C185.42 119.518 185.814 119.088 186.313 118.761C186.812 118.435 187.378 118.189 188.012 118.023C188.652 117.857 189.323 117.74 190.025 117.672C190.849 117.586 191.514 117.506 192.019 117.432C192.524 117.352 192.89 117.235 193.118 117.081C193.345 116.927 193.459 116.699 193.459 116.398V116.342C193.459 115.758 193.275 115.305 192.905 114.985C192.542 114.665 192.025 114.505 191.354 114.505C190.646 114.505 190.083 114.662 189.665 114.976C189.246 115.284 188.969 115.671 188.834 116.139L185.196 115.844C185.38 114.982 185.744 114.237 186.285 113.609C186.827 112.975 187.526 112.489 188.381 112.151C189.243 111.806 190.24 111.634 191.373 111.634C192.161 111.634 192.915 111.726 193.635 111.911C194.361 112.095 195.004 112.381 195.564 112.769C196.131 113.157 196.577 113.656 196.903 114.265C197.229 114.868 197.393 115.591 197.393 116.435V126H193.662V124.033H193.552C193.324 124.477 193.019 124.867 192.638 125.206C192.256 125.538 191.797 125.8 191.262 125.991C190.726 126.175 190.108 126.268 189.406 126.268ZM190.532 123.553C191.111 123.553 191.622 123.439 192.065 123.212C192.508 122.978 192.856 122.664 193.108 122.27C193.361 121.876 193.487 121.43 193.487 120.931V119.426C193.364 119.506 193.195 119.58 192.979 119.648C192.77 119.709 192.533 119.768 192.268 119.823C192.004 119.872 191.739 119.919 191.474 119.962C191.21 119.999 190.969 120.032 190.754 120.063C190.292 120.131 189.889 120.239 189.545 120.386C189.2 120.534 188.932 120.734 188.741 120.987C188.55 121.233 188.455 121.54 188.455 121.91C188.455 122.445 188.649 122.855 189.037 123.138C189.431 123.415 189.929 123.553 190.532 123.553ZM207.701 111.818V114.773H199.161V111.818H207.701ZM201.1 108.42H205.033V121.642C205.033 122.005 205.088 122.288 205.199 122.491C205.31 122.688 205.464 122.827 205.661 122.907C205.864 122.987 206.098 123.027 206.363 123.027C206.547 123.027 206.732 123.012 206.917 122.981C207.101 122.944 207.243 122.916 207.341 122.898L207.96 125.825C207.763 125.886 207.486 125.957 207.129 126.037C206.772 126.123 206.338 126.175 205.827 126.194C204.879 126.231 204.048 126.105 203.334 125.815C202.626 125.526 202.075 125.077 201.681 124.467C201.288 123.858 201.094 123.089 201.1 122.159V108.42ZM216.288 126.277C214.829 126.277 213.574 125.982 212.521 125.391C211.475 124.794 210.668 123.95 210.102 122.861C209.536 121.765 209.253 120.469 209.253 118.974C209.253 117.515 209.536 116.235 210.102 115.133C210.668 114.031 211.466 113.172 212.493 112.557C213.528 111.941 214.74 111.634 216.131 111.634C217.067 111.634 217.938 111.784 218.744 112.086C219.557 112.381 220.265 112.828 220.868 113.425C221.477 114.022 221.951 114.773 222.29 115.678C222.628 116.576 222.797 117.629 222.797 118.835V119.915H210.822V117.478H219.095C219.095 116.912 218.972 116.41 218.726 115.973C218.48 115.536 218.138 115.194 217.701 114.948C217.27 114.696 216.768 114.57 216.196 114.57C215.599 114.57 215.069 114.708 214.608 114.985C214.152 115.256 213.795 115.622 213.537 116.084C213.278 116.539 213.146 117.047 213.14 117.607V119.925C213.14 120.626 213.269 121.233 213.528 121.744C213.792 122.254 214.165 122.648 214.645 122.925C215.125 123.202 215.694 123.341 216.353 123.341C216.79 123.341 217.19 123.279 217.553 123.156C217.916 123.033 218.227 122.848 218.486 122.602C218.744 122.356 218.941 122.054 219.077 121.697L222.714 121.938C222.53 122.812 222.151 123.575 221.579 124.227C221.012 124.874 220.28 125.378 219.381 125.741C218.489 126.098 217.458 126.277 216.288 126.277ZM236.878 115.862L233.277 116.084C233.216 115.776 233.083 115.499 232.88 115.253C232.677 115 232.409 114.8 232.077 114.653C231.751 114.499 231.36 114.422 230.904 114.422C230.295 114.422 229.781 114.551 229.362 114.81C228.944 115.062 228.734 115.401 228.734 115.825C228.734 116.164 228.87 116.45 229.141 116.684C229.412 116.918 229.876 117.106 230.535 117.247L233.102 117.764C234.48 118.047 235.508 118.503 236.185 119.131C236.863 119.759 237.201 120.583 237.201 121.605C237.201 122.535 236.927 123.35 236.379 124.052C235.838 124.754 235.093 125.301 234.145 125.695C233.203 126.083 232.117 126.277 230.886 126.277C229.008 126.277 227.513 125.886 226.399 125.104C225.291 124.317 224.641 123.246 224.45 121.891L228.319 121.688C228.436 122.261 228.719 122.698 229.168 122.999C229.618 123.295 230.193 123.442 230.895 123.442C231.584 123.442 232.138 123.31 232.557 123.045C232.982 122.775 233.197 122.427 233.203 122.002C233.197 121.645 233.046 121.353 232.751 121.125C232.455 120.891 232 120.713 231.384 120.589L228.928 120.1C227.543 119.823 226.512 119.343 225.835 118.66C225.164 117.977 224.829 117.106 224.829 116.047C224.829 115.136 225.075 114.351 225.568 113.692C226.066 113.034 226.765 112.526 227.663 112.169C228.568 111.812 229.627 111.634 230.84 111.634C232.631 111.634 234.04 112.012 235.068 112.769C236.102 113.526 236.706 114.557 236.878 115.862Z" fill="#1E1E1E"/>
</svg>
