<?xml version="1.0" standalone="no"?>
<!DOCTYPE svg PUBLIC "-//W3C//DTD SVG 20010904//EN"
 "http://www.w3.org/TR/2001/REC-SVG-20010904/DTD/svg10.dtd">
<svg version="1.0" xmlns="http://www.w3.org/2000/svg"
 width="664.000000pt" height="443.000000pt" viewBox="0 0 664.000000 443.000000"
 preserveAspectRatio="xMidYMid meet">

<g transform="translate(0.000000,443.000000) scale(0.100000,-0.100000)"
fill="#000000" stroke="none">
<path d="M54 4356 l-34 -34 0 -2112 0 -2112 34 -34 34 -34 3236 2 3236 3 27
28 28 27 0 2120 0 2120 -28 27 -27 28 -3236 3 -3236 2 -34 -34z m3578 -625
c627 -135 1101 -640 1194 -1274 22 -147 15 -400 -15 -535 -46 -206 -135 -410
-254 -579 -80 -112 -238 -271 -352 -352 -116 -81 -322 -182 -452 -220 -277
-81 -589 -81 -866 0 -127 37 -337 139 -441 214 -325 233 -531 550 -618 949
-19 85 -22 133 -22 301 0 171 3 215 23 305 31 147 63 236 130 375 77 156 162
276 286 400 244 243 530 383 900 439 17 2 111 3 210 1 134 -3 205 -9 277 -24z"/>
<path d="M3294 3050 c-33 -13 -71 -65 -95 -131 -19 -53 -25 -60 -43 -54 -43
13 -142 17 -168 6 -15 -5 -34 -22 -44 -36 -24 -37 -11 -85 45 -159 l49 -64
-25 -24 c-36 -33 -83 -118 -83 -151 0 -38 40 -77 82 -78 57 -2 108 2 137 11
28 8 30 7 46 -43 30 -94 74 -147 121 -147 33 0 84 48 107 100 30 69 58 88 120
80 167 -22 207 74 90 218 l-35 43 36 39 c48 53 66 92 66 140 0 35 -5 43 -32
61 -28 17 -44 20 -108 15 -90 -6 -101 0 -139 81 -15 32 -34 63 -42 70 -25 21
-63 31 -85 23z m69 -47 c14 -16 33 -46 42 -67 15 -36 15 -41 -1 -71 -26 -49
-78 -63 -139 -39 -26 11 -49 24 -52 31 -8 21 27 111 57 143 35 37 59 38 93 3z
m105 -157 c4 -21 -14 -37 -35 -29 -14 5 -18 35 -6 47 12 12 38 1 41 -18z
m-344 -1 l48 -7 -5 -35 c-3 -19 -18 -46 -32 -59 -17 -16 -24 -31 -21 -42 4
-13 -3 -25 -25 -41 -30 -22 -31 -22 -51 -4 -59 52 -99 159 -66 179 17 11 71
22 88 19 8 -2 37 -6 64 -10z m539 -13 c21 -19 22 -44 1 -85 -22 -43 -73 -107
-85 -107 -6 0 -30 16 -54 37 -103 86 -46 196 90 175 17 -3 38 -12 48 -20z
m-414 -23 c17 -6 31 -14 31 -17 0 -10 -78 -51 -84 -44 -8 8 -7 57 1 65 9 9 15
9 52 -4z m176 -15 c15 -10 25 -26 25 -40 l0 -24 -42 26 c-56 35 -55 34 -38 44
21 13 27 12 55 -6z m18 -92 c13 -12 17 -31 17 -83 0 -78 -7 -88 -90 -133 l-49
-27 -43 22 c-91 46 -98 54 -98 117 0 45 4 61 20 75 11 9 20 25 20 34 0 11 19
28 48 44 l47 26 55 -30 c30 -16 63 -36 73 -45z m-255 6 c-2 -15 -10 -23 -23
-23 -13 0 -21 8 -23 23 -3 18 1 22 23 22 22 0 26 -4 23 -22z m337 -62 l30 -24
-20 -22 c-11 -12 -28 -26 -37 -31 -16 -9 -18 -4 -18 46 0 30 3 55 8 55 4 0 20
-11 37 -24z m-375 -37 l0 -50 -35 27 -36 27 22 23 c36 38 49 31 49 -27z m-38
-52 c42 -38 47 -47 53 -98 7 -66 6 -67 -92 -76 -123 -11 -148 47 -68 156 25
34 48 61 52 61 5 -1 29 -20 55 -43z m545 -54 c30 -52 28 -92 -7 -111 -30 -16
-142 -11 -148 6 -2 7 -10 19 -19 27 -10 11 -13 26 -8 58 6 37 14 50 53 79 l47
36 28 -27 c16 -14 40 -45 54 -68z m-421 -29 c24 -14 44 -28 44 -30 0 -7 -72
-34 -80 -29 -8 5 -19 85 -12 85 2 0 23 -12 48 -26z m214 1 c0 -34 -46 -58 -78
-41 -22 12 -22 13 25 39 26 15 49 27 51 27 1 0 2 -11 2 -25z m-97 -60 c21 -9
42 -27 51 -46 15 -29 14 -35 -4 -77 -27 -61 -48 -82 -80 -82 -32 0 -62 30 -89
90 -32 69 -28 83 27 107 59 26 53 26 95 8z m115 -23 c3 -18 -1 -22 -22 -22
-19 0 -26 5 -26 18 0 39 43 43 48 4z"/>
<path d="M2350 1876 c0 -96 2 -107 24 -133 21 -25 31 -28 81 -28 49 0 60 4 80
27 27 32 38 87 33 173 -3 57 -4 60 -30 63 l-28 3 0 -98 c0 -110 -6 -123 -57
-123 -44 0 -53 21 -53 129 0 90 0 91 -25 91 l-25 0 0 -104z"/>
<path d="M2660 1851 l0 -131 25 0 c24 0 24 2 27 85 l3 85 50 -83 c45 -73 54
-82 83 -85 l33 -3 -3 128 -3 128 -25 0 c-24 0 -25 -3 -30 -82 l-5 -83 -51 83
c-40 66 -56 83 -77 85 l-27 3 0 -130z"/>
<path d="M3018 1962 c-59 -36 -76 -132 -35 -193 32 -48 91 -68 143 -48 58 22
87 70 81 138 -3 47 -9 59 -40 88 -30 27 -45 33 -79 33 -24 0 -55 -8 -70 -18z
m96 -33 c30 -14 51 -68 41 -107 -10 -40 -34 -62 -70 -62 -93 0 -96 170 -3 179
4 1 18 -4 32 -10z"/>
<path d="M3298 1974 c-5 -4 -8 -63 -8 -131 l0 -123 30 0 c29 0 30 2 30 45 l0
45 40 0 c51 0 85 16 99 47 17 36 13 59 -13 90 -21 25 -32 28 -97 31 -41 2 -77
0 -81 -4z m142 -63 c19 -37 -7 -60 -67 -61 -20 0 -23 5 -23 40 0 40 0 40 40
40 29 0 42 -5 50 -19z"/>
<path d="M3580 1850 l0 -130 90 0 c83 0 90 2 90 20 0 16 -8 19 -62 22 l-63 3
-3 108 c-3 106 -3 107 -27 107 l-25 0 0 -130z"/>
<path d="M3907 1973 c-3 -5 -23 -56 -45 -113 -22 -58 -43 -113 -47 -122 -6
-15 -2 -18 22 -18 23 0 31 6 40 30 10 27 15 30 58 30 42 0 47 -2 56 -30 9 -24
17 -30 39 -30 l28 0 -48 128 c-42 114 -50 127 -73 130 -14 2 -27 -1 -30 -5z
m46 -108 l16 -45 -35 0 c-19 0 -34 2 -34 5 0 8 32 85 35 85 2 0 10 -20 18 -45z"/>
<path d="M4080 1955 c0 -22 4 -25 40 -25 l40 0 0 -105 0 -105 25 0 25 0 0 105
0 105 40 0 c36 0 40 3 40 25 l0 25 -105 0 -105 0 0 -25z"/>
<path d="M2552 1498 c-28 -28 -7 -71 37 -74 27 -2 31 1 31 22 0 14 -6 24 -15
24 -9 0 -12 -6 -8 -16 4 -12 1 -15 -13 -12 -24 4 -31 46 -10 54 9 4 24 0 33
-7 14 -12 16 -12 11 1 -6 19 -49 25 -66 8z"/>
<path d="M2640 1465 c0 -43 1 -45 29 -45 17 0 33 5 36 10 4 6 -5 10 -19 10
-14 0 -26 5 -26 10 0 6 9 10 20 10 11 0 20 5 20 10 0 6 -9 10 -20 10 -30 0
-24 18 8 23 22 3 20 4 -10 6 l-38 1 0 -45z"/>
<path d="M2720 1465 c0 -25 5 -45 10 -45 6 0 10 15 10 33 l0 32 20 -33 c11
-18 25 -30 30 -27 13 8 13 85 0 85 -5 0 -10 -12 -10 -27 l-1 -28 -20 28 c-29
38 -39 34 -39 -18z"/>
<path d="M2820 1465 c0 -43 1 -45 30 -45 17 0 30 5 30 10 0 6 -11 10 -25 10
-14 0 -25 5 -25 10 0 6 9 10 20 10 11 0 20 5 20 10 0 6 -9 10 -20 10 -30 0
-24 18 8 23 25 4 25 4 -5 6 -33 1 -33 0 -33 -44z"/>
<path d="M2901 1463 c1 -26 4 -38 6 -25 5 25 43 32 43 8 0 -8 4 -18 10 -21 6
-4 9 11 7 37 -2 41 -4 43 -34 46 l-33 3 1 -48z m49 22 c0 -8 -9 -15 -20 -15
-11 0 -20 7 -20 15 0 8 9 15 20 15 11 0 20 -7 20 -15z"/>
<path d="M2997 1468 c-9 -23 -14 -44 -11 -47 4 -3 9 0 11 7 6 15 35 16 51 0
17 -17 15 1 -3 46 -8 20 -19 36 -24 36 -4 0 -15 -19 -24 -42z m29 -5 c-10 -10
-19 5 -10 18 6 11 8 11 12 0 2 -7 1 -15 -2 -18z"/>
<path d="M3072 1503 c12 -3 18 -17 21 -46 l4 -42 1 42 c2 30 7 43 20 46 9 3
-1 5 -23 5 -22 0 -32 -2 -23 -5z"/>
<path d="M3140 1471 c0 -22 5 -43 10 -46 6 -4 10 12 10 39 0 25 -4 46 -10 46
-5 0 -10 -18 -10 -39z"/>
<path d="M3187 1465 c8 -25 19 -45 23 -45 4 0 15 20 23 45 9 25 12 45 7 45 -5
0 -12 -11 -16 -25 -3 -14 -10 -25 -14 -25 -4 0 -11 11 -14 25 -4 14 -11 25
-16 25 -5 0 -2 -20 7 -45z"/>
<path d="M3260 1465 c0 -43 1 -45 29 -45 17 0 33 5 36 10 4 6 -5 10 -19 10
-14 0 -26 5 -26 10 0 6 9 10 20 10 11 0 20 5 20 10 0 6 -9 10 -20 10 -27 0
-25 18 3 23 16 3 13 5 -10 6 -33 1 -33 0 -33 -44z"/>
<path d="M3410 1465 c0 -25 5 -45 10 -45 6 0 10 9 10 19 0 12 8 21 23 24 l22
4 -22 2 c-13 0 -23 7 -23 15 0 8 10 17 23 19 16 3 13 5 -10 6 -33 1 -33 0 -33
-44z"/>
<path d="M3487 1468 c-9 -23 -14 -44 -11 -47 4 -3 9 0 11 7 6 15 35 16 51 0 9
-9 12 -9 12 0 0 21 -28 82 -38 82 -5 0 -16 -19 -25 -42z m33 7 c0 -8 -4 -15
-10 -15 -5 0 -7 7 -4 15 4 8 8 15 10 15 2 0 4 -7 4 -15z"/>
<path d="M3565 1500 c-9 -15 3 -30 33 -41 21 -8 23 -12 12 -19 -9 -5 -19 -5
-27 2 -8 6 -16 9 -18 6 -11 -11 25 -29 45 -23 29 9 26 41 -5 49 -14 4 -25 11
-25 17 0 7 10 9 26 5 17 -5 23 -3 19 4 -8 13 -52 13 -60 0z"/>
<path d="M3652 1503 c12 -3 18 -17 21 -46 l4 -42 1 42 c2 30 7 43 20 46 9 3
-1 5 -23 5 -22 0 -32 -2 -23 -5z"/>
<path d="M3780 1465 c0 -25 5 -45 10 -45 6 0 10 9 10 19 0 12 8 21 23 24 l22
4 -22 2 c-13 0 -23 7 -23 15 0 8 10 17 23 19 16 3 13 5 -10 6 -33 1 -33 0 -33
-44z"/>
<path d="M3861 1463 c1 -26 4 -38 6 -25 5 25 43 32 43 8 0 -8 4 -17 9 -20 5
-3 8 13 7 36 -2 40 -4 43 -34 46 l-32 3 1 -48z m49 22 c0 -8 -9 -15 -20 -15
-11 0 -20 7 -20 15 0 8 9 15 20 15 11 0 20 -7 20 -15z"/>
<path d="M3950 1465 c0 -43 1 -45 30 -45 17 0 30 5 30 10 0 6 -11 10 -25 10
-14 0 -25 5 -25 10 0 6 11 10 25 10 14 0 25 5 25 10 0 6 -11 10 -25 10 -34 0
-32 18 3 23 25 4 25 4 -5 6 -33 1 -33 0 -33 -44z"/>
<path d="M4030 1465 c0 -43 1 -45 30 -45 17 0 30 5 30 10 0 6 -9 10 -20 10
-11 0 -20 5 -20 10 0 6 9 10 20 10 11 0 20 5 20 10 0 6 -9 10 -20 10 -27 0
-25 18 3 23 16 3 13 5 -10 6 -33 1 -33 0 -33 -44z"/>
<path d="M3340 1429 c0 -5 5 -7 10 -4 6 3 10 8 10 11 0 2 -4 4 -10 4 -5 0 -10
-5 -10 -11z"/>
<path d="M3710 1429 c0 -5 5 -7 10 -4 6 3 10 8 10 11 0 2 -4 4 -10 4 -5 0 -10
-5 -10 -11z"/>
</g>
</svg>
